<?xml version="1.0" encoding="utf-8"?>
<!-- Generator: Adobe Illustrator 16.0.4, SVG Export Plug-In . SVG Version: 6.00 Build 0)  -->
<!DOCTYPE svg PUBLIC "-//W3C//DTD SVG 1.1//EN" "http://www.w3.org/Graphics/SVG/1.1/DTD/svg11.dtd">
<svg version="1.1" id="レイヤー_1" xmlns="http://www.w3.org/2000/svg" xmlns:xlink="http://www.w3.org/1999/xlink" x="0px"
	 y="0px" width="201px" height="162.242px" viewBox="0 0 201 162.242" enable-background="new 0 0 201 162.242"
	 xml:space="preserve">
<g>
	<path fill="#FFFFFF" d="M172.298,28.012C151.344,6.371,125.938,1.01,105.951,0.021c0,0-9.017-0.049-11.021,0
		c-20.006,0.495-45.393,6.35-66.347,27.991c-4.127,4.263-20.354-7.829-27.008,5.871c-7.748,15.952,15.729,17.62,14.483,24.659
		c-2.265,12.792-0.771,31.812,0.97,50.529c3.55,38.159,27.937,52.641,85.949,53.164c55.528,0.5,79.809-24.693,80.875-36.163
		c1.741-18.717,3.235-54.738,0.971-67.53c-1.246-7.039,22.23-8.707,14.482-24.659C192.651,20.183,176.426,32.275,172.298,28.012z
		 M35.379,72.352c2.638-20.385,19.886-29.953,30.25-28.75c33.375,3.875,28.871,38.738,16,50
		C57.629,114.602,32.629,93.602,35.379,72.352z M120.929,111.151c-0.405,3.603-5.688,6.061-12.326,7.167
		c1.604,2.074,1.609,7.164-1.893,9.409c-1.987,1.274-10.479,0.3-13.583-0.041c-3.762-0.414-3.378-7.177-2.639-9.715
		c-5.536-1.247-9.789-3.668-10.421-7.422c-0.958-5.696,2.365-9.763,11.588-12.391c1.864-2.312,4.813-3.138,7.326-3.221
		c4.515-0.149,7.555,1.079,9.492,2.801C114.828,100.188,121.579,105.37,120.929,111.151z M119.252,93.602
		c-12.871-11.262-17.375-46.125,16-50c10.364-1.203,27.612,8.365,30.25,28.75C168.252,93.602,143.252,114.602,119.252,93.602z"/>
	<path fill="#FFFFFF" d="M137.454,62.148c-6.317,0-11.438,5.121-11.438,11.438s5.121,11.438,11.438,11.438
		s11.438-5.121,11.438-11.438S143.771,62.148,137.454,62.148z"/>
	<path fill="none" stroke="#FFFFFF" stroke-width="2" stroke-miterlimit="10" d="M108.473,97.738
		c-1.937-1.723-4.977-2.95-9.492-2.801c-2.512,0.083-5.461,0.909-7.326,3.221c-0.638,0.791-1.151,1.754-1.473,2.924
		c-2.712,9.846,21.697,8.342,21.094,2.011C111.108,101.337,110.259,99.328,108.473,97.738z"/>
	<path fill="none" stroke="#FFFFFF" stroke-width="2" stroke-miterlimit="10" d="M108.603,118.318
		c-0.182-0.236-0.38-0.442-0.601-0.591c-3.613-2.431-16.002-1.173-17.042-0.708c-0.15,0.067-0.318,0.425-0.472,0.952
		c-0.74,2.538-1.124,9.301,2.639,9.715c3.104,0.341,11.596,1.315,13.583,0.041C110.212,125.482,110.207,120.392,108.603,118.318z"/>
	<path fill="#FFFFFF" d="M63.428,62.148c-6.317,0-11.438,5.121-11.438,11.438s5.121,11.438,11.438,11.438
		c6.317,0,11.438-5.121,11.438-11.438S69.745,62.148,63.428,62.148z"/>
</g>
</svg>
