<?xml version="1.0" encoding="utf-8"?>
<!-- Generator: Adobe Illustrator 16.0.4, SVG Export Plug-In . SVG Version: 6.00 Build 0)  -->
<!DOCTYPE svg PUBLIC "-//W3C//DTD SVG 1.1//EN" "http://www.w3.org/Graphics/SVG/1.1/DTD/svg11.dtd">
<svg version="1.1" id="レイヤー_1" xmlns="http://www.w3.org/2000/svg" xmlns:xlink="http://www.w3.org/1999/xlink" x="0px"
	 y="0px" width="434px" height="512px" viewBox="39.5 0 434 512" enable-background="new 39.5 0 434 512" xml:space="preserve">
<g>
	<path fill="#FFFFFF" d="M469.858,122.106c0.147-49.328-29.586-93.841-74.445-111.448c-47.902-18.801-98.221-6.278-135.854,32.642
		c-4.575,4.729-13.364,7.326-20.296,7.521c-53.539,1.515-94.924,24.328-120.435,71.325c-25.453,46.893-22.222,94.249,5.051,139.988
		c2.538,4.257,5.206,8.437,8.247,13.357c-4.46,1.845-7.311,3.061-10.188,4.21c-47.863,19.115-77.365,61.356-77.427,110.873
		c-0.059,49.366,29.391,93.041,74.892,111.064c46.423,18.393,97.714,5.95,133.404-31.115c4.94-5.131,14.158-8.643,21.406-8.658
		c76.327-0.148,136.765-60.062,137.324-136.362c0.238-32.367-10.538-60.747-30.19-87.841c4.317-1.923,6.183-2.844,8.107-3.601
		C439.933,214.179,469.706,172.73,469.858,122.106z M339.164,251.83c31.829,27.656,42.163,69.783,27.616,107.705
		c-14.778,38.524-50.871,63.266-94.906,62.921c-1.66-0.143-6.477-0.094-11.088-1.046c-13.475-2.786-22.507,1.354-30.393,13.443
		c-21.143,32.411-59.478,44.735-94.088,31.895c-35.511-13.171-56.506-47.004-52.509-84.61c3.871-36.417,32.052-64.617,70.691-70.027
		c12.835-1.796,24.508-2.741,29.426-18.497c4.432-14.214,1.294-23.406-9.574-33.273c-28.908-26.237-40.033-59.223-29.706-97.315
		c10.07-37.152,38.867-63.523,72.45-69.655c26.425-4.825,36.04-1.125,36.04-1.125c14.606,2.024,23.427-2.442,31.467-14.723
		c19.96-30.488,56.229-42.742,90.053-32.059c33.476,10.578,56.801,43.193,55.782,78.008c-1.04,35.588-24.749,65.637-59.498,75.065
		c-5.043,1.369-10.371,2.346-15.564,2.346c-14.364,0.003-21.873,7.354-26.043,20.63C325.236,234.516,329.134,243.109,339.164,251.83
		z"/>
</g>
</svg>
