<?xml version="1.0" encoding="utf-8"?>
<!-- Generator: Adobe Illustrator 16.0.4, SVG Export Plug-In . SVG Version: 6.00 Build 0)  -->
<!DOCTYPE svg PUBLIC "-//W3C//DTD SVG 1.1//EN" "http://www.w3.org/Graphics/SVG/1.1/DTD/svg11.dtd">
<svg version="1.1" id="レイヤー_1" xmlns="http://www.w3.org/2000/svg" xmlns:xlink="http://www.w3.org/1999/xlink" x="0px"
	 y="0px" width="100px" height="100px" viewBox="0 0 100 100" enable-background="new 0 0 100 100" xml:space="preserve">
<g>
	<g>
		<g>
			<defs>
				<circle id="SVGID_1_" cx="50" cy="50.001" r="50"/>
			</defs>
			<clipPath id="SVGID_2_">
				<use xlink:href="#SVGID_1_"  overflow="visible"/>
			</clipPath>
			<circle clip-path="url(#SVGID_2_)" fill="#FFF200" cx="50" cy="50.001" r="50"/>
		</g>
	</g>
	<g>
		<g>
			<defs>
				<circle id="SVGID_3_" cx="50" cy="50.001" r="50"/>
			</defs>
			<clipPath id="SVGID_4_">
				<use xlink:href="#SVGID_3_"  overflow="visible"/>
			</clipPath>
			<rect x="47.5" y="65.5" clip-path="url(#SVGID_4_)" fill="#23AD9F" width="6" height="38"/>
		</g>
		<g>
			<defs>
				<circle id="SVGID_5_" cx="50" cy="50.001" r="50"/>
			</defs>
			<clipPath id="SVGID_6_">
				<use xlink:href="#SVGID_5_"  overflow="visible"/>
			</clipPath>
			<polygon clip-path="url(#SVGID_6_)" fill="#231F20" points="47.5,65.5 47.5,67 52,67 52,102 49,102 49,65.5 47.5,65.5 47.5,67 
				47.5,65.5 46,65.5 46,105 55,105 55,64 46,64 46,65.5 			"/>
		</g>
	</g>
	<g>
		<g>
			<defs>
				<circle id="SVGID_7_" cx="50" cy="50.001" r="50"/>
			</defs>
			<clipPath id="SVGID_8_">
				<use xlink:href="#SVGID_7_"  overflow="visible"/>
			</clipPath>
			<path clip-path="url(#SVGID_8_)" fill="#23AD9F" d="M50.557,65.918c0,0-6.986,4.65-14.467,3.43
				c-7.482-1.219-12.628-7.847-12.628-7.847s6.984-4.649,14.466-3.433C45.411,59.289,50.557,65.918,50.557,65.918z"/>
		</g>
		<g>
			<defs>
				<circle id="SVGID_9_" cx="50" cy="50.001" r="50"/>
			</defs>
			<clipPath id="SVGID_10_">
				<use xlink:href="#SVGID_9_"  overflow="visible"/>
			</clipPath>
			<path clip-path="url(#SVGID_10_)" fill="#231F20" d="M50.557,65.918l-0.831-1.249l0.214,0.322l-0.213-0.323l-0.001,0.001
				l0.214,0.322l-0.213-0.323c-0.026,0.02-1.341,0.88-3.38,1.725c-2.038,0.846-4.796,1.662-7.683,1.659
				c-0.771,0-1.551-0.057-2.332-0.185l0,0c-3.364-0.542-6.318-2.354-8.414-4.062c-1.047-0.854-1.878-1.674-2.439-2.273
				c-0.281-0.301-0.495-0.545-0.635-0.711l-0.155-0.188l-0.035-0.043l-0.007-0.009l-0.191,0.15l0.192-0.149V60.58l-0.191,0.15
				l0.192-0.149l-1.185,0.92l0.831,1.249l-0.214-0.322l0.213,0.323l0.001-0.001l-0.214-0.322l0.213,0.323
				c0.026-0.019,1.341-0.881,3.381-1.726c2.04-0.846,4.798-1.664,7.688-1.66c0.769,0,1.547,0.057,2.327,0.184h-0.001
				c3.365,0.543,6.319,2.354,8.415,4.065c1.047,0.853,1.877,1.673,2.439,2.272c0.281,0.301,0.495,0.547,0.635,0.713l0.155,0.187
				l0.035,0.044l0.007,0.009l0.191-0.149l-0.192,0.148l0.001,0.001l0.191-0.149l-0.192,0.148L50.557,65.918l-0.831-1.249
				L50.557,65.918l1.186-0.92c-0.049-0.061-1.397-1.796-3.745-3.71c-2.348-1.908-5.708-4.022-9.826-4.7H38.17
				c-0.952-0.154-1.892-0.223-2.808-0.223c-3.503,0.003-6.651,0.977-8.943,1.935c-2.291,0.96-3.729,1.915-3.787,1.952l-1.343,0.895
				l0.99,1.274c0.048,0.062,1.397,1.796,3.746,3.71c2.348,1.907,5.708,4.021,9.826,4.697l0,0c0.955,0.154,1.897,0.224,2.815,0.224
				c3.501-0.003,6.648-0.977,8.939-1.934c2.29-0.96,3.729-1.914,3.786-1.951l1.342-0.896l-0.988-1.273L50.557,65.918z"/>
		</g>
		<g>
			<defs>
				<circle id="SVGID_11_" cx="50" cy="50.001" r="50"/>
			</defs>
			<clipPath id="SVGID_12_">
				<use xlink:href="#SVGID_11_"  overflow="visible"/>
			</clipPath>
			<path clip-path="url(#SVGID_12_)" fill="#23AD9F" d="M77.68,61.186c0,0-4.992,6.748-12.441,8.143
				c-7.451,1.395-14.543-3.096-14.543-3.096s4.99-6.743,12.441-8.14C70.587,56.7,77.68,61.186,77.68,61.186z"/>
		</g>
		<g>
			<defs>
				<circle id="SVGID_13_" cx="50" cy="50.001" r="50"/>
			</defs>
			<clipPath id="SVGID_14_">
				<use xlink:href="#SVGID_13_"  overflow="visible"/>
			</clipPath>
			<path clip-path="url(#SVGID_14_)" fill="#231F20" d="M77.68,61.186l-1.205-0.893l0.193,0.145l-0.193-0.145l0,0l0.193,0.145
				l-0.193-0.145c-0.029,0.04-1.244,1.652-3.293,3.383c-2.05,1.736-4.922,3.565-8.219,4.178c-0.902,0.168-1.805,0.242-2.693,0.242
				c-2.859,0.004-5.586-0.779-7.58-1.574c-0.996-0.396-1.809-0.795-2.363-1.09c-0.278-0.146-0.492-0.268-0.633-0.351l-0.155-0.092
				l-0.035-0.021l-0.006-0.004l-0.218,0.349l0.22-0.348l-0.002-0.001l-0.218,0.349l0.22-0.348l-0.804,1.268l1.207,0.894
				l-0.195-0.146l0.193,0.146l0.002-0.001l-0.195-0.146l0.193,0.146c0.029-0.041,1.244-1.65,3.293-3.382
				c2.05-1.735,4.922-3.563,8.221-4.177h-0.001c0.901-0.17,1.804-0.243,2.692-0.243c2.859-0.002,5.588,0.778,7.58,1.573
				c0.996,0.396,1.81,0.795,2.365,1.088c0.277,0.147,0.491,0.27,0.633,0.352l0.155,0.094l0.034,0.021l0.007,0.004l0.216-0.345
				l-0.218,0.344l0.002,0.001l0.216-0.345l-0.218,0.344L77.68,61.186l-1.205-0.893L77.68,61.186l0.803-1.268
				c-0.058-0.035-1.459-0.919-3.688-1.807c-2.229-0.885-5.29-1.784-8.688-1.787c-1.057,0-2.144,0.088-3.244,0.294h-0.002
				c-4.101,0.774-7.408,2.965-9.713,4.927c-2.303,1.969-3.61,3.732-3.658,3.795l-0.96,1.297l1.363,0.863
				c0.057,0.035,1.458,0.919,3.686,1.809c2.229,0.885,5.29,1.784,8.689,1.787c1.057,0,2.145-0.088,3.244-0.294
				c4.102-0.772,7.41-2.965,9.713-4.928c2.303-1.97,3.612-3.733,3.659-3.796l0.96-1.299l-1.363-0.861L77.68,61.186z"/>
		</g>
	</g>
	<g>
		<g>
			<defs>
				<circle id="SVGID_15_" cx="50" cy="50.001" r="50"/>
			</defs>
			<clipPath id="SVGID_16_">
				<use xlink:href="#SVGID_15_"  overflow="visible"/>
			</clipPath>
			<polygon clip-path="url(#SVGID_16_)" fill="#00B2E6" points="15.212,56.779 19.277,46.761 32.646,50.356 38.308,38.022 
				50.622,42.662 56.878,31.588 65.395,38.852 79.583,22.197 75.775,18.955 64.832,31.801 55.509,23.848 48.376,36.472 35.709,31.7 
				29.864,44.43 16.307,40.785 10.58,54.9 			"/>
		</g>
	</g>
	<g>
		<g>
			<defs>
				<circle id="SVGID_17_" cx="50" cy="50.001" r="50"/>
			</defs>
			<clipPath id="SVGID_18_">
				<use xlink:href="#SVGID_17_"  overflow="visible"/>
			</clipPath>
			<polygon clip-path="url(#SVGID_18_)" fill="#00B2E6" points="67.236,23.054 77.507,21.685 76.473,32.387 81.448,32.869 
				83.091,15.896 66.577,18.098 			"/>
		</g>
	</g>
</g>
</svg>
