<?xml version="1.0" encoding="utf-8"?>
<!-- Generator: Adobe Illustrator 16.0.4, SVG Export Plug-In . SVG Version: 6.00 Build 0)  -->
<!DOCTYPE svg PUBLIC "-//W3C//DTD SVG 1.1//EN" "http://www.w3.org/Graphics/SVG/1.1/DTD/svg11.dtd">
<svg version="1.1" id="レイヤー_1" xmlns="http://www.w3.org/2000/svg" xmlns:xlink="http://www.w3.org/1999/xlink" x="0px"
	 y="0px" width="100px" height="100px" viewBox="0 0 100 100" enable-background="new 0 0 100 100" xml:space="preserve">
<symbol  id="logo_x5F_dark" viewBox="-208 -68 416 136">
	<path d="M-207.3,15.4c0,29,24.3,52.5,53.3,52.5c16,0,27.4-6.301,36-14.5L-128.2,43.3c-6.1,5.8-14.399,10.3-25.8,10.3
		c-21.1,0-37.6-17-37.6-38.1s16.5-38.1,37.6-38.1c13.7,0,21.5,5.5,26.5,10.5c4.1,4.1,6.8,10,7.8,18H-154v14.3h48.3
		c0.5-2.601,0.8-5.601,0.8-9c0-10.8-2.899-24.101-12.399-33.5C-126.6-31.9-138.4-37-154-37C-183-37-207.3-13.5-207.3,15.4z
		 M-66,30.5c-18.7,0-33.9-14.2-33.9-33.8c0-19.5,15.2-33.8,33.9-33.8s33.9,14.3,33.9,33.8C-32.1,16.3-47.3,30.5-66,30.5z M-66-23.7
		c-10.2,0-19.1,8.4-19.1,20.5c0,12.2,8.8,20.5,19.1,20.5c10.2,0,19.1-8.3,19.1-20.5C-46.9-15.3-55.8-23.7-66-23.7z M8,30.5
		c-18.7,0-33.9-14.2-33.9-33.8c0-19.5,15.2-33.8,33.9-33.8S41.9-22.8,41.9-3.3C41.9,16.3,26.7,30.5,8,30.5z M8-23.7
		c-10.2,0-19.1,8.4-19.1,20.5C-11.1,9-2.3,17.3,8,17.3S27.1,9,27.1-3.2C27.1-15.3,18.2-23.7,8-23.7z M98.8,28.5V23h-0.5
		c-3.3,4-9.7,7.6-17.8,7.6C63.6,30.6,48.1,15.8,48.1-3.3C48.1-22.2,63.6-37,80.5-37c8.1,0,14.5,3.6,17.8,7.7h0.5v-4.9
		C98.8-47.1,91.9-54,80.8-54c-9.1,0-14.7,6.5-17,12L50.9-47.4c3.699-9,13.6-20,30-20C98.3-67.4,113-57.2,113-32.2v60.7H98.8z
		 M81.8-23.7C71.6-23.7,63-15.1,63-3.3C63,8.6,71.6,17.3,81.8,17.3c10.101,0,18-8.7,18-20.6C99.9-15.2,91.9-23.7,81.8-23.7z"/>
	<polygon points="138,-35 123.2,-35 123.2,64.3 138,64.3 	"/>
	<path d="M178.7-23.7c-7.601,0-12.9,3.5-16.4,10.2l45.2,18.7L206,9c-2.8,7.6-11.4,21.5-28.9,21.5C159.7,30.5,145.2,16.8,145.2-3.3
		c0-18.9,14.3-33.8,33.5-33.8c15.5,0,24.399,9.5,28.2,15L195.4-14.4C191.5-20,186.3-23.7,178.7-23.7z M177.6,17.5
		c5.9,0,10.9-2.9,12.5-7.2L159.9-2.2C159.5,10.8,170,17.5,177.6,17.5z"/>
	<polygon fill="none" points="-208,-68 208,-68 208,68 -208,68 	"/>
</symbol>
<g display="none">
	<g display="inline">
		<defs>
			<circle id="SVGID_1_" cx="50" cy="50.001" r="50"/>
		</defs>
		<clipPath id="SVGID_2_">
			<use xlink:href="#SVGID_1_"  overflow="visible"/>
		</clipPath>
		<circle clip-path="url(#SVGID_2_)" fill="#00B2E6" cx="50" cy="50.001" r="50"/>
	</g>
	<g display="inline">
		<defs>
			<circle id="SVGID_3_" cx="50" cy="50.001" r="50"/>
		</defs>
		<clipPath id="SVGID_4_">
			<use xlink:href="#SVGID_3_"  overflow="visible"/>
		</clipPath>
	</g>
	<g display="inline">
		<defs>
			<circle id="SVGID_5_" cx="50" cy="50.001" r="50"/>
		</defs>
		<clipPath id="SVGID_6_">
			<use xlink:href="#SVGID_5_"  overflow="visible"/>
		</clipPath>
	</g>
	<g display="inline">
		<defs>
			<circle id="SVGID_7_" cx="50" cy="50.001" r="50"/>
		</defs>
		<clipPath id="SVGID_8_">
			<use xlink:href="#SVGID_7_"  overflow="visible"/>
		</clipPath>
	</g>
	<g display="inline">
		<defs>
			<circle id="SVGID_9_" cx="50" cy="50.001" r="50"/>
		</defs>
		<clipPath id="SVGID_10_">
			<use xlink:href="#SVGID_9_"  overflow="visible"/>
		</clipPath>
	</g>
</g>
<g>
	<g>
		<polygon fill="#FFC042" points="1.577,17.75 1.577,44.397 25.094,58.201 25.094,31.555 		"/>
		<polygon fill="#FFC042" points="28.36,58.246 51.612,45.27 51.612,18.647 28.36,31.621 		"/>
	</g>
	<polygon fill="#FFC042" points="26.448,28.292 49.719,15.306 26.742,1.5 3.472,14.486 	"/>
	<rect x="26.595" y="28.292" fill="#FFC042" width="0" height="0"/>
</g>
<line fill="#3FA094" x1="128.98" y1="45.197" x2="128.98" y2="45.197"/>
<g>
	<g>
		<g>
			<path fill="#547DBF" d="M62.002,59.183h28.449l-4.662-8.035c-0.643-1.127-1.767-1.926-3.214-1.926H58.467
				c-1.286,0-2.572,0.637-3.214,1.926l-7.394,13.018l14.143,24.591V59.183z"/>
			<path fill="#FFCE40" d="M62.002,88.756L47.859,64.165l-4.662,8.04c-0.642,1.121-0.642,2.568,0,3.695l12.055,20.895
				c0.642,1.123,1.928,1.926,3.214,1.926h14.946L87.72,73.97L62.002,88.756z"/>
			<path fill="#DB4436" d="M90.451,59.183H62.002L87.557,73.97L73.254,98.721h9.321c1.284,0,2.571-0.642,3.214-1.926l12.056-21.057
				c0.642-1.126,0.642-2.572,0-3.695L90.451,59.183z"/>
		</g>
	</g>
	<g>
		<g>
			<g>
				<defs>
					<path id="SVGID_11_" d="M90.451,59.183H62.002L87.557,73.97L73.254,98.721h9.321c1.284,0,2.571-0.642,3.214-1.926
						l12.056-21.057c0.642-1.126,0.642-2.572,0-3.695L90.451,59.183z"/>
				</defs>
				<defs>
					<path id="SVGID_12_" d="M90.451,59.183H62.002L87.557,73.97L73.254,98.721h9.321c1.284,0,2.571-0.642,3.214-1.926
						l12.056-21.057c0.642-1.126,0.642-2.572,0-3.695L90.451,59.183z"/>
				</defs>
				<clipPath id="SVGID_13_">
					<use xlink:href="#SVGID_11_"  overflow="visible"/>
				</clipPath>
				<clipPath id="SVGID_14_" clip-path="url(#SVGID_13_)">
					<use xlink:href="#SVGID_12_"  overflow="visible"/>
				</clipPath>
				<g clip-path="url(#SVGID_14_)">
					<path fill="#EEEEEE" d="M79.039,59.183l8.518,14.787l-8.518,14.786H62.002L53.483,73.97l8.519-14.787H79.039"/>
				</g>
				<g clip-path="url(#SVGID_14_)">
					<path fill="#547DBF" d="M62.002,59.183h28.449l-4.662-8.035c-0.643-1.127-1.767-1.926-3.214-1.926H58.467
						c-1.286,0-2.572,0.637-3.214,1.926l-7.394,13.018l14.143,24.591V59.183z"/>
				</g>
			</g>
			<g>
				<defs>
					<path id="SVGID_15_" d="M97.845,72.043l-7.394-13.018l-4.662-8.04c-0.643-0.965-1.767-1.764-3.214-1.764H58.467
						c-1.286,0-2.572,0.637-3.214,1.926l-7.394,13.018l-4.662,8.04c-0.642,1.121-0.642,2.568,0,3.695l12.055,20.895
						c0.642,1.123,1.928,1.926,3.214,1.926h24.108c1.284,0,2.571-0.642,3.214-1.926l12.056-21.057
						C98.486,74.612,98.486,73.326,97.845,72.043z M70.359,81.362c-4.016,0-7.392-3.375-7.392-7.393
						c0-4.019,3.376-7.395,7.392-7.395c4.02,0,7.394,3.376,7.394,7.395C77.753,77.987,74.539,81.362,70.359,81.362z"/>
				</defs>
				<clipPath id="SVGID_16_">
					<use xlink:href="#SVGID_15_"  overflow="visible"/>
				</clipPath>
				<g clip-path="url(#SVGID_16_)">
					<g>
						<defs>
							<path id="SVGID_17_" d="M62.002,88.756L47.859,64.165l-4.662,8.04c-0.642,1.121-0.642,2.568,0,3.695l12.055,20.895
								c0.642,1.123,1.928,1.926,3.214,1.926h14.946L87.72,73.97L62.002,88.756z"/>
						</defs>
						<clipPath id="SVGID_18_">
							<use xlink:href="#SVGID_17_"  overflow="visible"/>
						</clipPath>
						<g clip-path="url(#SVGID_18_)">
							<path fill="#EEEEEE" d="M79.039,59.183l8.518,14.787l-8.518,14.786H62.002L53.483,73.97l8.519-14.787H79.039"/>
						</g>
					</g>
					<g>
						<defs>
							<path id="SVGID_19_" d="M97.845,72.043l-7.394-13.018l-4.662-8.04c-0.643-0.965-1.767-1.764-3.214-1.764H58.467
								c-1.286,0-2.572,0.637-3.214,1.926l-7.394,13.018l-4.662,8.04c-0.642,1.121-0.642,2.568,0,3.695l12.055,20.895
								c0.642,1.123,1.928,1.926,3.214,1.926h24.108c1.284,0,2.571-0.642,3.214-1.926l12.056-21.057
								C98.486,74.612,98.486,73.326,97.845,72.043z M70.359,81.362c-4.016,0-7.392-3.375-7.392-7.393
								c0-4.019,3.376-7.395,7.392-7.395c4.02,0,7.394,3.376,7.394,7.395C77.753,77.987,74.539,81.362,70.359,81.362z"/>
						</defs>
						<clipPath id="SVGID_20_">
							<use xlink:href="#SVGID_19_"  overflow="visible"/>
						</clipPath>
						<g clip-path="url(#SVGID_20_)">
							<path fill="#EEEEEE" d="M79.039,59.183l8.518,14.787l-8.518,14.786H62.002L53.483,73.97l8.519-14.787H79.039"/>
						</g>
					</g>
					<g>
						<defs>
							<path id="SVGID_21_" d="M97.845,72.043l-7.394-13.018l-4.662-8.04c-0.643-0.965-1.767-1.764-3.214-1.764H58.467
								c-1.286,0-2.572,0.637-3.214,1.926l-7.394,13.018l-4.662,8.04c-0.642,1.121-0.642,2.568,0,3.695l12.055,20.895
								c0.642,1.123,1.928,1.926,3.214,1.926h24.108c1.284,0,2.571-0.642,3.214-1.926l12.056-21.057
								C98.486,74.612,98.486,73.326,97.845,72.043z M70.359,81.362c-4.016,0-7.392-3.375-7.392-7.393
								c0-4.019,3.376-7.395,7.392-7.395c4.02,0,7.394,3.376,7.394,7.395C77.753,77.987,74.539,81.362,70.359,81.362z"/>
						</defs>
						<clipPath id="SVGID_22_">
							<use xlink:href="#SVGID_21_"  overflow="visible"/>
						</clipPath>
					</g>
					<g>
						<defs>
							<path id="SVGID_23_" d="M97.845,72.043l-7.394-13.018l-4.662-8.04c-0.643-0.965-1.767-1.764-3.214-1.764H58.467
								c-1.286,0-2.572,0.637-3.214,1.926l-7.394,13.018l-4.662,8.04c-0.642,1.121-0.642,2.568,0,3.695l12.055,20.895
								c0.642,1.123,1.928,1.926,3.214,1.926h24.108c1.284,0,2.571-0.642,3.214-1.926l12.056-21.057
								C98.486,74.612,98.486,73.326,97.845,72.043z M70.359,81.362c-4.016,0-7.392-3.375-7.392-7.393
								c0-4.019,3.376-7.395,7.392-7.395c4.02,0,7.394,3.376,7.394,7.395C77.753,77.987,74.539,81.362,70.359,81.362z"/>
						</defs>
						<clipPath id="SVGID_24_">
							<use xlink:href="#SVGID_23_"  overflow="visible"/>
						</clipPath>
					</g>
					
						<radialGradient id="SVGID_25_" cx="387.3926" cy="612.6836" r="45.9622" gradientTransform="matrix(0.0023 0 0 -0.0023 518.1425 -1898.8773)" gradientUnits="userSpaceOnUse">
						<stop  offset="0" style="stop-color:#FFFFFF;stop-opacity:0.1"/>
						<stop  offset="1" style="stop-color:#FFFFFF;stop-opacity:0"/>
					</radialGradient>
					<path fill="url(#SVGID_25_)" d="M70.359,81.362c-4.016,0-7.392-3.375-7.392-7.393c0-4.019,3.376-7.395,7.392-7.395
						c4.02,0,7.394,3.376,7.394,7.395C77.753,77.987,74.539,81.362,70.359,81.362z"/>
					<rect x="42.715" y="44.24" fill="none" width="55.612" height="59.302"/>
					<g opacity="0.54" enable-background="new    ">
						<g>
							<defs>
								<rect id="SVGID_26_" x="113.273" y="44.24" width="384.935" height="59.302"/>
							</defs>
							<clipPath id="SVGID_27_">
								<use xlink:href="#SVGID_26_"  overflow="visible"/>
							</clipPath>
							<rect x="113.273" y="56.934" clip-path="url(#SVGID_27_)" fill="none" width="384.935" height="41.949"/>
						</g>
						<g>
							<defs>
								<rect id="SVGID_28_" x="113.273" y="44.24" width="384.935" height="59.302"/>
							</defs>
							<clipPath id="SVGID_29_">
								<use xlink:href="#SVGID_28_"  overflow="visible"/>
							</clipPath>
							<g clip-path="url(#SVGID_29_)">
								<path d="M250.53,74.612c0-8.36,6.43-14.787,14.787-14.787c4.339,0,7.876,1.769,10.449,4.664l-2.573,2.41
									c-1.931-2.41-4.663-3.537-7.876-3.537c-5.946,0-10.927,4.34-10.927,11.25c0,6.911,4.98,11.248,10.927,11.248
									c3.536,0,6.592-1.608,8.679-4.174l2.572,2.565c-2.409,2.896-6.429,4.985-11.251,4.985
									C256.96,89.398,250.53,83.131,250.53,74.612z M279.303,88.756V60.471h3.695v28.285H279.303z M305.662,79.113
									c0,5.948-4.184,10.285-9.966,10.285c-5.79,0-9.965-4.499-9.965-10.285c0-5.947,4.175-10.284,9.965-10.284
									C301.479,68.829,305.662,73.166,305.662,79.113z M301.964,79.113c0-4.501-3.053-7.07-6.268-7.07
									c-3.213,0-6.271,2.569-6.271,7.07c0,4.503,3.058,7.069,6.271,7.069C298.911,86.022,301.964,83.454,301.964,79.113z
									 M322.057,88.756v-2.733h-0.162c-1.127,1.768-3.537,3.376-6.109,3.376c-4.982,0-7.395-3.376-7.395-8.197V69.31h3.698v11.249
									c0,4.018,2.089,5.464,4.824,5.464c3.213,0,5.144-3.054,5.144-5.944V69.466h3.694v19.45h-3.694V88.756z M328.483,79.113
									c0-5.947,4.337-10.284,9.159-10.284c3.051,0,5.466,1.606,6.589,3.376h0.162l-0.162-2.739v-8.995h3.699v28.285h-3.376v-2.733
									h-0.161c-1.124,1.768-3.538,3.376-6.59,3.376C332.82,89.398,328.483,85.062,328.483,79.113z M344.555,79.113
									c0-4.501-2.892-7.07-6.104-7.07c-3.214,0-6.11,2.569-6.11,7.07c0,4.341,2.896,7.069,6.11,7.069
									C341.502,86.022,344.555,83.454,344.555,79.113z M357.896,88.756V60.471h9.643c4.659,0,8.837,3.538,8.837,8.358
									c0,4.821-4.178,8.359-8.837,8.359h-5.946v11.41h-3.696V88.756z M367.7,73.812c3.213,0,4.981-2.734,4.981-4.982
									c0-2.254-1.769-4.982-4.981-4.982h-6.108v9.965H367.7z M378.949,88.756V60.471h3.7v28.285H378.949z M385.7,82.969
									c0-4.336,4.017-6.751,8.521-6.751c2.568,0,4.499,0.809,5.302,1.128v-0.48c0-2.896-2.411-4.66-4.981-4.66
									c-2.089,0-4.02,0.961-4.667,2.729l-3.37-1.446c0.643-1.769,3.053-4.659,7.875-4.659c4.825,0,8.675,2.891,8.675,8.359v11.728
									h-3.531v-2.733h-0.162c-1.126,1.607-3.052,3.375-6.428,3.375C389.077,89.398,385.7,86.992,385.7,82.969z M399.522,80.402
									c0,0-1.607-1.289-4.664-1.289c-3.852,0-5.302,2.088-5.302,3.855c0,2.093,2.086,3.054,4.017,3.054
									C396.465,86.022,399.522,83.616,399.522,80.402z M408.198,82.969V72.843h-3.375v-3.377h3.375v-5.942h3.7v5.942h4.821v3.377
									h-4.821v9.965c0,2.254,0.961,3.215,2.572,3.215c0.642,0,1.126,0,1.606-0.32l1.284,3.054
									c-0.804,0.322-1.765,0.481-2.891,0.481C410.452,89.078,408.198,86.83,408.198,82.969z M431.829,60.795l-1.288,3.052
									c-0.48-0.162-0.965-0.323-1.607-0.323c-1.764,0-3.214,1.122-3.214,3.376v2.41h4.983v3.375h-4.983v16.071h-3.694V72.685
									h-3.537V69.31h3.698v-2.41c0-4.023,2.729-6.59,6.909-6.59C430.223,60.31,431.021,60.471,431.829,60.795z M451.76,79.113
									c0,5.948-4.184,10.285-9.966,10.285c-5.791,0-9.965-4.499-9.965-10.285c0-5.947,4.174-10.284,9.965-10.284
									C447.576,68.829,451.76,73.166,451.76,79.113z M448.062,79.113c0-4.501-3.054-7.07-6.268-7.07
									c-3.213,0-6.271,2.569-6.271,7.07c0,4.503,3.059,7.069,6.271,7.069C445.008,86.022,448.062,83.454,448.062,79.113z
									 M454.65,88.756v-19.29h3.538v3.219h0.161c0.799-2.249,3.533-3.694,5.62-3.694c1.126,0,1.931,0.156,2.735,0.476
									l-1.446,3.377c-0.48-0.158-1.127-0.319-1.93-0.319c-2.572,0-4.979,2.089-4.979,5.625v10.607H454.65z M468.635,69.466h3.531
									v2.739h0.162c1.127-1.93,3.698-3.376,5.949-3.376c3.056,0,5.145,1.446,6.109,3.694c1.444-2.248,3.693-3.694,6.75-3.694
									c4.82,0,6.909,3.376,6.909,8.197v11.89h-3.695V77.663c0-4.013-1.607-5.302-4.34-5.302c-2.896,0-4.982,3.058-4.982,5.95
									v10.767h-3.695V77.825c0-4.014-1.608-5.302-4.346-5.302c-2.891,0-4.982,3.053-4.982,5.948v10.766h-3.693V69.466H468.635z"/>
							</g>
						</g>
						<g>
							<defs>
								<rect id="SVGID_30_" x="113.273" y="44.24" width="384.935" height="59.302"/>
							</defs>
							<clipPath id="SVGID_31_">
								<use xlink:href="#SVGID_30_"  overflow="visible"/>
							</clipPath>
							<g clip-path="url(#SVGID_31_)">
								
									<use xlink:href="#logo_x5F_dark"  width="416" height="136" x="-208" y="-68" transform="matrix(0.3089 0 0 -0.3089 177.4619 77.9697)" overflow="visible"/>
							</g>
						</g>
					</g>
				</g>
			</g>
		</g>
	</g>
</g>
</svg>
