<?xml version="1.0" encoding="utf-8"?>
<!-- Generator: Adobe Illustrator 16.0.4, SVG Export Plug-In . SVG Version: 6.00 Build 0)  -->
<!DOCTYPE svg PUBLIC "-//W3C//DTD SVG 1.1//EN" "http://www.w3.org/Graphics/SVG/1.1/DTD/svg11.dtd">
<svg version="1.1" id="レイヤー_1" xmlns="http://www.w3.org/2000/svg" xmlns:xlink="http://www.w3.org/1999/xlink" x="0px"
	 y="0px" width="62.667px" height="79.333px" viewBox="18 10.833 62.667 79.333" enable-background="new 18 10.833 62.667 79.333"
	 xml:space="preserve">
<g display="none">
	<g display="inline">
		<g>
			<defs>
				<circle id="SVGID_1_" cx="50" cy="50.001" r="50"/>
			</defs>
			<clipPath id="SVGID_2_">
				<use xlink:href="#SVGID_1_"  overflow="visible"/>
			</clipPath>
			<circle clip-path="url(#SVGID_2_)" fill="#00B2E6" cx="50" cy="50.001" r="50"/>
		</g>
	</g>
</g>
<line fill="none" x1="128.98" y1="45.197" x2="128.98" y2="45.197"/>
<g>
	<polygon fill="#EBF0F3" points="65.617,11.936 19.615,11.936 19.615,88.799 79.5,88.799 79.5,25.703 	"/>
</g>
<g>
	<polygon fill="#E1E6E9" points="65.617,25.703 79.5,25.703 65.617,11.936 	"/>
</g>
<g>
	<polyline fill="#D5D6DB" points="65.617,25.703 79.5,39.354 79.5,25.703 	"/>
</g>
<g>
	<path fill="#D5D6DB" d="M42.674,25.703h9.293c0.344,0,0.572-0.23,0.572-0.573c0-0.345-0.229-0.574-0.572-0.574h-9.293
		c-0.344,0-0.573,0.229-0.573,0.574C42.101,25.473,42.33,25.703,42.674,25.703z"/>
</g>
<g>
	<path fill="#D5D6DB" d="M42.674,30.406h15.487c0.344,0,0.574-0.229,0.574-0.573s-0.23-0.574-0.574-0.574H42.674
		c-0.344,0-0.573,0.229-0.573,0.574S42.33,30.406,42.674,30.406z"/>
</g>
<g>
	<path fill="#D5D6DB" d="M62.635,34.078H42.674c-0.344,0-0.573,0.229-0.573,0.573c0,0.345,0.229,0.574,0.573,0.574h19.961
		c0.344,0,0.574-0.229,0.574-0.574C63.209,34.307,62.865,34.078,62.635,34.078z"/>
</g>
<g>
	<path fill="#D5D6DB" d="M74.337,82.604H24.089c-0.345,0-0.574,0.23-0.574,0.574s0.229,0.572,0.574,0.572h50.248
		c0.344,0,0.574-0.229,0.574-0.572S74.681,82.604,74.337,82.604z"/>
</g>
<g>
	<path fill="#64798A" d="M61.718,52.434H49.787v-4.017h11.931V52.434z M61.718,57.48H49.787v-4.016h11.931V57.48z M61.718,62.643
		H49.787v-4.016h11.931V62.643z M61.718,67.805H49.787V63.79h11.931V67.805z M49.787,43.255h11.931v4.016H49.787V43.255z
		 M74.337,48.417c0.344,0,0.574-0.229,0.574-0.573c0-0.344-0.23-0.573-0.574-0.573H62.865v-4.016h11.472
		c0.344,0,0.574-0.23,0.574-0.573c0-0.345-0.23-0.575-0.574-0.575H24.089c-0.345,0-0.574,0.229-0.574,0.575
		c0,0.343,0.229,0.573,0.574,0.573h24.549v4.016H24.089c-0.345,0-0.574,0.229-0.574,0.573c0,0.344,0.229,0.573,0.574,0.573h24.549
		v4.017H24.089c-0.345,0-0.574,0.229-0.574,0.572c0,0.345,0.229,0.573,0.574,0.573h24.549v4.017H24.089
		c-0.345,0-0.574,0.229-0.574,0.572c0,0.346,0.229,0.572,0.574,0.572h24.549v4.017H24.089c-0.345,0-0.574,0.23-0.574,0.574
		s0.229,0.574,0.574,0.574h24.549v4.015H24.089c-0.345,0-0.574,0.23-0.574,0.574s0.229,0.574,0.574,0.574h50.248
		c0.344,0,0.574-0.23,0.574-0.574s-0.23-0.574-0.574-0.574H62.865v-4.015h11.472c0.344,0,0.574-0.23,0.574-0.574
		s-0.23-0.574-0.574-0.574H62.865V58.74h11.472c0.344,0,0.574-0.227,0.574-0.572c0-0.344-0.23-0.572-0.574-0.572H62.865v-4.017
		h11.472c0.344,0,0.574-0.229,0.574-0.573c0-0.344-0.23-0.572-0.574-0.572H62.865v-4.017H74.337z"/>
</g>
<g>
	<path fill="#27A2DB" d="M74.337,74.918H61.028c-0.344,0-0.572,0.229-0.572,0.574c0,0.344,0.229,0.573,0.572,0.573h13.309
		c0.344,0,0.574-0.229,0.574-0.573C74.911,75.262,74.681,74.918,74.337,74.918z"/>
</g>
<path fill="none" stroke="#E56353" stroke-width="2" stroke-miterlimit="10" d="M36.167,30.333c0,1.104-0.896,2-2,2h-7.333
	c-1.104,0-2-0.896-2-2V22c0-1.104,0.896-2,2-2h7.333c1.104,0,2,0.896,2,2V30.333z"/>
</svg>
