<?xml version="1.0" encoding="utf-8"?>
<!-- Generator: Adobe Illustrator 16.0.4, SVG Export Plug-In . SVG Version: 6.00 Build 0)  -->
<!DOCTYPE svg PUBLIC "-//W3C//DTD SVG 1.1//EN" "http://www.w3.org/Graphics/SVG/1.1/DTD/svg11.dtd">
<svg version="1.1" id="レイヤー_1" xmlns="http://www.w3.org/2000/svg" xmlns:xlink="http://www.w3.org/1999/xlink" x="0px"
	 y="0px" width="100px" height="100px" viewBox="0 0 100 100" enable-background="new 0 0 100 100" xml:space="preserve">
<g display="none">
	<defs>
		<circle id="SVGID_1_" cx="50" cy="50.001" r="50"/>
	</defs>
	<clipPath id="SVGID_2_" display="inline">
		<use xlink:href="#SVGID_1_"  overflow="visible"/>
	</clipPath>
	<circle display="inline" clip-path="url(#SVGID_2_)" fill="#FFC042" cx="50" cy="50.001" r="50"/>
	
		<rect x="47.5" y="65.5" display="inline" clip-path="url(#SVGID_2_)" fill="#23AD9F" stroke="#231F20" stroke-width="3" stroke-miterlimit="10" width="6" height="38"/>
	<g display="inline" clip-path="url(#SVGID_2_)">
		<path fill="#23AD9F" stroke="#231F20" stroke-width="3" stroke-miterlimit="10" d="M50.556,65.918c0,0-6.985,4.651-14.466,3.43
			c-7.482-1.219-12.628-7.847-12.628-7.847s6.984-4.65,14.466-3.432C45.411,59.289,50.556,65.918,50.556,65.918z"/>
		<path fill="#23AD9F" stroke="#231F20" stroke-width="3" stroke-miterlimit="10" d="M77.68,61.186c0,0-4.992,6.747-12.442,8.141
			c-7.452,1.394-14.542-3.094-14.542-3.094s4.989-6.745,12.441-8.14C70.587,56.7,77.68,61.186,77.68,61.186z"/>
	</g>
	
		<polyline display="inline" clip-path="url(#SVGID_2_)" fill="none" stroke="#FFFFFF" stroke-width="5" stroke-miterlimit="10" points="
		12.896,55.841 17.792,43.773 31.255,47.393 37.009,34.861 49.499,39.567 56.194,27.718 65.114,35.326 77.68,20.576 	"/>
	
		<polyline display="inline" clip-path="url(#SVGID_2_)" fill="none" stroke="#FFFFFF" stroke-width="5" stroke-miterlimit="10" points="
		66.907,20.576 80.299,18.791 78.96,32.628 	"/>
</g>
<rect display="none" width="100" height="100"/>
<g>
	<defs>
		<circle id="SVGID_3_" cx="50" cy="50.001" r="50"/>
	</defs>
	<clipPath id="SVGID_4_">
		<use xlink:href="#SVGID_3_"  overflow="visible"/>
	</clipPath>
	<circle clip-path="url(#SVGID_4_)" fill="#FFC042" cx="50" cy="50.001" r="50"/>
	<g clip-path="url(#SVGID_4_)">
		<path fill="#231F20" d="M20.623,93.727l16.793-46.193h6.735l-1.945,5.847h16.222l-1.919-5.854l6.735,0.009l16.57,46.349
			l-6.511,1.734l-4.099-11.339H31.273l-4.178,11.438L20.623,93.727z M67.118,78.344l-2.547-7.28H35.974l-2.583,7.28H67.118z
			 M62.494,65.128l-2.033-5.812H40.143l-2.063,5.812H62.494z"/>
		<path fill="#FFFFFF" d="M58.58,49.028l3.606,0.005l15.667,43.82l-3.606,0.961l-3.989-11.035H30.224l-4.049,11.086l-3.603-1.108
			l15.896-43.724h3.604l-1.945,5.847h20.372L58.58,49.028 M35.956,66.628h28.653l-3.083-8.812H39.084L35.956,66.628 M31.266,79.844
			h37.965l-3.596-10.28H34.914L31.266,79.844 M54.438,46.022l1.292,3.94l0.628,1.917H44.286l0.632-1.899l1.313-3.947h-4.16h-3.604
			h-2.102l-0.718,1.975L19.752,91.731l-1.078,2.965l3.015,0.928l3.603,1.108l2.723,0.838l0.977-2.676l3.329-9.115h35.831
			l3.273,9.055l0.936,2.588l2.658-0.709l3.606-0.961l3.149-0.839l-1.097-3.069l-15.667-43.82l-0.711-1.987l-2.11-0.003l-3.606-0.005
			L54.438,46.022L54.438,46.022z M41.202,60.816h18.194l0.984,2.812H40.204L41.202,60.816L41.202,60.816z M37.033,72.563h26.474
			l1.497,4.28h-29.49L37.033,72.563L37.033,72.563z"/>
	</g>
	<g clip-path="url(#SVGID_4_)">
		<g>
			<polygon fill="#FCB1D0" points="35.682,14.579 64.329,14.579 70.257,22.81 50.418,43.72 29.754,22.81 			"/>
			<path fill="#231F20" d="M50.434,45.316L28.306,22.922l6.807-9.453h29.786l6.796,9.438L50.434,45.316z M31.205,22.697L50.4,42.125
				l18.419-19.412l-5.059-7.023H36.25L31.205,22.697z"/>
		</g>
		<g>
			<rect x="29.754" y="21.7" fill="#231F20" width="40.503" height="2.22"/>
		</g>
		<g>
			<polygon fill="#231F20" points="49.39,44.144 40.855,23.363 34.792,15.243 36.571,13.915 42.855,22.389 51.443,43.3 			"/>
		</g>
		<g>
			<polygon fill="#231F20" points="51.443,44.144 49.39,43.3 58.117,22.146 64.264,13.915 66.041,15.243 59.979,23.363 			"/>
		</g>
		<g>
			<polygon fill="#231F20" points="58.254,23.627 50.418,16.417 42.58,23.627 41.077,21.995 50.418,13.4 59.756,21.995 			"/>
		</g>
	</g>
</g>
<g display="none">
	<defs>
		<circle id="SVGID_5_" cx="50" cy="50.001" r="50"/>
	</defs>
	<clipPath id="SVGID_6_" display="inline">
		<use xlink:href="#SVGID_5_"  overflow="visible"/>
	</clipPath>
	<circle display="inline" clip-path="url(#SVGID_6_)" fill="#FFC042" cx="50" cy="50.001" r="50"/>
	<g display="inline" clip-path="url(#SVGID_6_)">
		<g>
			<g>
				<path fill="#FFFFFF" d="M71.266,75.342v11.537V75.342z"/>
				<rect x="70.378" y="75.342" fill="#231F20" width="1.775" height="11.537"/>
			</g>
			<g>
				<path fill="#FFFFFF" d="M82.44,75.342l6.506,11.537L82.44,75.342z"/>
				
					<rect x="79.07" y="80.224" transform="matrix(0.4913 0.871 -0.871 0.4913 114.2384 -33.3771)" fill="#231F20" width="13.246" height="1.774"/>
			</g>
			<g>
				<path fill="#FFFFFF" d="M60.091,75.342l-6.508,11.537L60.091,75.342z"/>
				
					<rect x="55.95" y="74.488" transform="matrix(0.8711 0.4911 -0.4911 0.8711 47.1593 -17.4579)" fill="#231F20" width="1.776" height="13.246"/>
			</g>
		</g>
		<g>
			<rect x="48.635" y="41.47" fill="#FFFFFF" width="45.26" height="34.611"/>
		</g>
		<g>
			<rect x="51.741" y="44.132" fill="#FFFFFF" width="39.048" height="28.99"/>
			<path fill="#231F20" d="M91.677,74.01H50.854V43.245h40.823V74.01z M52.629,72.235H89.9V45.02H52.629V72.235z"/>
		</g>
		<g>
			<path fill="#231F20" d="M78.882,45.02H63.646v-5.103h15.235V45.02z M65.421,43.245h11.686v-1.554H65.421V43.245z"/>
		</g>
		<g>
			<rect x="70.378" y="35.332" fill="#231F20" width="1.775" height="5.769"/>
		</g>
		<g>
			<g>
				<rect x="55.401" y="47.682" fill="#00B2E6" width="31.727" height="15.975"/>
			</g>
			<g>
				<circle fill="#FFFFFF" cx="79.917" cy="53.895" r="2.996"/>
			</g>
			<g>
				<polygon fill="#FFFFFF" points="55.401,60.439 61.059,52.674 66.827,60.439 71.266,55.225 76.922,63.657 55.401,63.657 				"/>
			</g>
		</g>
	</g>
	<g display="inline" clip-path="url(#SVGID_6_)">
		<g>
			<path fill="#FFFFFF" d="M35.666,27.058l-3.917-1.455l-2.319,3.725c-1.637-0.196-3.271-0.096-4.829,0.271l-2.659-3.386
				l-3.796,1.74l0.992,4.275c-1.124,0.884-2.118,1.946-2.936,3.163l-4.339-0.67l-1.453,3.915l3.573,2.4
				c-0.255,1.632-0.216,3.265,0.089,4.833l-3.543,2.592l1.741,3.798l4.227-0.83c0.941,1.295,2.111,2.437,3.479,3.355l-0.673,4.336
				l3.916,1.454l2.4-3.572c1.634,0.258,3.266,0.22,4.833-0.089l2.594,3.543l3.797-1.742l-0.831-4.224
				c1.433-1.04,2.677-2.362,3.644-3.92l4.272,0.514l1.454-3.916l-3.724-2.321c0.196-1.637,0.097-3.267-0.269-4.826l3.384-2.66
				l-1.74-3.798l-4.275,0.992c-0.989-1.257-2.2-2.354-3.604-3.224L35.666,27.058z"/>
			<path fill="#231F20" d="M23.696,62.055l-5.755-2.136l0.709-4.579c-0.992-0.744-1.881-1.604-2.662-2.568l-4.427,0.869l-2.56-5.578
				l3.742-2.736c-0.177-1.229-0.198-2.468-0.068-3.699l-3.747-2.516l2.138-5.752l4.577,0.708c0.63-0.839,1.345-1.607,2.134-2.299
				l-1.045-4.511l5.579-2.556l2.786,3.546c1.222-0.221,2.456-0.288,3.694-0.208l2.452-3.929l5.751,2.136l-0.537,4.476
				c1.018,0.707,1.942,1.533,2.759,2.469l4.514-1.046l2.555,5.58l-3.547,2.786c0.222,1.22,0.29,2.458,0.207,3.696l3.932,2.449
				l-2.138,5.754l-4.477-0.538c-0.816,1.176-1.791,2.223-2.906,3.124l0.873,4.428l-5.58,2.557l-2.737-3.737
				c-1.229,0.173-2.465,0.196-3.7,0.066L23.696,62.055z M20.663,58.321l2.079,0.771l2.296-3.42l0.771,0.121
				c1.465,0.232,2.949,0.203,4.406-0.081l0.763-0.149l2.461,3.365l2.018-0.924l-0.799-4.046l0.634-0.458
				c1.336-0.973,2.454-2.175,3.322-3.576l0.409-0.663l4.092,0.492l0.772-2.077L40.35,45.47l0.093-0.771
				c0.178-1.473,0.094-2.955-0.247-4.402l-0.178-0.759l3.241-2.546l-0.922-2.014l-4.061,0.941l-0.479-0.611
				c-0.922-1.17-2.028-2.158-3.289-2.939l-0.662-0.411l0.491-4.09l-2.077-0.772l-2.206,3.536l-0.771-0.093
				c-1.473-0.174-2.954-0.091-4.404,0.249l-0.76,0.178l-2.544-3.241l-2.015,0.924l0.941,4.059l-0.61,0.479
				c-1.039,0.817-1.938,1.789-2.68,2.885l-0.433,0.645l-4.117-0.637l-0.774,2.076l3.421,2.299l-0.121,0.771
				c-0.23,1.462-0.203,2.946,0.081,4.407l0.147,0.763l-3.362,2.461l0.924,2.015l4.047-0.795l0.458,0.632
				c0.874,1.202,1.941,2.23,3.172,3.058l0.645,0.435L20.663,58.321z"/>
		</g>
		<g>
			<g>
				<path fill="#00B2E6" d="M31.11,34.435c4.778,1.775,7.214,7.088,5.439,11.869c-1.775,4.779-7.089,7.214-11.868,5.439
					c-4.781-1.775-7.216-7.088-5.438-11.867C21.016,35.095,26.329,32.659,31.11,34.435z"/>
			</g>
			<g>
				<g>
					<polygon fill="#231F20" points="24.277,47.045 19.757,43.135 24.231,38.849 25.921,40.615 23.387,43.043 25.876,45.197 					
						"/>
				</g>
				<g>
					<polygon fill="#231F20" points="31.424,47.045 29.824,45.197 32.314,43.043 29.779,40.615 31.468,38.849 35.941,43.135 					
						"/>
				</g>
				<g>
					
						<rect x="26.307" y="37.983" transform="matrix(0.971 0.2391 -0.2391 0.971 11.0598 -5.3363)" fill="#231F20" width="2.443" height="9.886"/>
				</g>
			</g>
		</g>
	</g>
</g>
</svg>
