<?xml version="1.0" encoding="utf-8"?>
<!-- Generator: Adobe Illustrator 16.0.4, SVG Export Plug-In . SVG Version: 6.00 Build 0)  -->
<!DOCTYPE svg PUBLIC "-//W3C//DTD SVG 1.1//EN" "http://www.w3.org/Graphics/SVG/1.1/DTD/svg11.dtd">
<svg version="1.1" id="レイヤー_1" xmlns="http://www.w3.org/2000/svg" xmlns:xlink="http://www.w3.org/1999/xlink" x="0px"
	 y="0px" width="100px" height="100px" viewBox="0 0 100 100" enable-background="new 0 0 100 100" xml:space="preserve">
<g>
	<g>
		<polygon fill="#D8992B" points="69.359,56.208 100,38.432 69.359,20.8 38.865,38.721 		"/>
		<polygon fill="#FFC042" points="41.322,56.208 71.672,38.577 41.322,20.8 10.539,38.577 		"/>
	</g>
	<polygon fill="#FFC042" points="85.691,82.223 55.341,100 24.991,82.223 24.991,46.814 55.341,29.038 85.691,46.814 	"/>
	<polyline fill="#D8992B" points="55.341,29.038 85.691,46.814 85.691,82.223 55.341,100 	"/>
	<g>
		<polygon fill="#FFC042" points="69.505,72.54 100,55.052 69.359,37.276 38.721,55.052 		"/>
		<polygon fill="#D8992B" points="41.322,72.828 71.818,54.908 41.322,37.276 10.539,55.052 		"/>
	</g>
	<polygon fill="#895D10" points="55.484,64.592 85.691,46.814 55.484,29.038 24.702,46.814 	"/>
	<polyline fill="#754F0D" points="55.484,64.592 85.691,46.814 55.484,29.038 	"/>
	<polygon fill="#5B3E0B" points="55.484,64.592 61.988,60.689 55.484,56.932 48.982,60.689 	"/>
</g>
<path fill="#00B2E6" d="M62.25,13.639c0,7.533-13.936,13.639-31.125,13.639c-4.265,0-8.329-0.375-12.029-1.057
	c-0.967-0.178-0.462,5.938-1.376,5.719c-1.296-0.309-3.984-6.97-5.161-7.354C4.937,22.101,0,18.123,0,13.639
	C0,6.106,13.935,0,31.125,0C48.314,0,62.25,6.106,62.25,13.639z"/>
<g>
	<path fill="#FFFFFF" d="M17.548,17.791l1.319-1.586c0.738,0.628,1.68,1.068,2.528,1.068c0.958,0,1.429-0.377,1.429-0.989
		c0-0.644-0.581-0.848-1.476-1.225l-1.334-0.565c-1.052-0.424-2.057-1.303-2.057-2.794c0-1.696,1.507-3.046,3.643-3.046
		c1.178,0,2.418,0.471,3.297,1.351l-1.178,1.46c-0.675-0.518-1.303-0.816-2.12-0.816c-0.801,0-1.303,0.346-1.303,0.926
		c0,0.628,0.675,0.848,1.554,1.209l1.319,0.534c1.241,0.502,2.026,1.334,2.026,2.779c0,1.696-1.413,3.172-3.863,3.172
		C19.998,19.267,18.585,18.764,17.548,17.791z"/>
	<path fill="#FFFFFF" d="M26.942,8.841h6.406v1.947H29.25v2.057h3.486v1.931H29.25v2.355h4.255v1.947h-6.563V8.841z"/>
	<path fill="#FFFFFF" d="M37.544,10.788h-2.811V8.841h7.945v1.947h-2.811v8.29h-2.324L37.544,10.788L37.544,10.788z"/>
</g>
</svg>
