<?xml version="1.0" encoding="utf-8"?>
<!-- Generator: Adobe Illustrator 16.0.4, SVG Export Plug-In . SVG Version: 6.00 Build 0)  -->
<!DOCTYPE svg PUBLIC "-//W3C//DTD SVG 1.1//EN" "http://www.w3.org/Graphics/SVG/1.1/DTD/svg11.dtd">
<svg version="1.1" id="レイヤー_1" xmlns="http://www.w3.org/2000/svg" xmlns:xlink="http://www.w3.org/1999/xlink" x="0px"
	 y="0px" width="75.333px" height="79.333px" viewBox="5.333 10.833 75.333 79.333"
	 enable-background="new 5.333 10.833 75.333 79.333" xml:space="preserve">
<g display="none">
	<g display="inline">
		<g>
			<defs>
				<circle id="SVGID_1_" cx="50" cy="50.001" r="50"/>
			</defs>
			<clipPath id="SVGID_2_">
				<use xlink:href="#SVGID_1_"  overflow="visible"/>
			</clipPath>
			<circle clip-path="url(#SVGID_2_)" fill="#00B2E6" cx="50" cy="50.001" r="50"/>
		</g>
	</g>
</g>
<line fill="none" x1="128.98" y1="45.197" x2="128.98" y2="45.197"/>
<g id="Layer_x0020_1">
	<g id="_331675568">
		<g>
			<path fill="#58515E" d="M17.833,25.875c5.916,0,10.711,4.795,10.711,10.709c0,5.916-4.795,10.711-10.711,10.711
				c-5.913,0-10.709-4.795-10.709-10.711C7.124,30.671,11.92,25.875,17.833,25.875z M17.833,27.37c5.09,0,9.216,4.125,9.216,9.214
				c0,5.09-4.126,9.217-9.216,9.217s-9.214-4.127-9.214-9.217C8.619,31.496,12.743,27.37,17.833,27.37z"/>
			<path fill="#58515E" d="M55.191,25.875c5.916,0,10.709,4.795,10.709,10.709c0,5.916-4.793,10.711-10.709,10.711
				c-5.916,0-10.709-4.795-10.709-10.711C44.482,30.671,49.276,25.875,55.191,25.875z M55.191,27.37c5.09,0,9.217,4.125,9.217,9.214
				c0,5.09-4.127,9.217-9.217,9.217c-5.091,0-9.216-4.127-9.216-9.217C45.975,31.496,50.1,27.37,55.191,27.37z"/>
			<circle fill="#EAEAED" cx="17.833" cy="36.587" r="9.231"/>
			<circle fill="#EAEAED" cx="55.191" cy="36.584" r="9.232"/>
			<path fill="#D3D3D3" d="M26.036,18.555l-6.692,15.843l-1.159-0.672l6.132-14.917l1.472-3.332
				c2.192,1.066,6.425,3.626,10.068,8.796h7.451l3.649-7.199l1.859-0.152l-8.008,17.47l-0.024-0.018l-0.008-0.005l-0.018-0.012
				l-0.024-0.015l-0.05-0.032l-0.002-0.003l-0.025-0.015l-0.026-0.015l-0.025-0.017l-0.027-0.016l-0.026-0.014l-0.025-0.016
				l-0.002-0.002L40.5,34.2l-0.027-0.015l-0.028-0.013l-0.013-0.006l-0.015-0.008l-0.026-0.015l-0.027-0.013l0,0l-0.027-0.012
				l-0.03-0.015l-0.055-0.025l-0.029-0.012l-0.027-0.01v-0.002l-0.027-0.009l-0.024-0.011l-0.006-0.002l-0.029-0.01l-0.026-0.013
				l-0.016-0.005L40.05,34l-0.029-0.011l-0.004-0.002l-0.052-0.018l-0.03-0.009l-0.022-0.008l-0.008-0.002l-0.029-0.008l-0.03-0.01
				l-0.01-0.002l-0.02-0.005l-0.033-0.009l-0.027-0.008h-0.002L39.724,33.9l-0.03-0.007l-0.018-0.003l-0.014-0.004l-0.03-0.007
				l-0.03-0.005h-0.005l-0.026-0.007l-0.03-0.005l-0.025-0.004h-0.006l-0.033-0.005l-0.03-0.005l-0.01-0.002l-0.021-0.002
				l-0.062-0.011l0,0l-0.033-0.002l-0.032-0.005L39.27,33.82h-0.015l-0.06-0.004h-0.002l-0.008-0.002H39.16l-0.03-0.003
				l-0.027-0.002l-0.072-0.002h-0.013l-0.084-0.002l-0.054,0.002h-0.028h-0.002h-0.005l-0.082,0.002l-0.02,0.002h-0.024
				l-0.027,0.003H38.68l-0.017,0.002l-0.027,0.002l-0.028,0.002h-0.012l-0.013,0.003l-0.027,0.002l-0.027,0.003l-0.015,0.002
				l-0.01,0.002l-0.027,0.003l-0.027,0.005l-0.02,0.002h-0.005l-0.027,0.004l-0.024,0.005l-0.025,0.003l-0.002,0.002l-0.025,0.002
				l-0.026,0.005l-0.024,0.007l0,0l-0.025,0.005l-0.027,0.004l-0.024,0.005l-0.006,0.002h-0.002l-0.042,0.01l-0.027,0.007h-0.008
				l-0.018,0.004l-0.049,0.015l-0.011,0.003l-0.015,0.004l-0.047,0.013l-0.003,0.003l-0.014,0.002l-0.011,0.005l-0.024,0.007
				l-0.025,0.008l-0.017,0.004l-0.008,0.005l-0.024,0.007l-0.025,0.007l-0.017,0.008l-0.007,0.003l-0.023,0.01l-0.024,0.007
				l-0.048,0.02l-0.024,0.009l-0.022,0.01h-0.003l-0.022,0.011l-0.021,0.009l-0.024,0.009l-0.006,0.003l-0.017,0.009l-0.024,0.011
				l-0.023,0.01l-0.007,0.004l-0.015,0.009l-0.047,0.022l-0.011,0.005l-0.013,0.006l-0.022,0.013l-0.021,0.009l-0.023,0.013
				L37.33,34.22C36.354,28.217,31.543,21.92,26.036,18.555z M41.976,35.831h11.977v1.51H42.222v-0.005v-0.003v-0.004v-0.002v-0.005
				v-0.003v-0.004V37.31l0.003-0.005v-0.002v-0.004v-0.003v-0.004v-0.003v-0.004V37.28v-0.004v-0.003v-0.002v-0.003v-0.002v-0.004
				l0.002-0.003v-0.004v-0.003v-0.004V37.23v-0.002v-0.005v-0.002v-0.005v-0.002v-0.005v-0.002v-0.005l0.002-0.002v-0.005v-0.002
				v-0.005l0,0v-0.002v-0.005v-0.002v-0.005v-0.002v-0.005v-0.002v-0.005v-0.002v-0.013V37.14v-0.005v-0.002V37.12v-0.003v-0.004
				v-0.003v-0.004v-0.003V37.08v-0.019v-0.023v-0.019v-0.002l-0.002-0.021v-0.019v-0.022l-0.002-0.02v-0.002l-0.003-0.06
				l-0.003-0.023v-0.002V36.83l-0.002-0.021l-0.005-0.04v-0.002v-0.002V36.76l-0.011-0.08v-0.015l-0.002-0.02l-0.006-0.019
				l-0.002-0.023v-0.004l-0.002-0.015l-0.003-0.02l-0.004-0.02l-0.003-0.02l-0.003-0.006l-0.002-0.013l-0.011-0.062l-0.002-0.004
				l-0.003-0.016l-0.005-0.017l-0.003-0.022l-0.004-0.021l-0.002-0.007l-0.004-0.009l-0.004-0.02l-0.005-0.02l-0.006-0.021
				l-0.002-0.009l-0.003-0.01l-0.004-0.02l-0.01-0.039l-0.003-0.011l-0.003-0.007l-0.013-0.039l-0.005-0.02l-0.004-0.009
				l-0.004-0.009l-0.004-0.019l-0.008-0.02l-0.005-0.018l-0.005-0.012l-0.003-0.007l-0.005-0.02L42.041,36l-0.007-0.02l-0.006-0.013
				l-0.002-0.005l-0.004-0.019l-0.016-0.037l-0.005-0.013l-0.003-0.005L41.976,35.831z M36.852,25.774
				c1.029,1.656,1.985,3.544,2.806,5.695l2.889-5.695H36.852z"/>
			<path fill="#58515E" d="M48.237,35.43h5.796c0.639,0,1.158,0.52,1.158,1.155l0,0c0,0.637-0.52,1.157-1.158,1.157h-5.796
				c-0.637,0-1.158-0.521-1.158-1.157l0,0C47.079,35.949,47.6,35.43,48.237,35.43z"/>
			<path fill="#58515E" d="M21.578,30.3l-2.431,5.792c-0.245,0.587-0.934,0.86-1.52,0.609l0,0c-0.585-0.25-0.854-0.935-0.607-1.52
				l2.431-5.794c0.245-0.587,0.935-0.858,1.52-0.607l0,0C21.556,29.031,21.823,29.712,21.578,30.3z"/>
			<path fill="#58515E" d="M45.424,14.904c2.488,0.587,4.148,0.027,5.873,0.434c1.725,0.406,1.244,2.758-0.422,2.738
				c-1.664-0.02-4.49-1.296-6.422-1.678C43.543,16.22,42.938,14.314,45.424,14.904z"/>
			<path fill="#58515E" d="M38.933,33.804c1.822,0,3.296,1.477,3.296,3.297c0,1.82-1.474,3.296-3.296,3.296
				c-1.821,0-3.295-1.476-3.295-3.296C35.638,35.281,37.112,33.804,38.933,33.804z M38.933,34.768c1.289,0,2.335,1.046,2.335,2.334
				c0,1.289-1.046,2.332-2.335,2.332c-1.288,0-2.334-1.043-2.334-2.332C36.599,35.813,37.645,34.768,38.933,34.768z"/>
			<path fill="#58515E" d="M38.933,36.958L38.933,36.958c0.253,0,0.461,0.208,0.461,0.461v5.166c0,0.251-0.208,0.46-0.461,0.46l0,0
				c-0.253,0-0.46-0.208-0.46-0.46v-5.166C38.473,37.166,38.68,36.958,38.933,36.958z"/>
			<path fill="#58515E" d="M37.555,42.451h2.756c0.328,0,0.596,0.267,0.596,0.594l0,0c0,0.328-0.268,0.593-0.596,0.593h-2.756
				c-0.327,0-0.595-0.265-0.595-0.593l0,0C36.96,42.717,37.228,42.451,37.555,42.451z"/>
			<circle fill="#FAD55C" cx="38.933" cy="43.046" r="0.424"/>
			<path fill="#58515E" d="M26.378,16.347h-4.733H21.58l-0.107,0.005c-0.853,0-0.949,1.221-0.223,1.789h1.379h3.496
				c0.974,0.107,0.742,1.477,0,1.4h-1.112h-4.141l-0.161-0.087c-0.005-0.002-1.822-1.055-1.237-2.907
				c0.496-1.571,1.74-1.628,2.171-1.598v-0.003h4.733C27.699,15.204,27.097,16.344,26.378,16.347z"/>
		</g>
	</g>
</g>
<g>
	<path fill="#E0DDC7" d="M52.982,81.582c5.789-2.567,11.338-7.268,15.628-11.556c8.36-8.361,10.971-19.537,8.103-22.404
		c-2.87-2.869-14.046-0.259-22.406,8.101c-4.361,4.362-9.009,9.881-11.555,15.627L52.982,81.582z"/>
	<path fill="#FBCC34" d="M43.888,74.85c0,0-8.273-2.342-6.873,12.5c14.842,1.399,12.469-6.903,12.469-6.903L43.888,74.85z"/>
	<path fill="#EE9621" d="M44.926,75.89c0,0-5.209-1.476-4.328,7.872c9.347,0.881,7.853-4.349,7.853-4.349L44.926,75.89z"/>
	<path fill="#7B7C7F" d="M49.484,80.446l-5.596-5.597c-0.344-0.344-0.354-0.892-0.021-1.224l0.662-0.632l6.839,6.842l-0.661,0.63
		C50.375,80.799,49.828,80.79,49.484,80.446z"/>
	<ellipse fill="#443F35" cx="64.573" cy="59.759" rx="4.637" ry="4.637"/>
	<path fill="#7CB0A9" d="M64.574,65.386c-1.442,0-2.883-0.549-3.981-1.646c-2.194-2.194-2.194-5.767,0-7.961
		c2.195-2.194,5.767-2.194,7.962,0c2.194,2.194,2.194,5.767,0,7.961l0,0C67.457,64.837,66.016,65.386,64.574,65.386z M64.574,56.116
		c-0.935,0-1.867,0.355-2.578,1.066c-1.42,1.421-1.42,3.732,0,5.154c1.423,1.42,3.734,1.421,5.155,0
		c1.422-1.422,1.422-3.733,0-5.154C66.44,56.472,65.508,56.116,64.574,56.116z"/>
	<path fill="#7CB0A9" d="M71.175,53.158c1.727,1.726,3.542,3.228,5.392,4.506c1.646-4.59,1.682-8.507,0.146-10.042
		c-1.538-1.536-5.453-1.5-10.043,0.146C67.947,49.615,69.45,51.433,71.175,53.158z"/>
	<polygon fill="#7CB0A9" points="43.982,72.604 51.729,80.353 53.883,79.611 44.753,70.48 	"/>
	<path fill="#C26558" d="M57.9,66.728c0.108-0.159-0.169-0.437-0.327-0.328l-5.554,3.777c-0.299,0.203-0.577,0.433-0.831,0.688
		l-4.774,3.946c-0.321,0.321-0.604,0.68-0.845,1.074l-1.553,3.638c-0.245,0.4,0.423,1.065,0.821,0.817l3.633-1.585
		c0.379-0.235,0.725-0.509,1.036-0.819l3.95-4.777c0.262-0.264,0.498-0.552,0.706-0.862L57.9,66.728z"/>
	<path fill="#C26558" d="M72.587,51.746c1.48,1.479,3.036,2.768,4.62,3.86c0.975-3.677,0.806-6.686-0.494-7.984
		c-1.301-1.3-4.31-1.472-7.984-0.496C69.819,48.71,71.109,50.267,72.587,51.746z"/>
	<path fill="#C26558" d="M51.396,60.443l-7.413,12.16l-7.735-0.604c-0.553-0.062-0.954-0.789-0.633-1.146l9.138-10.102
		c0.512-0.567,1.252-0.881,2.106-0.893l4.13-0.061C51.316,59.795,51.557,60.176,51.396,60.443z"/>
	<path fill="#C26558" d="M63.892,72.938l-12.162,7.414l0.604,7.734c0.064,0.553,0.79,0.954,1.146,0.632l10.104-9.137
		c0.567-0.513,0.88-1.253,0.893-2.107l0.06-4.129C64.538,73.017,64.157,72.775,63.892,72.938z"/>
	<path opacity="0.2" fill="#231F20" enable-background="new    " d="M63.892,72.938l-12.162,7.414l0.604,7.734
		c0.064,0.553,0.79,0.954,1.146,0.632l10.104-9.137c0.567-0.513,0.88-1.253,0.893-2.107l0.06-4.129
		C64.538,73.017,64.157,72.775,63.892,72.938z"/>
	<path opacity="0.2" fill="#231F20" enable-background="new    " d="M54.163,72.296l3.737-5.568
		c0.052-0.074,0.018-0.172-0.049-0.245L44.174,80.159c0.187,0.194,0.46,0.307,0.664,0.181l3.633-1.585
		c0.379-0.235,0.725-0.509,1.036-0.819l3.95-4.777C53.719,72.895,53.955,72.606,54.163,72.296z"/>
</g>
</svg>
