<svg id="レイヤー_1" data-name="レイヤー 1" xmlns="http://www.w3.org/2000/svg" viewBox="0 0 180 180"><defs><style>.cls-1{fill:#eaeae4;}.cls-2{fill:#515556;}.cls-3{fill:#62d2dd;}.cls-4{fill:#979b9b;}.cls-5{fill:#a5a48b;}.cls-6{fill:#e08644;}</style></defs><title>company</title><rect class="cls-1" x="35.63" y="37.73" width="95.13" height="137.47"/><path class="cls-2" d="M130.77,175.2v-1H36.67V38.77h93.05V175.18h2.09V37.73a1.05,1.05,0,0,0-.3-.75,1,1,0,0,0-.74-.31H35.63a1.06,1.06,0,0,0-1.05,1V175.2a1,1,0,0,0,1.06,1h95.13a1,1,0,0,0,1-1h-1Z"/><polygon class="cls-1" points="144.36 175.2 130.76 175.2 130.76 37.73 144.36 54.04 144.36 175.2"/><path class="cls-2" d="M144.36,175.2v-1H131.81V40.62l11.5,13.79V175.2h2.09V54a1.08,1.08,0,0,0-.24-.67L131.57,37.06a1.06,1.06,0,0,0-1.17-.31,1,1,0,0,0-.68,1V175.2a1,1,0,0,0,1.05,1h13.59a1,1,0,0,0,1.06-1Z"/><rect class="cls-3" x="42.95" y="46.1" width="16.83" height="11.62"/><path class="cls-2" d="M59.78,57.71v-.52H43.47V46.61H59.26V57.74h1.08V46.1a.5.5,0,0,0-.15-.37.49.49,0,0,0-.37-.16H43a.52.52,0,0,0-.52.53V57.71a.52.52,0,0,0,.52.53H59.78a.52.52,0,0,0,.37-.16.5.5,0,0,0,.15-.37Z"/><rect class="cls-3" x="42.95" y="63.53" width="16.83" height="11.62"/><path class="cls-2" d="M59.78,75.17v-.52H43.47V64.05H59.26V75.17h1.08V63.53a.5.5,0,0,0-.49-.52H43a.5.5,0,0,0-.37.14.54.54,0,0,0-.15.38V75.17a.51.51,0,0,0,.52.52H59.78a.5.5,0,0,0,.52-.49v0Z"/><rect class="cls-3" x="42.95" y="80.96" width="16.83" height="11.62"/><path class="cls-2" d="M59.78,92.58v-.52H43.47V81.48H59.26V92.6h1.08V81a.51.51,0,0,0-.52-.52H43a.52.52,0,0,0-.52.52V92.58a.53.53,0,0,0,.52.53H59.78a.51.51,0,0,0,.37-.16.51.51,0,0,0,.15-.37Z"/><rect class="cls-3" x="42.95" y="98.39" width="16.83" height="11.62"/><path class="cls-2" d="M59.78,110v-.53H43.47V98.9H59.26V110h1.08V98.39a.5.5,0,0,0-.49-.52H43a.51.51,0,0,0-.52.52V110a.52.52,0,0,0,.52.52H59.78a.51.51,0,0,0,.52-.52Z"/><rect class="cls-3" x="42.95" y="115.83" width="16.83" height="11.62"/><path class="cls-2" d="M59.78,127.45v-.52H43.47V116.35H59.26v11.12h1.08V115.83a.51.51,0,0,0-.15-.37.57.57,0,0,0-.37-.16H43a.53.53,0,0,0-.52.53v11.62A.52.52,0,0,0,43,128H59.78a.5.5,0,0,0,.37-.15.51.51,0,0,0,.15-.37Z"/><rect class="cls-3" x="42.95" y="133.26" width="16.83" height="11.62"/><path class="cls-2" d="M59.78,144.86v-.52H43.47V133.79H59.26v11.12h1.08V133.26a.51.51,0,0,0-.15-.36.52.52,0,0,0-.37-.16H43a.49.49,0,0,0-.37.16.48.48,0,0,0-.15.36v11.6a.53.53,0,0,0,.52.53H59.78a.52.52,0,0,0,.37-.16.51.51,0,0,0,.15-.37Z"/><rect class="cls-3" x="64" y="46.1" width="16.83" height="11.62"/><path class="cls-2" d="M80.83,57.71v-.52H64.52V46.61H80.3V57.74h1V46.1a.5.5,0,0,0-.15-.37.49.49,0,0,0-.37-.16H64a.54.54,0,0,0-.53.53V57.71a.54.54,0,0,0,.53.53H80.83a.52.52,0,0,0,.37-.16.5.5,0,0,0,.15-.37Z"/><rect class="cls-3" x="64" y="63.53" width="16.83" height="11.62"/><path class="cls-2" d="M80.83,75.17v-.52H64.52V64.05H80.3V75.17h1V63.53a.5.5,0,0,0-.49-.52H64a.5.5,0,0,0-.37.14.59.59,0,0,0-.16.38V75.17a.57.57,0,0,0,.16.37.51.51,0,0,0,.37.15H80.83a.5.5,0,0,0,.52-.49v0Z"/><rect class="cls-3" x="64" y="80.96" width="16.83" height="11.62"/><path class="cls-2" d="M80.83,92.58v-.52H64.52V81.48H80.3V92.6h1V81a.51.51,0,0,0-.52-.52H64a.53.53,0,0,0-.53.52V92.58a.55.55,0,0,0,.53.53H80.83A.52.52,0,0,0,81.2,93a.51.51,0,0,0,.15-.37Z"/><rect class="cls-3" x="64" y="98.39" width="16.83" height="11.62"/><path class="cls-2" d="M80.83,110v-.53H64.52V98.9H80.3V110h1V98.39a.5.5,0,0,0-.49-.52H64a.51.51,0,0,0-.37.15.57.57,0,0,0-.16.37V110a.53.53,0,0,0,.53.52H80.83a.51.51,0,0,0,.52-.52Z"/><rect class="cls-3" x="64" y="115.83" width="16.83" height="11.62"/><path class="cls-2" d="M80.83,127.45v-.52H64.52V116.35H80.3v11.12h1V115.83a.51.51,0,0,0-.15-.37.57.57,0,0,0-.37-.16H64a.55.55,0,0,0-.53.53v11.62A.53.53,0,0,0,64,128H80.83a.51.51,0,0,0,.52-.52Z"/><rect class="cls-3" x="64" y="133.26" width="16.83" height="11.62"/><path class="cls-2" d="M80.83,144.86v-.52H64.52V133.79H80.3v11.12h1V133.26a.51.51,0,0,0-.15-.36.52.52,0,0,0-.37-.16H64a.49.49,0,0,0-.37.16.52.52,0,0,0-.16.36v11.6a.55.55,0,0,0,.53.53H80.83a.52.52,0,0,0,.37-.16.51.51,0,0,0,.15-.37Z"/><rect class="cls-3" x="85.05" y="46.1" width="16.83" height="11.62"/><path class="cls-2" d="M101.85,57.71v-.52H85.54V46.61h15.79V57.74h1V46.1a.49.49,0,0,0-.14-.37.51.51,0,0,0-.38-.16H85a.53.53,0,0,0-.53.53V57.71a.53.53,0,0,0,.53.53h16.82a.55.55,0,0,0,.38-.16.49.49,0,0,0,.14-.37Z"/><rect class="cls-3" x="85.05" y="63.53" width="16.83" height="11.62"/><path class="cls-2" d="M101.85,75.17v-.52H85.54V64.05h15.79V75.17h1V63.53a.5.5,0,0,0-.49-.52H85a.53.53,0,0,0-.38.14.58.58,0,0,0-.15.38V75.17a.56.56,0,0,0,.15.37.54.54,0,0,0,.38.15h16.82a.5.5,0,0,0,.52-.49v0Z"/><rect class="cls-3" x="85.05" y="80.96" width="16.83" height="11.62"/><path class="cls-2" d="M101.85,92.58v-.52H85.54V81.48h15.79V92.6h1V81a.5.5,0,0,0-.14-.37.54.54,0,0,0-.38-.15H85a.52.52,0,0,0-.53.52V92.58a.54.54,0,0,0,.53.53h16.82a.55.55,0,0,0,.38-.16.5.5,0,0,0,.14-.37Z"/><rect class="cls-3" x="85.05" y="98.39" width="16.83" height="11.62"/><path class="cls-2" d="M101.85,110v-.53H85.54V98.9h15.79V110h1V98.39a.5.5,0,0,0-.49-.52H85a.54.54,0,0,0-.38.15.56.56,0,0,0-.15.37V110a.52.52,0,0,0,.53.52h16.82a.54.54,0,0,0,.38-.15.5.5,0,0,0,.14-.37Z"/><rect class="cls-3" x="85.05" y="115.83" width="16.83" height="11.62"/><path class="cls-2" d="M101.85,127.45v-.52H85.54V116.35h15.79v11.12h1V115.83a.5.5,0,0,0-.14-.37.59.59,0,0,0-.38-.16H85a.54.54,0,0,0-.53.53v11.62A.52.52,0,0,0,85,128h16.82a.54.54,0,0,0,.38-.15.5.5,0,0,0,.14-.37Z"/><rect class="cls-3" x="85.05" y="133.26" width="16.83" height="11.62"/><path class="cls-2" d="M101.85,144.86v-.52H85.54V133.79h15.79v11.12h1V133.26a.51.51,0,0,0-.14-.36.55.55,0,0,0-.38-.16H85a.51.51,0,0,0-.38.16.51.51,0,0,0-.15.36v11.6a.54.54,0,0,0,.53.53h16.82a.55.55,0,0,0,.38-.16.5.5,0,0,0,.14-.37Z"/><rect class="cls-3" x="106.1" y="46.1" width="16.83" height="11.62"/><path class="cls-2" d="M122.92,57.71v-.52H106.61V46.61H122.4V57.74h1V46.1a.49.49,0,0,0-.14-.37.51.51,0,0,0-.38-.16H106.1a.53.53,0,0,0-.53.53V57.71a.53.53,0,0,0,.53.53h16.82a.55.55,0,0,0,.38-.16.49.49,0,0,0,.14-.37Z"/><rect class="cls-3" x="106.1" y="63.53" width="16.83" height="11.62"/><path class="cls-2" d="M122.92,75.17v-.52H106.61V64.05H122.4V75.17h1V63.53A.5.5,0,0,0,123,63H106.1a.53.53,0,0,0-.38.14.58.58,0,0,0-.15.38V75.17a.56.56,0,0,0,.15.37.54.54,0,0,0,.38.15h16.82a.5.5,0,0,0,.52-.49v0Z"/><rect class="cls-3" x="106.1" y="80.96" width="16.83" height="11.62"/><path class="cls-2" d="M122.92,92.58v-.52H106.61V81.48H122.4V92.6h1V81a.5.5,0,0,0-.14-.37.54.54,0,0,0-.38-.15H106.1a.52.52,0,0,0-.53.52V92.58a.54.54,0,0,0,.53.53h16.82a.55.55,0,0,0,.38-.16.5.5,0,0,0,.14-.37Z"/><rect class="cls-3" x="106.1" y="98.39" width="16.83" height="11.62"/><path class="cls-2" d="M122.92,110v-.53H106.61V98.9H122.4V110h1V98.39a.5.5,0,0,0-.49-.52H106.1a.54.54,0,0,0-.38.15.56.56,0,0,0-.15.37V110a.52.52,0,0,0,.53.52h16.82a.54.54,0,0,0,.38-.15.5.5,0,0,0,.14-.37Z"/><rect class="cls-3" x="106.1" y="115.83" width="16.83" height="11.62"/><path class="cls-2" d="M122.92,127.45v-.52H106.61V116.35H122.4v11.12h1V115.83a.5.5,0,0,0-.14-.37.59.59,0,0,0-.38-.16H106.1a.54.54,0,0,0-.53.53v11.62a.52.52,0,0,0,.53.52h16.82a.54.54,0,0,0,.38-.15.5.5,0,0,0,.14-.37Z"/><rect class="cls-3" x="106.1" y="133.26" width="16.83" height="11.62"/><path class="cls-2" d="M122.92,144.86v-.52H106.61V133.79H122.4v11.12h1V133.26a.51.51,0,0,0-.14-.36.55.55,0,0,0-.38-.16H106.1a.51.51,0,0,0-.38.16.51.51,0,0,0-.15.36v11.6a.54.54,0,0,0,.53.53h16.82a.55.55,0,0,0,.38-.16.5.5,0,0,0,.14-.37Z"/><rect class="cls-4" x="63.33" y="151.68" width="17.47" height="22.48"/><path class="cls-2" d="M80.81,174.15v-.52h-17V152.2H80.29v22h1V151.68a.51.51,0,0,0-.15-.37.48.48,0,0,0-.37-.15H63.3a.51.51,0,0,0-.52.52v22.47a.54.54,0,0,0,.15.37.52.52,0,0,0,.37.16H80.78a.49.49,0,0,0,.37-.16.5.5,0,0,0,.15-.37Z"/><rect class="cls-4" x="83.5" y="151.68" width="17.47" height="22.48"/><path class="cls-2" d="M101,174.15v-.52H84V152.2h16.43v22h1V151.68a.52.52,0,0,0-.52-.52H83.5a.53.53,0,0,0-.53.52v22.47a.54.54,0,0,0,.53.53H101a.53.53,0,0,0,.52-.53Z"/><rect class="cls-5" x="81.63" y="4.28" width="5.23" height="33.45"/><path class="cls-2" d="M86.86,37.73v-.52H82.15V4.8h4.18V37.73h1V4.28a.58.58,0,0,0-.15-.38.52.52,0,0,0-.37-.14H81.67a.5.5,0,0,0-.37.14.55.55,0,0,0-.16.38V37.73a.53.53,0,0,0,.53.52h5.19a.51.51,0,0,0,.37-.15.58.58,0,0,0,.15-.37Z"/><polygon class="cls-6" points="125.02 27.8 86.86 27.8 86.86 6.89 125.02 6.89 119.26 17.86 125.02 27.8"/><path class="cls-2" d="M125,27.8v-.53H87.38V7.41h36.77L118.8,17.63a.55.55,0,0,0,0,.5l5.76,9.93.45-.26h0l.45-.26-5.6-9.68,5.61-10.73a.52.52,0,0,0,0-.51.53.53,0,0,0-.45-.25H86.86a.52.52,0,0,0-.53.52V27.8a.52.52,0,0,0,.16.37.5.5,0,0,0,.37.15H125a.52.52,0,0,0,.5-.54.65.65,0,0,0,0-.2Z"/></svg>