<svg id="レイヤー_1" data-name="レイヤー 1" xmlns="http://www.w3.org/2000/svg" viewBox="0 0 180 180"><defs><style>.cls-1{fill:#48c0eb;}.cls-2{fill:#515556;}.cls-3{fill:#f3f3f3;}.cls-4{fill:#324a5e;}.cls-5{fill:#9ba4a5;}.cls-6{fill:#f1543f;}.cls-7{fill:#ffd05b;}.cls-8{fill:#e5e5e5;}.cls-9{fill:#f7f7f7;}.cls-10{fill:#e2e2e2;}.cls-11{fill:#f44f4e;}.cls-12{fill:#c7c6c8;}.cls-13{fill:#c63e3e;}.cls-14{fill:#b23939;}.cls-15{fill:#d3d3d3;}.cls-16{fill:#fcc447;}</style></defs><title>time</title><circle class="cls-1" cx="61.63" cy="61.35" r="48.03"/><path class="cls-2" d="M61.63,14.51A46.85,46.85,0,1,1,14.79,61.35h0A46.84,46.84,0,0,1,61.63,14.51m0-2.37a49.2,49.2,0,1,0,49.2,49.2h0A49.26,49.26,0,0,0,61.63,12.14Z"/><circle class="cls-3" cx="61.63" cy="61.35" r="39.91"/><path class="cls-2" d="M61.63,22A39.32,39.32,0,1,1,22.32,61.36h0A39.33,39.33,0,0,1,61.63,22m0-1.18a40.5,40.5,0,1,0,40.51,40.5h0A40.55,40.55,0,0,0,61.63,20.85Z"/><path class="cls-4" d="M61.62,82.22a.93.93,0,0,1-.93-.83C59.5,73,58.07,62.66,58.07,61.47a3.54,3.54,0,0,1,7.07,0c0,1.25-1.64,13-2.63,19.94A.92.92,0,0,1,61.62,82.22Z"/><path class="cls-2" d="M61.61,58.54a2.93,2.93,0,0,1,3,2.91v0c0,1.27-1.83,14.37-2.62,19.86a.35.35,0,0,1-.44.21.35.35,0,0,1-.22-.21c-.78-5.49-2.62-18.57-2.62-19.86a2.93,2.93,0,0,1,2.93-2.93h0m0-1.19a4.12,4.12,0,0,0-4.11,4.12c0,1,.88,7.72,2.62,20a1.53,1.53,0,0,0,3,0c1-6.89,2.63-18.69,2.63-20a4.14,4.14,0,0,0-4.12-4.15h0Z"/><path class="cls-4" d="M61.81,64.34a3.25,3.25,0,0,1-2.31-5.55c.73-.73,7.6-5.94,14.21-10.94l.3-.22a.79.79,0,0,1,.53-.18.92.92,0,0,1,.82.49.87.87,0,0,1-.07.94C72.61,52.46,65,62.52,64.14,63.41A3.26,3.26,0,0,1,61.81,64.34Z"/><path class="cls-2" d="M74.54,48a.32.32,0,0,1,.33.31.36.36,0,0,1-.06.2c-3,4-10.3,13.62-11.12,14.45a2.67,2.67,0,0,1-3.77-3.77c.82-.82,10.41-8.06,14.43-11.12l.19-.06m0-1.19a1.49,1.49,0,0,0-.89.3l-.19.14c-7,5.3-13.62,10.31-14.38,11.11a3.85,3.85,0,0,0,5.46,5.44c1-1,9.22-11.94,11.22-14.59a1.53,1.53,0,0,0-.33-2.12,1.5,1.5,0,0,0-.89-.29Z"/><path class="cls-2" d="M60.16,28.87c0-1.31.65-2.37,1.46-2.37s1.46,1.06,1.46,2.37v2.06c0,1.31-.65,2.37-1.46,2.37s-1.46-1.07-1.46-2.37Z"/><path class="cls-2" d="M60.16,91.78c0-1.31.65-2.36,1.46-2.36s1.46,1.06,1.46,2.36v2.06c0,1.32-.65,2.37-1.46,2.37s-1.46-1.07-1.46-2.37Z"/><path class="cls-2" d="M89.7,61.34c0-.81,1.06-1.46,2.37-1.46h2.06c1.31,0,2.36.65,2.36,1.46s-1.06,1.46-2.36,1.46H92.07C90.76,62.8,89.7,62.15,89.7,61.34Z"/><path class="cls-2" d="M26.75,61.34c0-.81,1.07-1.46,2.37-1.46h2.06c1.31,0,2.36.65,2.36,1.46s-1.06,1.46-2.36,1.46h-2C27.84,62.8,26.75,62.15,26.75,61.34Z"/><path class="cls-5" d="M44.08,32.57c-.33-.56-.28-1.21.12-1.43s1,.05,1.31.61l2.21,3.84A1.06,1.06,0,0,1,47.6,37c-.39.22-1-.05-1.31-.62Z"/><path class="cls-5" d="M75.54,87.09c-.33-.57-.27-1.22.11-1.44s1,0,1.32.62l2.21,3.83c.32.57.27,1.21-.12,1.44s-1-.05-1.31-.62Z"/><path class="cls-5" d="M32,45.21c-.57-.32-.85-.91-.62-1.31s.87-.44,1.44-.12L36.68,46c.57.33.85.91.62,1.31s-.88.44-1.44.12Z"/><path class="cls-5" d="M86.56,76.69c-.56-.33-.84-.92-.61-1.31s.87-.45,1.43-.12l3.83,2.21c.57.33.84.91.62,1.31s-.87.45-1.44.12Z"/><path class="cls-5" d="M32.86,78.91c-.56.33-1.21.28-1.43-.11s.05-1,.61-1.32l3.83-2.21c.57-.33,1.22-.27,1.44.11s-.05,1-.62,1.32Z"/><path class="cls-5" d="M87.36,47.43a1.05,1.05,0,0,1-1.43-.11c-.23-.39,0-1,.61-1.31l3.84-2.22a1.07,1.07,0,0,1,1.44.12c.22.39-.06,1-.62,1.31Z"/><path class="cls-5" d="M45.48,91c-.32.57-.91.84-1.31.62a1.07,1.07,0,0,1-.12-1.44l2.21-3.84c.33-.56.92-.84,1.32-.61a1,1,0,0,1,.11,1.43Z"/><path class="cls-5" d="M77,36.43c-.32.57-.91.84-1.31.62a1.07,1.07,0,0,1-.12-1.44l2.22-3.84c.32-.56.91-.84,1.31-.61s.44.87.12,1.43Z"/><path class="cls-6" d="M61.73,62.88a1.28,1.28,0,0,1-.66-.18L42.79,52.94a1.4,1.4,0,0,1,.66-2.64,1.53,1.53,0,0,1,.66.16L62.4,60.24a1.38,1.38,0,0,1,.66.82,1.44,1.44,0,0,1-1,1.77,1.41,1.41,0,0,1-.35.05Z"/><path class="cls-2" d="M43.45,50.89a.76.76,0,0,1,.39.1l18.29,9.77a.77.77,0,0,1,.33,1l0,.06a.81.81,0,0,1-.7.43.75.75,0,0,1-.38-.1L43.06,52.42a.81.81,0,0,1-.32-1.1.78.78,0,0,1,.71-.43m0-1.18a2,2,0,0,0-1.76,1,2,2,0,0,0-.16,1.51,2,2,0,0,0,1,1.2l18.27,9.76a1.84,1.84,0,0,0,.95.24,2,2,0,0,0,1.92-2.58,2,2,0,0,0-1-1.19L44.39,49.94A2,2,0,0,0,43.45,49.71Z"/><circle class="cls-7" cx="61.63" cy="61.35" r="6.15"/><path class="cls-2" d="M61.63,55.8a5.56,5.56,0,1,1-5.55,5.55,5.55,5.55,0,0,1,5.55-5.55h0m0-1.19a6.75,6.75,0,1,0,6.74,6.75h0A6.75,6.75,0,0,0,61.63,54.61Z"/><rect class="cls-8" x="69.17" y="97.6" width="97.4" height="69.26" rx="0.97" ry="0.97"/><path class="cls-2" d="M165.6,98.57v67.32H70.14V98.57H165.6m0-2H70.14a2,2,0,0,0-1.93,2v67.32a2,2,0,0,0,1.93,2H165.6a2,2,0,0,0,2-2V98.57a2,2,0,0,0-2-1.94Z"/><rect class="cls-9" x="70.14" y="86.9" width="95.45" height="75.14"/><rect class="cls-10" x="70.14" y="98.92" width="95.45" height="1.98"/><rect class="cls-11" x="69.17" y="82.77" width="97.4" height="17.15" rx="0.97" ry="0.97"/><path class="cls-2" d="M165.6,83.74V99H70.14V83.74H165.6m0-2H70.14a2,2,0,0,0-1.93,2V99a2,2,0,0,0,1.93,1.94H165.6a2,2,0,0,0,2-1.94V83.74a2,2,0,0,0-2-1.93Z"/><rect class="cls-12" x="79.33" y="111.82" width="7.49" height="7.49"/><rect class="cls-12" x="93.33" y="111.82" width="7.49" height="7.49"/><rect class="cls-12" x="107.14" y="111.82" width="7.49" height="7.49"/><rect class="cls-12" x="121.14" y="111.82" width="7.49" height="7.49"/><rect class="cls-12" x="134.92" y="111.82" width="7.49" height="7.49"/><rect class="cls-12" x="148.92" y="111.82" width="7.49" height="7.49"/><rect class="cls-12" x="79.33" y="125.78" width="7.49" height="7.49"/><rect class="cls-12" x="93.33" y="125.78" width="7.49" height="7.49"/><rect class="cls-12" x="107.14" y="125.78" width="7.49" height="7.49"/><rect class="cls-11" x="121.14" y="125.78" width="7.49" height="7.49"/><rect class="cls-12" x="134.92" y="125.78" width="7.49" height="7.49"/><rect class="cls-12" x="148.92" y="125.78" width="7.49" height="7.49"/><rect class="cls-12" x="79.33" y="139.59" width="7.49" height="7.49"/><rect class="cls-11" x="93.33" y="139.59" width="7.49" height="7.49"/><rect class="cls-12" x="107.14" y="139.59" width="7.49" height="7.49"/><rect class="cls-12" x="121.14" y="139.59" width="7.49" height="7.49"/><rect class="cls-12" x="134.92" y="139.59" width="7.49" height="7.49"/><rect class="cls-13" x="141.25" y="88.81" width="7.28" height="4.99"/><rect class="cls-10" x="141.25" y="103.37" width="7.28" height="4.99"/><rect class="cls-14" x="141.25" y="88.81" width="7.28" height="0.78"/><rect class="cls-15" x="141.25" y="103.37" width="7.28" height="0.56"/><rect class="cls-16" x="142.11" y="89.67" width="5.39" height="17.82"/><path class="cls-2" d="M147,90.15V107h-4.42V90.15H147m1-1h-6.36V108H148V89.19Z"/><rect class="cls-13" x="87.39" y="88.81" width="7.28" height="4.99"/><rect class="cls-10" x="87.39" y="103.37" width="7.28" height="4.99"/><rect class="cls-14" x="87.39" y="88.81" width="7.28" height="0.78"/><rect class="cls-15" x="87.39" y="103.37" width="7.28" height="0.56"/><rect class="cls-16" x="88.46" y="89.67" width="5.39" height="17.82"/><path class="cls-2" d="M93.36,90.15V107H88.94V90.15h4.42m1-1H88V108h6.36V89.19Z"/></svg>