<svg id="レイヤー_1" data-name="レイヤー 1" xmlns="http://www.w3.org/2000/svg" xmlns:xlink="http://www.w3.org/1999/xlink" viewBox="0 0 180 180"><defs><style>.cls-1{fill:none;}.cls-2{fill:#60605d;}.cls-3{fill:#515556;}.cls-4{fill:#62d2dd;}.cls-5{clip-path:url(#clip-path);}.cls-6{fill:#826427;}.cls-7{fill:#6d6d69;}.cls-8{fill:#f9e4d4;}.cls-9{fill:#2d88ea;}.cls-10{fill:#b6ecf2;}.cls-11{fill:#ddddd3;}.cls-12{fill:#f8ed00;}.cls-13{fill:#a39916;}</style><clipPath id="clip-path"><rect class="cls-1" x="23.54" y="63.26" width="130.45" height="77.12"/></clipPath></defs><title>video-chat</title><rect class="cls-2" x="13.28" y="52.32" width="150.98" height="102.92" rx="15.32" ry="15.32"/><path class="cls-3" d="M148.94,53.5a14.17,14.17,0,0,1,14.11,14.14v72.29a14.17,14.17,0,0,1-14.13,14.14H28.6a14.18,14.18,0,0,1-14.15-14.14V67.64A14.18,14.18,0,0,1,28.6,53.5H148.94m0-2.36H28.6a16.52,16.52,0,0,0-16.5,16.5v72.29a16.52,16.52,0,0,0,16.5,16.5H148.94a16.51,16.51,0,0,0,16.49-16.5V67.64A16.51,16.51,0,0,0,148.94,51.14Z"/><rect class="cls-4" x="22.95" y="62.67" width="131.63" height="78.29"/><path class="cls-3" d="M154,63.26v77.12H23.54V63.26H154m1.17-1.19H22.36v79.48H155.17V62.07Z"/><g class="cls-5"><path class="cls-6" d="M104.25,75.5a22.12,22.12,0,0,0-14.06-5,25,25,0,0,0-13.34,3.77c-7,3.71-12.16,10.49-14,19.43a20.08,20.08,0,0,0-.75,4.87h.09c0,.8,0,1.62,0,2.45,0,18,12.26,32.63,27.37,32.63S116.88,119,116.88,101C116.85,89.45,111.85,80.47,104.25,75.5Z"/><path class="cls-3" d="M104.25,75.5l.39-.49a22.73,22.73,0,0,0-14.45-5.17,25.51,25.51,0,0,0-13.67,3.87l.33.53-.29-.55c-7.13,3.77-12.45,10.73-14.31,19.85l.61.12-.6-.15a19.81,19.81,0,0,0-.76,5v.62h.76v-.62l-.63,0c-.05.81-.09,1.64-.09,2.49a36.52,36.52,0,0,0,8.14,23.48c5,6,12,9.79,19.82,9.79s14.79-3.77,19.83-9.79A36.52,36.52,0,0,0,117.49,101c0-11.71-5.12-20.92-12.88-26l-.35.53.39-.49-.39.49-.34.52c7.39,4.86,12.32,13.61,12.32,25a35.25,35.25,0,0,1-7.87,22.67C103.52,129.44,96.85,133,89.5,133s-14-3.55-18.87-9.34A35.31,35.31,0,0,1,62.75,101a21.4,21.4,0,0,1,.09-2.41V97.9h-.7v.63h.63a18.74,18.74,0,0,1,.75-4.7h0c1.81-8.79,6.89-15.41,13.68-19h0a24.4,24.4,0,0,1,13-3.69,21.5,21.5,0,0,1,13.67,4.9h0Z"/><path class="cls-7" d="M84.19,176.78a3.23,3.23,0,0,1-3.36-2.12c-.35-1.26,1.5-2.48,3.26-3.35L82.7,149.78a.49.49,0,0,1,.13-.35.45.45,0,0,1,.34-.15h4.91a.47.47,0,0,1,.47.47h0v22.6a3,3,0,0,1,.14.39,2.7,2.7,0,0,1-.69,2.41,4.8,4.8,0,0,1-2.51,1.44A5.24,5.24,0,0,1,84.19,176.78Z"/><path class="cls-3" d="M88.08,149.75V172.2l-.08.15a2.21,2.21,0,0,1,.21.5c.34,1.36-.94,2.85-2.86,3.32a5,5,0,0,1-1.16.14,2.78,2.78,0,0,1-2.91-1.76c-.26-1.09,1.94-2.31,3.3-3l-1.41-21.84h4.91m0-.94H83.17a.91.91,0,0,0-.93,1L83.6,171c-1.42.76-3.65,2-3.23,3.77.36,1.51,1.9,2.48,3.82,2.48a5.39,5.39,0,0,0,1.38-.18c2.46-.6,4-2.56,3.55-4.45,0-.11-.06-.22-.1-.33V149.75a.93.93,0,0,0-.93-.94Z"/><path class="cls-7" d="M96.88,176.78a5.54,5.54,0,0,1-1.28-.16c-2.16-.53-3.6-2.26-3.21-3.88,0-.13.09-.26.14-.39v-22.6a.47.47,0,0,1,.47-.47h4.91a.43.43,0,0,1,.34.15.45.45,0,0,1,.13.35L97,171.32c1.76.87,3.6,2,3.27,3.35S98.58,176.78,96.88,176.78Z"/><path class="cls-3" d="M97.89,149.75l-1.4,21.84c1.35.65,3.56,1.84,3.29,3s-1.47,1.76-2.9,1.76a4.91,4.91,0,0,1-1.16-.14c-1.92-.47-3.2-2-2.87-3.32a2,2,0,0,1,.21-.5L93,172.2V149.75h4.91m0-.94H93a.94.94,0,0,0-.94.94V172.3a1.6,1.6,0,0,0-.11.33c-.46,1.89,1.09,3.85,3.55,4.45a5.88,5.88,0,0,0,1.39.17,3.67,3.67,0,0,0,3.81-2.48c.42-1.7-1.8-3-3.23-3.76l1.37-21.21a1,1,0,0,0-.25-.71,1,1,0,0,0-.72-.28Z"/><path class="cls-8" d="M65.91,153.28a1.73,1.73,0,0,1-.64-.12,2.25,2.25,0,0,1-1.07-3h0a2.41,2.41,0,0,1,2.15-1.64,1.73,1.73,0,0,1,.64.12,1.9,1.9,0,0,1,1.18,1.23,2.65,2.65,0,0,1,0,1.78A2.4,2.4,0,0,1,65.91,153.28Z"/><path class="cls-3" d="M66.37,148.84a1.39,1.39,0,0,1,.53.1,2,2,0,0,1,.89,2.59A2.11,2.11,0,0,1,65.91,153a1.61,1.61,0,0,1-.53-.1,2,2,0,0,1-.89-2.59,2.11,2.11,0,0,1,1.86-1.44m0-.63h0a2.71,2.71,0,0,0-2.44,1.85,3,3,0,0,0-.06,2,2.24,2.24,0,0,0,1.31,1.4,2.11,2.11,0,0,0,.75.13,2.71,2.71,0,0,0,2.47-1.85,2.59,2.59,0,0,0-1.25-3.4,2.17,2.17,0,0,0-.76-.13Z"/><path class="cls-7" d="M70.43,151.62l-.24-.06L65,148.49a.5.5,0,0,1-.22-.31.42.42,0,0,1,.07-.36L82,122.13a.47.47,0,0,1,.35-.21h0a.53.53,0,0,1,.34.13l1.64,1.68a.47.47,0,0,1,.09.54L70.87,151.38a.51.51,0,0,1-.28.24Z"/><path class="cls-3" d="M82.32,122.37,84,124,70.41,151.15l-5.15-3.07,17.06-25.71m0-.94h-.09a1,1,0,0,0-.69.41L64.46,147.56a.93.93,0,0,0,.25,1.3l.05,0L69.91,152a.89.89,0,0,0,.48.13l.26,0a.92.92,0,0,0,.58-.49l13.56-27.11a.94.94,0,0,0-.17-1.08L83,121.71a1,1,0,0,0-.65-.27Z"/><path class="cls-8" d="M114.38,153.28a2.38,2.38,0,0,1-2.14-1.64,2.25,2.25,0,0,1,1.07-3h0a1.73,1.73,0,0,1,.64-.12,2.4,2.4,0,0,1,2.15,1.64,2.25,2.25,0,0,1-1.07,3h0A1.75,1.75,0,0,1,114.38,153.28Z"/><path class="cls-3" d="M114,148.84a2.13,2.13,0,0,1,1.86,1.44,2,2,0,0,1-.89,2.59,1.62,1.62,0,0,1-.54.1,2.11,2.11,0,0,1-1.85-1.44,2,2,0,0,1,.89-2.59,1.39,1.39,0,0,1,.53-.1m0-.63a2.18,2.18,0,0,0-.76.14,2.59,2.59,0,0,0-1.25,3.4,2.71,2.71,0,0,0,2.44,1.84,2.17,2.17,0,0,0,.76-.13,2.25,2.25,0,0,0,1.31-1.4,3,3,0,0,0-.06-2,2.73,2.73,0,0,0-2.44-1.85Z"/><path class="cls-7" d="M110,151.62h-.14a.53.53,0,0,1-.29-.24L96,124.27a.45.45,0,0,1,0-.45l.95-1.67a.46.46,0,0,1,.38-.23h0a.49.49,0,0,1,.39.2l17.78,25.69a.47.47,0,0,1-.11.65l0,0-5.15,3.07Z"/><path class="cls-3" d="M97.36,122.37l17.78,25.69L110,151.14,96.43,124l.95-1.68m0-.94h0a.92.92,0,0,0-.75.48l-.94,1.66a.94.94,0,0,0,0,.89l13.56,27.11a.91.91,0,0,0,.57.48l.26,0a.9.9,0,0,0,.48-.14l5.15-3.07a.89.89,0,0,0,.44-.61.91.91,0,0,0-.14-.75L98.17,121.81a.93.93,0,0,0-.81-.37Z"/><path class="cls-9" d="M90.17,165.11a32.53,32.53,0,0,1-12.28-2.9S73,159.91,73,158.93v-.61h0c.19-3.71,2.09-9.36,3.76-14.38,1.33-4,2.6-7.74,2.6-9.39a20.75,20.75,0,0,1,3.22-11.05c-.69-.37-1.26-.86-1.11-1.55.16-.85,1.75-1.85,8.28-1.85s8.13,1,8.29,1.85c.14.69-.43,1.18-1.12,1.55a20.58,20.58,0,0,1,3.22,11.05c0,1.65,1.27,5.41,2.6,9.39,1.69,5,3.59,10.66,3.77,14.37h0v.63c0,.92-6.78,5.83-16.44,6.17h.07Z"/><path class="cls-3" d="M89.83,120.73c5.14,0,10.27.83,6.27,2.51a20.1,20.1,0,0,1,3.52,11.3c0,4,6.4,18,6.4,24.39h0c.22,0-5.62,5.18-15.82,5.54-10.21-.36-16.74-5.54-16.53-5.54h0c0-6.4,6.4-20.41,6.4-24.39a20.18,20.18,0,0,1,3.52-11.3c-4-1.68,1.13-2.51,6.26-2.51m0-1.25c-8.43,0-8.78,1.7-8.91,2.35a1.84,1.84,0,0,0,.87,1.87,21.46,21.46,0,0,0-3,10.85c0,1.55-1.31,5.43-2.57,9.19-1.61,4.79-3.41,10.15-3.76,13.94h0v1.24c0,.7.4,1.09,1.73,2a26.8,26.8,0,0,0,3.49,1.91,33.23,33.23,0,0,0,12.52,3h.09a30.44,30.44,0,0,0,12.18-3,22.76,22.76,0,0,0,3.27-1.92c1.36-1,1.61-1.35,1.6-1.94V157.7h-.06c-.36-3.77-2.16-9.16-3.76-14-1.26-3.76-2.57-7.64-2.57-9.19a21.46,21.46,0,0,0-3-10.85,1.83,1.83,0,0,0,.87-1.87c-.15-.65-.48-2.35-8.94-2.35Z"/><path class="cls-10" d="M89.49,131.12c-4.37,0-5.93-2.7-5.93-5.23,0-2.88,2.66-5.22,5.93-5.22s5.92,2.34,5.92,5.22C95.41,128.39,93.86,131.12,89.49,131.12Z"/><path class="cls-3" d="M89.49,121c3.1,0,5.61,2.2,5.61,4.91s-1.77,4.91-5.61,4.91-5.62-2.19-5.62-4.91S86.39,121,89.49,121m0-.62c-3.44,0-6.24,2.48-6.24,5.53,0,2.68,1.64,5.54,6.24,5.54s6.23-2.86,6.23-5.54C95.72,122.84,92.93,120.36,89.49,120.36Z"/><path class="cls-8" d="M109.87,98.53H81.77l-4.21-8.42-3.77,8.42h-5.4v.17c-.14,2.56-3.56,5.56-3.47,11.17.16,9.61,10.55,15.58,24,15.72h.36c13.45-.14,23.87-6.11,24-15.72.1-5.61-3.32-8.61-3.46-11.17Z"/><path class="cls-3" d="M109.87,98.53V97.9H81.77v.63l.56-.28-4.8-9.61-4.29,9.63.58.26V97.9h-6v.76h0a5.05,5.05,0,0,1-.55,1.78c-.95,2.06-2.92,4.9-2.92,9.2v.24a12.9,12.9,0,0,0,2,6.77,18.62,18.62,0,0,0,8.91,7A37.08,37.08,0,0,0,89,126.17v-.62h-.62v.63H90v-.64h-.62v.63c6.81-.07,12.88-1.62,17.32-4.4a16.84,16.84,0,0,0,5.27-5.12,13.05,13.05,0,0,0,2-6.78v-.23a15.09,15.09,0,0,0-1.75-6.86c-.44-.89-.87-1.66-1.18-2.35a5,5,0,0,1-.54-1.77h0v-.13h-.59l.59.06v-.06h-.59l.59.06.07-.69h-.7v.62l-.62-.07v.07h0v.2h0a6.34,6.34,0,0,0,.66,2.26c1,2.26,2.81,4.77,2.81,8.68v.21a11.83,11.83,0,0,1-1.83,6.17,17.51,17.51,0,0,1-8.33,6.47A35.91,35.91,0,0,1,89.3,125h-.62v.62h.63V125h-.39v.62h.63V125h-.62c-6.63-.07-12.5-1.59-16.67-4.21a15.48,15.48,0,0,1-4.9-4.73,11.7,11.7,0,0,1-1.83-6.16v-.21a13.75,13.75,0,0,1,1.61-6.31c.42-.85.85-1.62,1.19-2.37A6.16,6.16,0,0,0,69,98.73v-.21h-.61v.63h5.8l3.37-7.58,3.76,7.58h28.49v-.63l-.61-.07Z"/><ellipse class="cls-3" cx="77.48" cy="109.57" rx="2.87" ry="5.3"/><ellipse class="cls-3" cx="101.5" cy="109.57" rx="2.87" ry="5.3"/><path class="cls-3" d="M88.85,114.21a2.89,2.89,0,0,1-1.57-.42,1,1,0,0,1-.5-1.26,1,1,0,0,1,.5-.51,2.89,2.89,0,0,1,1.57-.42.31.31,0,0,0,.31-.31h0a.3.3,0,0,0-.31-.3h0a3.38,3.38,0,0,0-1.91.52,1.57,1.57,0,0,0-.69,2.12,1.54,1.54,0,0,0,.69.69,3.47,3.47,0,0,0,1.91.53.31.31,0,0,0,.31-.31h0a.31.31,0,0,0-.31-.31Z"/></g><path class="cls-11" d="M17.44,162.45a19.63,19.63,0,0,1-12.69-5.62l-.32-.35c-2.15-2.38-1.86-4.13-1.51-5s1.51-2.26,4.68-2.26H74.09c4,0,8.28,1.14,8.28,3.64.2.29,2.26,1.28,5.9,1.28h3.55c3.68,0,5.7-1,5.91-1.39,0-2.39,4.26-3.53,8.23-3.53h66.48c3.2,0,4.3,1.4,4.67,2.26s.67,2.59-1.5,5l-.32.35a19.68,19.68,0,0,1-12.7,5.62Z"/><path class="cls-3" d="M172.4,150.45c3.88,0,4.93,2.36,2.31,5.27l-.32.36a18.3,18.3,0,0,1-11.82,5.22H17.44a18.32,18.32,0,0,1-11.82-5.22l-.32-.36c-2.62-2.87-1.58-5.27,2.32-5.27H74.09c3.89,0,7.07,1.11,7.07,2.46s3.18,2.46,7.07,2.46h3.55c3.89,0,7.08-1.11,7.08-2.46s3.17-2.46,7.07-2.46H172.4m0-2.36H105.93c-4.05,0-8.72,1.1-9.36,4.1a11.86,11.86,0,0,1-4.79.82H88.23a11.86,11.86,0,0,1-4.79-.82c-.64-3-5.27-4.1-9.35-4.1H7.62c-3.87,0-5.28,1.85-5.76,2.95s-.91,3.36,1.7,6.23l.31.35a20.69,20.69,0,0,0,13.56,6H162.57a20.55,20.55,0,0,0,13.56-6l.31-.35c2.61-2.87,2.18-5.14,1.7-6.23s-1.87-2.95-5.74-2.95Z"/><path class="cls-11" d="M92,57.06a2,2,0,1,1-2-2h0A2,2,0,0,1,92,57.06Z"/><path class="cls-3" d="M92,57.06h-.58A1.38,1.38,0,1,1,90,55.68h0a1.38,1.38,0,0,1,1.38,1.38h1.17A2.56,2.56,0,1,0,90,59.61h0a2.55,2.55,0,0,0,2.55-2.55Z"/><path class="cls-12" d="M107.33,80.35a1,1,0,0,1-.83-1.68c3-3.89,6.14-8.64,6.64-10.2C103.94,63,98.68,54.86,98.68,46c0-15.82,17.1-28.62,38.13-28.62S174.94,30.21,174.94,46s-17.11,28.61-38.13,28.61a49.56,49.56,0,0,1-13.16-1.75c-1.58,0-10.22,4.29-15.82,7.32A1,1,0,0,1,107.33,80.35Z"/><path class="cls-3" d="M136.82,18.45c20.49,0,37.09,12.34,37.09,27.58S157.35,73.6,136.82,73.6a48.71,48.71,0,0,1-12.88-1.68h-.23c-2.62,0-16.37,7.44-16.37,7.44s8.14-10.7,6.78-11.48c-8.74-5-14.38-12.94-14.38-21.8,0-15.29,16.62-27.63,37.08-27.63m0-2.09c-21.6,0-39.15,13.3-39.15,29.67,0,8.95,5.14,17.22,14.18,22.87a78.29,78.29,0,0,1-6.16,9.15,2.09,2.09,0,0,0,.4,2.93,2.13,2.13,0,0,0,2.26.18c6.07-3.29,13.5-6.89,15.29-7.18a50.55,50.55,0,0,0,13.18,1.7C158.42,75.68,176,62.37,176,46S158.42,16.36,136.82,16.36Z"/><path class="cls-13" d="M160.3,55.73H114.11a.86.86,0,0,1-.86-.85V54a.87.87,0,0,1,.86-.85h46.16a.87.87,0,0,1,.86.85v.86A.86.86,0,0,1,160.3,55.73Zm0-6.36H114.11a.86.86,0,0,1-.86-.86v-.85a.87.87,0,0,1,.86-.86h46.16a.87.87,0,0,1,.86.86v.85A.87.87,0,0,1,160.3,49.37Zm0-6.37H114.11a.87.87,0,0,1-.86-.85v-.86a.86.86,0,0,1,.86-.85h46.16a.86.86,0,0,1,.86.85v.86A.87.87,0,0,1,160.3,43Zm0-6.36H114.11a.86.86,0,0,1-.83-.87v-.84a.85.85,0,0,1,.83-.86h46.16a.85.85,0,0,1,.86.86v.84A.88.88,0,0,1,160.3,36.64Z"/></svg>