<svg id="レイヤー_1" data-name="レイヤー 1" xmlns="http://www.w3.org/2000/svg" viewBox="0 0 180 180"><defs><style>.cls-1{fill:#ef4d4d;}.cls-1,.cls-2{stroke:#515556;stroke-miterlimit:10;stroke-width:2.83px;}.cls-2{fill:#fff;}</style></defs><title>warning</title><g id="warning"><path class="cls-1" d="M41.75,148.74a16.25,16.25,0,0,1-14.13-24.28l29.55-52L75.86,39.49a16.24,16.24,0,0,1,28.27,0l48.25,85a16.26,16.26,0,0,1-14.16,24.28Z"/><path class="cls-2" d="M90.89,134.28a10.56,10.56,0,0,1-7.09-2.63,9.73,9.73,0,0,1-3.21-7.58,10.12,10.12,0,0,1,10.09-10.15h.11a10.21,10.21,0,0,1,7.26,2.93,10,10,0,0,1,3,7.22,9.59,9.59,0,0,1-3.17,7.53A10.35,10.35,0,0,1,90.89,134.28Z"/><path class="cls-2" d="M90.6,111.13a6.56,6.56,0,0,1-6.27-3.9,24.27,24.27,0,0,1-1.7-7.69L81.06,76.05c-.3-4.64-.44-7.93-.44-10a11.74,11.74,0,0,1,2.9-8.3,10.21,10.21,0,0,1,7.69-3.18c5,0,7.2,2.46,8.2,4.53,1.14,2.37,1.7,5.52,1.7,9.63a67.17,67.17,0,0,1-.35,6.8L98.64,99.61a21.3,21.3,0,0,1-1.75,7.62A6.69,6.69,0,0,1,90.6,111.13Z"/></g></svg>