<?xml version="1.0" encoding="utf-8"?>
<!-- Generator: Adobe Illustrator 16.0.4, SVG Export Plug-In . SVG Version: 6.00 Build 0)  -->
<!DOCTYPE svg PUBLIC "-//W3C//DTD SVG 1.1//EN" "http://www.w3.org/Graphics/SVG/1.1/DTD/svg11.dtd">
<svg version="1.1" id="レイヤー_1" xmlns="http://www.w3.org/2000/svg" xmlns:xlink="http://www.w3.org/1999/xlink" x="0px"
	 y="0px" width="111.484px" height="123.812px" viewBox="0 258.776 111.484 123.812"
	 enable-background="new 0 258.776 111.484 123.812" xml:space="preserve">
<g>
	<path fill="#FFFFFF" d="M111.481,298.361v-0.006l-0.003-0.067v-0.009l-0.003-0.067v-0.01l-0.003-0.07v-0.009l-0.003-0.067v-0.01
		l-0.003-0.067v-0.01l-0.003-0.067v-0.009l-0.003-0.067v-0.006l-0.006-0.07v-0.01l-0.003-0.07v-0.01l-0.003-0.067v-0.01
		l-0.006-0.067v-0.009l-0.007-0.067v-0.01l-0.006-0.067v-0.01l-0.006-0.067v-0.01l-0.006-0.067l-0.003-0.009l-0.007-0.067
		l-0.003-0.01l-0.006-0.067v-0.01l-0.006-0.067l-0.003-0.009l-0.006-0.067l-0.003-0.006l-0.006-0.067v-0.009l-0.009-0.067
		l-0.003-0.01l-0.01-0.067v-0.01l-0.009-0.067v-0.006l-0.01-0.067v-0.01l-0.006-0.067v-0.006l-0.01-0.07v-0.013l-0.019-0.131
		l-0.003-0.019l-0.02-0.134l-0.003-0.02l-0.022-0.134l-0.003-0.019l-0.022-0.131l-0.003-0.016l-0.022-0.134l-0.003-0.016
		l-0.025-0.131l-0.003-0.016l-0.025-0.131l-0.003-0.016l-0.025-0.131l-0.003-0.016l-0.029-0.131l-0.003-0.016l-0.029-0.131
		l-0.003-0.02l-0.032-0.131l-0.006-0.016l-0.029-0.131l-0.006-0.016l-0.032-0.131l-0.003-0.016l-0.035-0.131l-0.006-0.019
		l-0.032-0.128l-0.003-0.016l-0.035-0.128l-0.006-0.016l-0.035-0.128l-0.006-0.016l-0.039-0.128l-0.006-0.016l-0.039-0.128
		l-0.003-0.016l-0.039-0.128l-0.006-0.016l-0.038-0.125l-0.003-0.016l-0.042-0.128l-0.006-0.016l-0.042-0.125l-0.006-0.016
		l-0.042-0.125l-0.006-0.016l-0.042-0.125l-0.006-0.016l-0.045-0.125l-0.006-0.016l-0.048-0.125l-0.006-0.016l-0.048-0.125
		l-0.006-0.016l-0.048-0.125l-0.006-0.016l-0.048-0.122l-0.006-0.016l-0.048-0.125l-0.006-0.016l-0.051-0.122l-0.006-0.016
		l-0.051-0.122l-0.006-0.016l-0.054-0.122l-0.007-0.016l-0.054-0.122l-0.006-0.016l-0.054-0.122l-0.007-0.016l-0.054-0.122
		l-0.01-0.016l-0.058-0.119l-0.006-0.016l-0.061-0.118l-0.006-0.016l-0.058-0.122l-0.01-0.013l-0.061-0.119l-0.007-0.016
		l-0.061-0.119l-0.006-0.016l-0.064-0.118l-0.006-0.016l-0.064-0.115l-0.01-0.016l-0.064-0.115l-0.01-0.016l-0.064-0.115
		l-0.01-0.016l-0.064-0.115l-0.009-0.013l-0.067-0.115l-0.01-0.016l-0.067-0.112l-0.01-0.016l-0.07-0.112l-0.01-0.016l-0.067-0.112
		l-0.01-0.016l-0.07-0.112l-0.01-0.013l-0.074-0.112l-0.009-0.013l-0.07-0.109l-0.01-0.013l-0.07-0.109l-0.01-0.016l-0.074-0.112
		l-0.009-0.016l-0.074-0.109l-0.01-0.016l-0.077-0.109l-0.01-0.013l-0.077-0.109l-0.01-0.013l-0.077-0.109l-0.01-0.016l-0.08-0.106
		l-0.01-0.013l-0.08-0.109l-0.01-0.016l-0.08-0.106l-0.01-0.013l-0.08-0.105l-0.01-0.013l-0.08-0.105l-0.01-0.013l-0.083-0.105
		l-0.013-0.013l-0.083-0.103l-0.01-0.013l-0.083-0.103l-0.013-0.013l-0.086-0.103l-0.01-0.013l-0.086-0.103l-0.013-0.013
		l-0.086-0.103l-0.013-0.013l-0.09-0.099l-0.009-0.013l-0.086-0.102l-0.013-0.013l-0.089-0.1l-0.013-0.013l-0.09-0.096l-0.013-0.013
		l-0.09-0.096l-0.013-0.013l-0.089-0.096l-0.013-0.013l-0.093-0.096l-0.009-0.013l-0.093-0.096l-0.013-0.013l-0.093-0.096
		l-0.013-0.013l-0.093-0.093l-0.013-0.013l-0.096-0.093l-0.013-0.013l-0.096-0.093l-0.013-0.013l-0.099-0.093l-0.013-0.009
		l-0.096-0.09l-0.013-0.009l-0.099-0.093l-0.013-0.009l-0.099-0.09l-0.013-0.009l-0.099-0.09l-0.013-0.009l-0.103-0.086
		l-0.013-0.013l-0.103-0.086l-0.013-0.009l-0.105-0.086l-0.013-0.01l-0.106-0.086l-0.013-0.009l-0.103-0.086l-0.013-0.01
		l-0.102-0.083l-0.01-0.01l-0.055-0.045l-0.009-0.006l-0.051-0.042l-0.006-0.006l-0.055-0.042l-0.006-0.007l-0.054-0.042
		l-0.01-0.003l-0.054-0.042l-0.01-0.006l-0.051-0.042l-0.009-0.006l-0.055-0.042l-0.006-0.006l-0.054-0.039l-0.006-0.006
		l-0.055-0.039l-0.006-0.003l-0.054-0.039l-0.006-0.006l-0.055-0.039l-0.006-0.003l-0.054-0.039l-0.007-0.003l-0.054-0.039
		l-0.01-0.006l-0.054-0.042l-0.006-0.003l-0.055-0.038l-0.006-0.007l-0.054-0.038l-0.006-0.003l-0.055-0.038l-0.006-0.003
		l-0.054-0.039l-0.006-0.003l-0.058-0.039l-0.006-0.003l-0.058-0.039l-0.01-0.003l-0.054-0.035l-0.006-0.006l-0.058-0.038
		l-0.006-0.006l-0.058-0.039l-0.007-0.003l-0.057-0.035l-0.01-0.003l-0.058-0.039l-0.006-0.003l-0.058-0.038l-0.01-0.003
		l-0.058-0.035l-0.006-0.003l-0.058-0.036l-0.006-0.003l-0.058-0.035l-0.006-0.003l-0.058-0.035l-0.006-0.006l-0.058-0.035
		l-0.006-0.006l-0.058-0.039l-0.01-0.003l-0.061-0.035l-0.006-0.006l-0.061-0.036l-36.256-21.302h-0.006l-0.067-0.042l-0.01-0.006
		l-0.07-0.042l-0.006-0.006l-0.07-0.042l-0.006-0.003l-0.07-0.042l-0.01-0.003l-0.07-0.042l-0.006-0.006l-0.07-0.042l-0.007-0.007
		l-0.073-0.038l-0.01-0.006l-0.07-0.039l-0.006-0.003l-0.074-0.039l-0.01-0.003l-0.073-0.038l-0.01-0.007l-0.07-0.038l-0.01-0.003
		l-0.074-0.038l-0.006-0.003l-0.073-0.035l-0.01-0.003l-0.07-0.039l-0.006-0.003l-0.074-0.035l-0.006-0.006l-0.074-0.039
		l-0.006-0.003l-0.074-0.035l-0.009-0.003l-0.074-0.035l-0.01-0.003l-0.074-0.036l-0.009-0.003l-0.074-0.035l-0.006-0.003
		l-0.074-0.035l-0.006-0.003l-0.074-0.035l-0.009-0.003l-0.074-0.035l-0.01-0.003l-0.073-0.035l-0.007-0.003l-0.073-0.032
		l-0.01-0.003l-0.074-0.032l-0.009-0.003l-0.074-0.032l-0.006-0.003l-0.077-0.032l-0.007-0.003l-0.073-0.032l-0.006-0.003
		l-0.074-0.032l-0.006-0.003l-0.077-0.032l-0.006-0.003l-0.077-0.032l-0.01-0.003l-0.077-0.032l-0.01-0.003l-0.073-0.032
		l-0.01-0.003l-0.077-0.029l-0.006-0.003l-0.074-0.032l-0.01-0.003l-0.073-0.029l-0.01-0.003l-0.077-0.029l-0.01-0.003l-0.077-0.029
		l-0.006-0.003l-0.077-0.026l-0.006-0.003l-0.074-0.029l-0.009-0.003l-0.077-0.029l-0.009-0.003l-0.074-0.029l-0.01-0.003
		l-0.073-0.025l-0.01-0.003l-0.074-0.025l-0.006-0.003l-0.077-0.025l-0.006-0.003l-0.077-0.025l-0.009-0.003l-0.077-0.025
		l-0.007-0.003l-0.077-0.025l-0.01-0.003l-0.077-0.025l-0.009-0.003l-0.077-0.025h-0.009l-0.077-0.026H61.77l-0.077-0.025
		l-0.006-0.003l-0.077-0.025l-0.01-0.003l-0.077-0.022l-0.01-0.003l-0.077-0.022l-0.01-0.003l-0.077-0.022l-0.006-0.003
		l-0.077-0.022l-0.01-0.003l-0.077-0.022l-0.01-0.003l-0.077-0.022l-0.01-0.003l-0.077-0.022h-0.01l-0.077-0.019l-0.01-0.003
		l-0.08-0.019h-0.009l-0.077-0.022h-0.006l-0.077-0.019l-0.01-0.003l-0.077-0.019l-0.006-0.003l-0.08-0.019l-0.006-0.003
		l-0.077-0.019l-0.01-0.003l-0.077-0.019h-0.01l-0.077-0.019l-0.006-0.003l-0.077-0.016l-0.009-0.003l-0.077-0.016l-0.006-0.003
		l-0.08-0.019h-0.01l-0.077-0.019l-0.01-0.003l-0.077-0.019h-0.006l-0.08-0.016l-0.01-0.003l-0.08-0.016h-0.006l-0.077-0.016h-0.01
		l-0.077-0.016h-0.006l-0.08-0.016h-0.01l-0.077-0.016h-0.01l-0.077-0.013h-0.01l-0.077-0.016l-0.01-0.003l-0.077-0.013l-0.01-0.003
		l-0.077-0.013h-0.01l-0.08-0.013h-0.006l-0.077-0.013h-0.009l-0.077-0.013h-0.009l-0.08-0.013h-0.006l-0.077-0.013h-0.009
		l-0.08-0.013l-0.01-0.003l-0.077-0.013h-0.01l-0.08-0.009h-0.009l-0.077-0.01H58.15l-0.08-0.01h-0.01l-0.08-0.009h-0.01
		l-0.077-0.01h-0.01l-0.077-0.01h-0.006l-0.08-0.009h-0.009l-0.08-0.01h-0.01l-0.08-0.006h-0.009l-0.077-0.006h-0.009l-0.077-0.006
		H57.36l-0.08-0.006h-0.01l-0.08-0.007h-0.009l-0.08-0.006h-0.01l-0.077-0.006h-0.006l-0.08-0.006h-0.01l-0.077-0.006h-0.006
		l-0.077-0.006h-0.01l-0.08-0.006h-0.01l-0.08-0.003h-0.007l-0.077-0.003h-0.01l-0.077-0.003H56.4l-0.08-0.003h-0.006l-0.08-0.003
		h-0.009l-0.079-0.003h-0.009l-0.079-0.003h-0.453l-0.079-0.001h-0.088l-0.017,0.028h-0.186l-0.08,0.003h-0.099l-0.08,0.003h-0.006
		l-0.08,0.003h-0.01l-0.08,0.003h-0.01l-0.08,0.003H54.7l-0.08,0.003h-0.01l-0.08,0.003l-0.01,0.003l-0.08,0.003h-0.01l-0.08,0.003
		h-0.01l-0.08,0.003h-0.01l-0.08,0.003h-0.006l-0.08,0.006h-0.01l-0.08,0.003l-0.006,0.003l-0.08,0.006l-0.01,0.003l-0.08,0.003
		h-0.009l-0.08,0.006h-0.01l-0.079,0.006h-0.01l-0.08,0.007l-0.009,0.003l-0.08,0.006l-0.01,0.003l-0.08,0.01h-0.009l-0.077,0.006
		h-0.009l-0.08,0.009h-0.01l-0.08,0.01h-0.009l-0.077,0.01h-0.009l-0.077,0.009h-0.009l-0.08,0.006l-0.006,0.003l-0.08,0.01
		l-0.01,0.003l-0.08,0.01H52.66l-0.077,0.009h-0.01l-0.08,0.01h-0.01l-0.08,0.013h-0.01l-0.08,0.013h-0.01l-0.08,0.013l-0.01,0.003
		l-0.08,0.013h-0.01l-0.077,0.013h-0.006l-0.077,0.013l-0.01,0.003l-0.08,0.013l-0.009,0.003l-0.077,0.013H51.78l-0.08,0.013
		l-0.01,0.003l-0.08,0.016l-0.009,0.003l-0.077,0.013h-0.009l-0.08,0.013l-0.01,0.003l-0.08,0.016l-0.009,0.003l-0.08,0.016
		l-0.006,0.003l-0.08,0.016h-0.006l-0.08,0.016l-0.01,0.003l-0.077,0.016h-0.006l-0.077,0.016l-0.01,0.003l-0.077,0.016h-0.01
		l-0.077,0.016l-0.01,0.003l-0.077,0.019l-0.01,0.003l-0.077,0.016l-0.01,0.003l-0.077,0.019h-0.01l-0.08,0.019h-0.009l-0.077,0.02
		l-0.009,0.003l-0.08,0.019l-0.01,0.003l-0.079,0.019h-0.009l-0.077,0.022h-0.006l-0.08,0.02l-0.007,0.003l-0.077,0.022
		l-0.006,0.003l-0.077,0.019l-0.01,0.003l-0.077,0.02l-0.01,0.003l-0.077,0.022l-0.01,0.003l-0.077,0.022l-0.01,0.003l-0.077,0.022
		l-0.006,0.003l-0.077,0.022l-0.006,0.003l-0.077,0.022l-0.009,0.003l-0.077,0.022h-0.009l-0.077,0.022l-0.009,0.003l-0.077,0.022
		l-0.007,0.003l-0.077,0.022l-0.01,0.003l-0.077,0.025l-0.009,0.003l-0.077,0.025l-0.009,0.003l-0.077,0.025l-0.006,0.003
		l-0.077,0.025l-0.01,0.003l-0.073,0.025l-0.01,0.003l-0.077,0.025l-0.01,0.003l-0.074,0.025l-0.01,0.003l-0.077,0.026l-0.009,0.003
		l-0.077,0.025l-0.009,0.003l-0.077,0.029l-0.009,0.003l-0.077,0.029l-0.009,0.003l-0.077,0.025l-0.009,0.003l-0.077,0.029
		l-0.006,0.003l-0.073,0.029l-0.01,0.003l-0.077,0.029l-0.006,0.003l-0.074,0.029l-0.01,0.006l-0.077,0.032l-0.01,0.003
		l-0.077,0.032l-0.01,0.003l-0.073,0.032l-0.01,0.003l-0.074,0.028l-0.01,0.003l-0.073,0.032l-0.01,0.003l-0.074,0.032l-0.009,0.003
		l-0.074,0.032l-0.01,0.003l-0.073,0.032l-0.01,0.003l-0.074,0.032l-0.009,0.006l-0.074,0.032l-0.006,0.003l-0.074,0.032
		l-0.006,0.006l-0.074,0.032l-0.01,0.003l-0.073,0.032l-0.01,0.003l-0.074,0.035l-0.009,0.003l-0.074,0.035l-0.01,0.006
		l-0.073,0.035l-0.01,0.003l-0.074,0.036l-0.006,0.003l-0.074,0.035l-0.009,0.003l-0.07,0.035l-0.01,0.003l-0.074,0.035l-0.01,0.003
		l-0.073,0.035l-0.006,0.003l-0.074,0.038l-0.01,0.003l-0.074,0.038l-0.009,0.003l-0.07,0.039l-0.01,0.003l-0.07,0.039l-0.006,0.003
		l-0.074,0.039l-0.006,0.006l-0.07,0.039l-0.01,0.006l-0.07,0.039l-0.01,0.006l-0.07,0.038l-0.006,0.006l-0.074,0.039l-0.01,0.003
		l-0.07,0.038l-0.006,0.006l-0.074,0.039l-0.006,0.006l-0.073,0.039l-0.006,0.003l-0.071,0.042l-0.009,0.003l-0.07,0.042
		l-0.007,0.006l-0.073,0.042l-0.01,0.003l-0.07,0.042l-0.01,0.006l-0.07,0.042l-0.01,0.006l-0.07,0.042l-0.01,0.006l-0.07,0.045
		l-0.006,0.003l-0.067,0.042l-0.003,0.003l-32.163,19.84H12.07L12,281.841l-0.01,0.003l-0.07,0.045l-0.006,0.003l-0.07,0.044
		l-0.006,0.003l-0.07,0.045l-0.006,0.003l-0.071,0.045l-0.006,0.006l-0.07,0.045l-0.01,0.003l-0.07,0.045l-0.006,0.006l-0.07,0.048
		l-0.006,0.007l-0.07,0.044l-0.01,0.006l-0.067,0.048l-0.006,0.003l-0.07,0.045l-0.006,0.003l-0.067,0.048l-0.006,0.006l-0.07,0.048
		l-0.006,0.003l-0.067,0.048l-0.006,0.003l-0.067,0.048l-0.01,0.003l-0.067,0.048l-0.006,0.006l-0.07,0.048l-0.006,0.003
		l-0.067,0.051l-0.006,0.006l-0.067,0.048l-0.007,0.003l-0.067,0.048l-0.01,0.006l-0.067,0.048l-0.007,0.003l-0.067,0.048
		l-0.006,0.006l-0.067,0.051l-0.006,0.006l-0.067,0.048l-0.006,0.006l-0.064,0.051l-0.006,0.006l-0.067,0.051l-0.006,0.003
		l-0.064,0.051l-0.006,0.006l-0.067,0.051l-0.007,0.006l-0.067,0.051l-0.006,0.006l-0.064,0.051l-0.007,0.006l-0.067,0.051
		l-0.006,0.006l-0.064,0.051l-0.006,0.006l-0.064,0.051l-0.006,0.006l-0.064,0.051l-0.006,0.003l-0.064,0.051l-0.006,0.006
		l-0.064,0.051l-0.006,0.006l-0.061,0.051l-0.006,0.006l-0.064,0.051l-0.006,0.006l-0.064,0.051l-0.006,0.006L9.12,283.95
		l-0.006,0.006l-0.064,0.054l-0.006,0.006l-0.064,0.054l-0.006,0.003l-0.061,0.054l-0.006,0.007l-0.061,0.054l-0.006,0.006
		l-0.061,0.055l-0.007,0.006l-0.061,0.054l-0.006,0.003l-0.061,0.054l-0.006,0.003l-0.061,0.058l-0.006,0.007l-0.061,0.058
		L8.502,284.5l-0.061,0.054l-0.006,0.006l-0.061,0.055l-0.006,0.006l-0.058,0.058l-0.006,0.006l-0.058,0.058L8.24,284.75
		l-0.058,0.058l-0.007,0.006l-0.057,0.058l-0.007,0.006l-0.058,0.058l-0.006,0.006L7.99,285l-0.006,0.006l-0.058,0.058L7.92,285.07
		l-0.061,0.058l-0.006,0.006l-0.058,0.058l-0.007,0.006l-0.057,0.058l-0.007,0.006l-0.058,0.058l-0.006,0.007l-0.058,0.061
		l-0.006,0.006l-0.058,0.061l-0.006,0.006l-0.061,0.058l-0.006,0.006l-0.058,0.061l-0.003,0.006l-0.058,0.061l-0.006,0.006
		l-0.054,0.061l-0.003,0.006l-0.054,0.061l-0.006,0.006l-0.055,0.061l-0.006,0.006l-0.054,0.061l-0.003,0.007l-0.054,0.061
		l-0.007,0.006l-0.054,0.061l-0.006,0.006l-0.054,0.061l-0.007,0.006l-0.054,0.061l-0.003,0.006L6.81,286.26l-0.006,0.006
		l-0.051,0.064l-0.006,0.006l-0.051,0.061l-0.006,0.006l-0.051,0.064l-0.006,0.006l-0.054,0.061l-0.006,0.006l-0.051,0.064
		l-0.006,0.006l-0.051,0.064l-0.006,0.006l-0.051,0.061l-0.006,0.006l-0.051,0.064l-0.006,0.006l-0.051,0.064l-0.003,0.006
		l-0.051,0.064l-0.006,0.01l-0.051,0.064l-0.006,0.006l-0.051,0.064l-0.006,0.006l-0.051,0.064l-0.007,0.006l-0.051,0.064
		l-0.007,0.007l-0.051,0.064l-0.006,0.006l-0.048,0.064l-0.003,0.006l-0.048,0.064l-0.006,0.006l-0.048,0.064l-0.006,0.006
		l-0.048,0.064l-0.007,0.006l-0.048,0.064l-0.006,0.006l-0.048,0.067l-0.003,0.006l-0.048,0.064l-0.006,0.007l-0.048,0.067
		l-0.003,0.006l-0.048,0.067l-0.007,0.006l-0.048,0.067l-0.003,0.006L5.36,288.1l-0.003,0.006l-0.048,0.067l-0.003,0.006
		l-0.048,0.067l-0.007,0.006l-0.044,0.067L5.2,288.328l-0.048,0.067l-0.003,0.006l-0.045,0.067l-0.003,0.006l-0.044,0.067
		l-0.003,0.009l-0.045,0.067l-0.006,0.006l-0.044,0.07l-0.007,0.006l-0.044,0.067l-0.003,0.006l-0.045,0.067l-0.003,0.006
		l-0.042,0.07l-0.006,0.006l-0.045,0.067L4.755,289l-0.042,0.067l-0.003,0.007l-0.045,0.07l-0.006,0.009l-0.045,0.071l-0.003,0.006
		L4.57,289.3l-0.007,0.006l-0.042,0.07l-0.003,0.006l-0.042,0.071L4.47,289.46l-0.042,0.07l-0.003,0.006l-0.042,0.07l-0.006,0.006
		l-0.042,0.07l-0.003,0.006l-0.042,0.071l-0.003,0.006l-0.042,0.07l-0.003,0.006l-0.039,0.07l-0.003,0.006l-0.042,0.07l-0.006,0.01
		l-0.039,0.07l-0.003,0.006l-0.038,0.071l-0.006,0.006l-0.039,0.07l-0.003,0.01l-0.038,0.07l-0.006,0.006l-0.039,0.07l-0.003,0.01
		l-0.038,0.07l-0.003,0.006l-0.038,0.07l-0.003,0.006l-0.039,0.07l-0.003,0.01l-0.039,0.074l-0.003,0.006l-0.039,0.074l-0.006,0.009
		l-0.039,0.074l-0.003,0.006l-0.039,0.07l-0.003,0.006l-0.036,0.074l-0.003,0.006l-0.035,0.074l-0.003,0.006l-0.035,0.074
		l-0.003,0.006l-0.035,0.074l-0.003,0.009l-0.035,0.074l-0.003,0.006l-0.035,0.074l-0.003,0.01l-0.035,0.073l-0.003,0.006
		l-0.035,0.074l-0.003,0.006l-0.035,0.074l-0.003,0.006l-0.035,0.074l-0.003,0.01l-0.032,0.073l-0.003,0.006l-0.035,0.074
		l-0.003,0.006l-0.035,0.077l-0.003,0.007l-0.032,0.077l-0.003,0.009l-0.032,0.074l-0.003,0.01l-0.032,0.074l-0.003,0.008
		l-0.032,0.077l-0.003,0.01l-0.032,0.077l-0.003,0.01l-0.032,0.077l-0.003,0.01l-0.032,0.077l-0.003,0.01l-0.032,0.077l-0.003,0.01
		l-0.032,0.077l-0.003,0.006L2.8,292.841l-0.003,0.007l-0.032,0.073l-0.003,0.01l-0.029,0.077l-0.003,0.006l-0.029,0.077
		L2.698,293.1l-0.029,0.077l-0.003,0.006l-0.029,0.077v0.006l-0.029,0.077l-0.003,0.006l-0.029,0.077l-0.003,0.006l-0.025,0.077
		l-0.003,0.008l-0.025,0.077l-0.003,0.006l-0.029,0.077l-0.003,0.006l-0.026,0.077l-0.003,0.009l-0.026,0.077l-0.003,0.009
		L2.4,293.934l-0.003,0.01l-0.026,0.077l-0.003,0.006l-0.026,0.077v0.009l-0.025,0.077v0.006l-0.026,0.077l-0.003,0.01l-0.026,0.078
		l-0.003,0.009l-0.022,0.08l-0.003,0.006l-0.022,0.078l-0.003,0.006l-0.022,0.077l-0.003,0.006l-0.026,0.08l-0.003,0.006
		l-0.022,0.078l-0.003,0.009l-0.022,0.08l-0.003,0.008l-0.022,0.08l-0.003,0.006l-0.022,0.077l-0.003,0.009l-0.022,0.08v0.01
		l-0.022,0.08l-0.003,0.009l-0.022,0.08v0.006l-0.022,0.08v0.006l-0.022,0.08l-0.003,0.01l-0.019,0.08v0.006l-0.019,0.08
		l-0.003,0.006l-0.019,0.08v0.009l-0.019,0.08l-0.003,0.01l-0.019,0.08v0.01l-0.02,0.08l-0.003,0.01l-0.016,0.08l-0.003,0.009
		l-0.019,0.08v0.01l-0.019,0.08l-0.003,0.007l-0.016,0.08l-0.003,0.007l-0.016,0.08v0.007l-0.016,0.08v0.01l-0.016,0.08
		l-0.003,0.009l-0.016,0.08l-0.003,0.01l-0.016,0.08l-0.003,0.006l-0.016,0.08l-0.003,0.006l-0.016,0.083V297l-0.016,0.08v0.006
		l-0.016,0.08v0.01l-0.013,0.08l-0.003,0.009l-0.022,0.083v0.009l-0.013,0.08l-0.003,0.01l-0.013,0.08v0.006l-0.013,0.083v0.006
		l-0.013,0.083l-0.003,0.006l-0.013,0.083l-0.003,0.01l-0.009,0.08l-0.003,0.009l-0.009,0.083v0.009l-0.013,0.083v0.009l-0.009,0.08
		l-0.003,0.01l-0.01,0.083v0.01l-0.009,0.083v0.01l-0.01,0.08v0.01l-0.01,0.083l-0.003,0.01l-0.01,0.083v0.006l-0.009,0.083v0.006
		l-0.01,0.083v0.01l-0.01,0.083l-0.003,0.01l-0.01,0.083v0.006l-0.01,0.083v0.006l-0.006,0.083l-0.003,0.006l-0.006,0.083v0.009
		l-0.01,0.083v0.009l-0.006,0.083v0.009l-0.006,0.083v0.009l-0.003,0.083v0.01l-0.003,0.083v0.01l-0.006,0.083v0.01l-0.003,0.083
		v0.006l-0.006,0.083v0.009l-0.006,0.086v0.01l-0.003,0.083v0.01l-0.003,0.083v0.006l-0.003,0.083v0.009l-0.003,0.083v0.009
		l-0.003,0.083v0.006l-0.003,0.083v0.294l-0.003,0.083v0.102l-0.003,0.08v40.513l0.003,0.082v0.01l0.003,0.084v0.09l0.003,0.082
		l0.003,0.01l0.003,0.084v0.01l0.003,0.082v0.01l0.003,0.084v0.104l0.006,0.082v0.01l0.006,0.084v0.01l0.007,0.083l0.006,0.083v0.01
		l0.006,0.083v0.01l0.006,0.083l0.003,0.01l0.007,0.083v0.01l0.009,0.083l0.003,0.01l0.009,0.083v0.01l0.007,0.083l0.009,0.084
		l0.003,0.006l0.009,0.083v0.01l0.01,0.083l0.003,0.01l0.009,0.083v0.01l0.01,0.083l0.003,0.01l0.01,0.083v0.01l0.01,0.08
		l0.003,0.01l0.013,0.083v0.006l0.009,0.08v0.01l0.01,0.084v0.006l0.013,0.08v0.01l0.013,0.08v0.01l0.013,0.08v0.006l0.013,0.08
		v-0.004l0.013,0.08l0.003,0.01l0.013,0.08v0.01l0.013,0.08v0.01l0.013,0.08l0.003,0.01l0.013,0.08l0.003,0.01l0.016,0.082
		l0.003,0.01l0.016,0.087v0.009l0.019,0.078l0.003,0.009l0.016,0.08v0.01l0.016,0.083v0.01l0.016,0.08l0.016,0.08l0.003,0.01
		l0.016,0.08l0.003,0.01l0.016,0.08l0.003,0.006l0.019,0.08l0.003,0.01l0.016,0.08l0.003,0.01l0.019,0.08l0.003,0.009l0.019,0.08
		l-0.003,0.003l0.019,0.08l0.003,0.007l0.02,0.079l0.003,0.007l0.02,0.08l0.003,0.007l0.02,0.08H1.878l0.019,0.08l0.003,0.01
		l0.019,0.076l0.003,0.01l0.019,0.076v0.01l0.022,0.08v0.007l0.019,0.077l0.003,0.006l0.019,0.076l0.003,0.007l0.022,0.08
		l0.003,0.003l0.022,0.08l0.003,0.007l0.022,0.08l0.003,0.009l0.022,0.08l0.003,0.01l0.022,0.077l0.003,0.01l0.022,0.077l0.003,0.01
		l0.022,0.079l0.003,0.01l0.025,0.08l0.003,0.007l0.022,0.076l0.002,0.01l0.026,0.076l0.003,0.01l0.026,0.077l0.003,0.01
		l0.026,0.077l0.003,0.009l0.026,0.077l0.003,0.01l0.026,0.076l0.003,0.007l0.026,0.077l0.003,0.006l0.026,0.077l0.003,0.009
		l0.029,0.077l0.003,0.01l0.025,0.077l0.003,0.01l0.025,0.076l0.003,0.006l0.029,0.078l0.003,0.009l0.026,0.077l0.003,0.006
		l0.029,0.077l0.003,0.007l0.029,0.076l0.003,0.01l0.029,0.076l0.003,0.007l0.029,0.077l0.003,0.01l0.029,0.076l0.003,0.007
		l0.032,0.077l0.003,0.01l0.029,0.07l0.003,0.01l0.032,0.072l0.003,0.007l0.029,0.077l0.003,0.01l0.032,0.073l0.003,0.007
		l0.029,0.073l0.003,0.007l0.032,0.073l0.003,0.009l0.032,0.074l0.003,0.006l0.032,0.074l0.003,0.006l0.035,0.074l0.003,0.01
		l0.035,0.073l0.003,0.007l0.032,0.073l0.003,0.01l0.036,0.073l0.003,0.007l0.035,0.073l0.003,0.006l0.035,0.074l0.003,0.006
		l0.032,0.074l0.003,0.006l0.036,0.074l0.003,0.006l0.035,0.074l0.003,0.01l0.035,0.07l0.003,0.01l0.036,0.073l0.006,0.01
		l0.035,0.073v-0.003l0.035,0.073l0.003,0.01l0.035,0.07l0.003,0.006l0.035,0.074l0.006,0.006l0.039,0.074l0.003,0.01l0.039,0.073
		l0.003,0.007l0.035,0.073l0.003,0.01l0.039,0.07l0.003,0.01l0.039,0.07l0.003,0.01l0.038,0.07l0.003,0.007l0.038,0.073l0.003,0.009
		l0.039,0.07l0.006,0.01l0.038,0.07l0.003,0.01l0.039,0.07l0.003,0.007l0.039,0.07l0.003,0.007l0.042,0.07l0.006,0.006l0.038,0.07
		l0.006,0.01l0.042,0.07l0.006,0.01l0.042,0.07l0.006,0.01l0.042,0.067l0.003,0.007l0.042,0.07l0.003,0.006l0.042,0.067l0.006,0.01
		l0.042,0.07l0.006,0.007l0.042,0.066l0.006,0.007l0.042,0.067l0.003,0.01l0.045,0.07l0.003,0.006l0.045,0.067l0.006,0.009
		l0.045,0.068l0.006,0.01l0.042,0.066l0.003,0.006l0.042,0.068l0.006,0.006l0.045,0.067l0.006,0.007l0.045,0.066l0.006,0.007
		l0.045,0.067l0.006,0.006l0.045,0.067l0.006,0.01l0.044,0.067l0.003,0.006l0.045,0.067l0.006,0.007l0.045,0.066l0.006,0.007
		l0.044,0.067l0.007,0.006l0.044,0.067l0.006,0.01L5.309,354l0.006,0.006l0.048,0.067l0.006,0.007l0.048,0.063l0.003,0.007
		l0.048,0.063l0.003,0.007l0.048,0.066l0.003,0.007l0.048,0.067l0.003,0.006l0.048,0.064l0.006,0.006l0.048,0.064l0.007,0.006
		l0.048,0.068l0.006,0.006l0.048,0.064l0.003,0.006l0.048,0.064l0.006,0.006l0.048,0.064l0.003,0.006l0.051,0.064l0.006,0.006
		l0.051,0.064l0.006,0.006l0.051,0.064l0.006,0.006l0.051,0.064l0.006,0.006l0.051,0.064l0.006,0.007l0.051,0.061l0.006,0.007
		l0.054,0.061l0.006,0.006l0.051,0.061l0.006,0.007l0.055,0.063l0.006,0.008l0.051,0.063l0.006,0.007l0.051,0.061l0.003,0.006
		l0.051,0.061l0.006,0.007l0.055,0.063l0.006,0.007l0.054,0.062l0.006,0.006l0.058,0.064l0.006,0.006l0.055,0.061l0.006,0.007
		l0.051,0.061l0.003,0.007l0.055,0.061l0.006,0.006l0.054,0.061l0.006,0.007l0.055,0.062l0.006,0.006l0.054,0.061l0.006,0.007
		l0.055,0.061l0.006,0.007l0.058,0.061l0.006,0.006l0.054,0.061l0.006,0.007l0.055,0.062l0.006,0.006l0.058,0.061l0.006,0.007
		l0.058,0.058l0.006,0.006l0.054,0.059l0.007,0.006l0.058,0.058l0.006,0.007l0.058,0.057l0.006,0.007l0.058,0.058l0.006,0.006
		l0.058,0.059l0.006,0.006l0.058,0.058l0.006,0.007l0.058,0.057l0.006,0.004l0.061,0.058l0.006,0.007l0.061,0.057l0.006,0.007
		l0.058,0.058l0.006,0.006l0.058,0.059l0.006,0.006l0.06,0.058l0.006,0.007l0.061,0.054l0.006,0.007l0.059,0.058l0.01,0.007
		l0.061,0.054l0.007,0.003l0.061,0.058l0.006,0.007l0.061,0.055l0.006,0.006l0.061,0.055l0.006,0.006l0.061,0.055l0.006,0.006
		l0.061,0.055l0.006,0.007l0.061,0.054l0.006,0.007L8.947,358l0.006,0.006l0.062,0.051l0.007,0.004l0.064,0.055l0.006,0.006
		l0.064,0.051l0.006,0.007l0.064,0.055l0.006,0.007l0.062,0.051l0.006,0.006l0.064,0.051l0.006,0.004l0.064,0.055l0.006,0.006
		l0.064,0.051l0.006,0.007l0.064,0.052l0.006,0.006l0.064,0.051l0.006,0.007l0.064,0.052l0.006,0.006l0.064,0.051l0.007,0.007
		l0.064,0.052l0.006,0.003l0.064,0.052l0.006,0.006L10,358.863l0.008,0.007l0.067,0.051l0.008,0.007l0.067,0.048l0.006,0.007
		l0.067,0.051l0.006,0.006l0.067,0.049l0.009,0.003l0.066,0.048l0.007,0.006l0.066,0.049l0.006,0.006l0.067,0.049l0.006,0.003
		l0.067,0.048l0.008,0.006l0.067,0.049l0.008,0.006l0.067,0.049l0.006,0.006l0.069,0.048l0.01,0.007l0.067,0.047l0.006,0.007
		l0.071,0.048l0.006,0.007l0.07,0.048l0.006,0.006l0.07,0.045l0.006,0.007l0.07,0.048l0.01,0.007l0.07,0.048l0.009,0.006l0.07,0.045
		l0.006,0.007l0.07,0.045l0.01,0.007l0.07,0.044h-0.017l0.071,0.045l0.006,0.007l0.07,0.045l0.01,0.006l0.07,0.041l0.009,0.004
		l0.071,0.045l0.006,0.006l0.07,0.045l0.006,0.007l0.07,0.044l0.006,0.004l0.07,0.045l0.01,0.003l0.074,0.042l0.01,0.003l0.07,0.042
		l0.006,0.003l0.07,0.042l0.003,0.003l33.536,19.574l0.003,0.003l0.058,0.035l0.009,0.004l0.058,0.035l0.01,0.003l0.061,0.035
		l0.009,0.003l0.061,0.032l0.009,0.003l0.061,0.032l0.01,0.003l0.061,0.032l0.01,0.007l0.061,0.035l0.006,0.003l0.061,0.032
		l0.01,0.006l0.061,0.032l0.006,0.003l0.061,0.032l0.006,0.003l0.061,0.032l0.01,0.007l0.061,0.031l0.006,0.004l0.061,0.031
		l0.01,0.004l0.061,0.031l0.007,0.004l0.064,0.031l0.009,0.004l0.061,0.031l0.006,0.007l0.064,0.028l0.01,0.004l0.061,0.029
		l0.006,0.006l0.064,0.032l0.006,0.007l0.064,0.028l0.007,0.003l0.061,0.029l0.006,0.003l0.061,0.028l0.006,0.007l0.061,0.028
		l0.01,0.004l0.064,0.028l0.01,0.003l0.061,0.029l0.01,0.003l0.064,0.026l0.006,0.002l0.064,0.029l0.006,0.004l0.064,0.028
		l0.006,0.003l0.061,0.029l0.01,0.003l0.064,0.028l0.006,0.004l0.064,0.025l0.01,0.004l0.064,0.025l0.009,0.003l0.064,0.025
		l0.01,0.003l0.064,0.025l0.01,0.004l0.064,0.025l0.006,0.003l0.064,0.026l0.006,0.003l0.064,0.025l0.01,0.003l0.064,0.025
		l0.006,0.004l0.064,0.025l0.01,0.003l0.064,0.026l0.006,0.002l0.064,0.026l0.01,0.003l0.064,0.025l0.009,0.004l0.064,0.025
		l0.007,0.003l0.064,0.022l0.006,0.004l0.064,0.021l0.006,0.004l0.064,0.021l0.01,0.004l0.064,0.022l0.009,0.003l0.064,0.022
		l0.01,0.003l0.064,0.022l0.01,0.003l0.064,0.023l0.01,0.002l0.064,0.02h0.008l0.067,0.023l0.013,0.002l0.127,0.042l0.016,0.003
		l0.131,0.039l0.016,0.006l0.131,0.039l0.016,0.006l0.131,0.039l0.02,0.006l0.131,0.039l0.016,0.006l0.131,0.035l0.016,0.006
		l0.131,0.035l0.016,0.007l0.131,0.035l0.016,0.003l0.131,0.035l0.016,0.007l0.131,0.032l0.018,0.006l0.131,0.032l0.016,0.003
		l0.131,0.029l0.019,0.006l0.131,0.029l0.016,0.003l0.133,0.026l0.019,0.002l0.131,0.026l0.016,0.003l0.131,0.025l0.016,0.004
		l0.131,0.025l0.017,0.003l0.135,0.026h0.009l0.131,0.021l0.016,0.004l0.134,0.019l0.016,0.003l0.134,0.02l0.016,0.004l0.134,0.019
		l0.016,0.003l0.134,0.02l0.019,0.004l0.135,0.016h0.019l0.134,0.016l0.016,0.004l0.134,0.012h0.016l0.134,0.014l0.016,0.003
		l0.134,0.013l0.02,0.004l0.134,0.012l0.019,0.004l0.134,0.013l0.016,0.003l0.134,0.01h0.016l0.134,0.006l0.016,0.004l0.135,0.006
		h0.016l0.135,0.007l0.016,0.003l0.135,0.006h0.002l0.135,0.004h0.019l0.134,0.003l0.135,0.003h0.473l0.135-0.003h0.016l0.134-0.003
		h0.016l0.134-0.004h0.019l0.134-0.006h0.016l0.134-0.006h0.016l0.134-0.01l0.02-0.004l0.134-0.01h0.016l0.134-0.009h0.016
		l0.134-0.01l0.016-0.003l0.134-0.01h0.016l0.134-0.013l0.134-0.017l0.016-0.003l0.134-0.017l0.016-0.002l0.134-0.017l0.02-0.003
		l0.134-0.02l0.016-0.003l0.134-0.02l0.016-0.003l0.134-0.02l0.016-0.003l0.134-0.019l0.016-0.004l0.134-0.022l0.016-0.003
		l0.134-0.022l0.016-0.003l0.131-0.025l0.016-0.004l0.131-0.022l0.016-0.003l0.134-0.025l0.016-0.004l0.134-0.028l0.019-0.003
		l0.135-0.029l0.016-0.003l0.131-0.028l0.016-0.004l0.131-0.031l0.02-0.004l0.131-0.032l0.016-0.003l0.131-0.032l0.019-0.003
		l0.131-0.035l0.016-0.004l0.131-0.035l0.016-0.006l0.131-0.035l0.016-0.004l0.131-0.037l0.016-0.004l0.131-0.038l0.016-0.007
		l0.128-0.038l0.013-0.003l0.067-0.023l0.009-0.002l0.064-0.02l0.01-0.004l0.064-0.019l0.01-0.003l0.067-0.02l0.006-0.004
		l0.064-0.021l0.006-0.004l0.064-0.02l0.009-0.002l0.067-0.02l0.01-0.004l0.064-0.021l0.064-0.023l0.006-0.002l0.064-0.023
		l0.01-0.003l0.064-0.022l0.009-0.003l0.064-0.022l0.01-0.004l0.064-0.021l0.006-0.004l0.064-0.021l0.01-0.004l0.064-0.025
		l0.01-0.004l0.064-0.021l0.009-0.004l0.064-0.025l0.009-0.003l0.064-0.025l0.01-0.003l0.064-0.025l0.006-0.004l0.064-0.022
		l0.006-0.003l0.061-0.025l0.009-0.004l0.064-0.025l0.009-0.003l0.064-0.026l0.01-0.002l0.064-0.026l0.006-0.003l0.064-0.025
		l0.006-0.004l0.064-0.025l0.006-0.003l0.064-0.028l0.006-0.004l0.061-0.025l0.01-0.004l0.064-0.028l0.006-0.007l0.064-0.028
		l0.006-0.003l0.064-0.025l0.006-0.004l0.064-0.028l0.01-0.007l0.061-0.028l0.006-0.003l0.061-0.029l0.006-0.004l0.064-0.028
		l0.007-0.003l0.061-0.029l0.006-0.003l0.064-0.028l0.006-0.004l0.061-0.031l0.006-0.004l0.061-0.028l0.006-0.003l0.061-0.029
		l0.006-0.003l0.061-0.032l0.006-0.006l0.064-0.032l0.006-0.003l0.061-0.029l0.006-0.004l0.061-0.031l0.006-0.004l0.061-0.031
		l0.01-0.004l0.061-0.031l0.01-0.004l0.061-0.031l0.01-0.004l0.061-0.031l0.007-0.004l0.061-0.031l0.01-0.004l0.061-0.031
		l0.01-0.007l0.061-0.035l0.01-0.003l0.058-0.035h0.003l37.097-20.672l0.003-0.004l0.061-0.035l0.006-0.003l0.064-0.035l0.009-0.003
		l0.064-0.035l0.01-0.004l0.061-0.035l0.006-0.006l0.064-0.035l0.009-0.007l0.064-0.038l0.006-0.006l0.061-0.036l0.01-0.003
		l0.061-0.035l0.006-0.006l0.064-0.039l0.009-0.006l0.061-0.039l0.009-0.006l0.061-0.039l0.01-0.003l0.061-0.038l0.006-0.007
		l0.061-0.038l0.009-0.004l0.061-0.038l0.006-0.003l0.061-0.039l0.007-0.006l0.061-0.038l0.006-0.007l0.061-0.038l0.009-0.003
		l0.061-0.039l0.006-0.003l0.061-0.038l0.009-0.007l0.058-0.042l0.006-0.006l0.061-0.041l0.006-0.007l0.061-0.038l0.006-0.007
		l0.061-0.042l0.006-0.006l0.061-0.042l0.009-0.003l0.061-0.041l0.006-0.004l0.058-0.041l0.01-0.007l0.057-0.042l0.007-0.006
		l0.058-0.042l0.006-0.007l0.058-0.041l0.006-0.006l0.058-0.042l0.009-0.003l0.058-0.042l0.006-0.003l0.058-0.042l0.006-0.003
		l0.058-0.042l0.007-0.003l0.057-0.045l0.007-0.006l0.058-0.045l0.006-0.007l0.058-0.045l0.006-0.007l0.058-0.044l0.006-0.007
		l0.054-0.041l0.006-0.007l0.058-0.045l0.006-0.007l0.055-0.044l0.006-0.007l0.054-0.045l0.006-0.006l0.055-0.045l0.009-0.006
		l0.055-0.045l0.006-0.007l0.054-0.045l0.006-0.003l0.058-0.045l0.007-0.006l0.054-0.045l0.006-0.007l0.054-0.048l0.007-0.007
		l0.054-0.048l0.006-0.006l0.055-0.049l0.006-0.006l0.054-0.045l0.01-0.006l0.054-0.045l0.006-0.007l0.055-0.048l0.006-0.004
		l0.054-0.047l0.006-0.007l0.055-0.048l0.006-0.007l0.051-0.048l0.006-0.004l0.054-0.047l0.006-0.007l0.051-0.048l0.006-0.006
		l0.051-0.049l0.006-0.006l0.051-0.049l0.006-0.006l0.051-0.048l0.006-0.007l0.051-0.048l0.006-0.007l0.051-0.047l0.006-0.007
		l0.051-0.052l0.006-0.006l0.051-0.049l0.006-0.006l0.051-0.051l0.009-0.007l0.051-0.052l0.006-0.006l0.048-0.048l0.006-0.007
		l0.048-0.051l0.006-0.006l0.051-0.052l0.006-0.007l0.048-0.051l0.007-0.006l0.048-0.052l0.006-0.007l0.048-0.051l0.006-0.006
		l0.048-0.052l0.006-0.007l0.048-0.051l0.006-0.006l0.048-0.052l0.007-0.007l0.048-0.051l0.006-0.006l0.048-0.052l0.006-0.007
		l0.045-0.054l0.006-0.007l0.048-0.055l0.006-0.006l0.044-0.055l0.006-0.006l0.048-0.055l0.006-0.006l0.045-0.052l0.006-0.007
		l0.045-0.054l0.006-0.007l0.044-0.055l0.006-0.006l0.045-0.055l0.006-0.006l0.045-0.055l0.006-0.006l0.048-0.055l0.007-0.006
		l0.044-0.055l0.003-0.007l0.045-0.054l0.006-0.007l0.045-0.055l0.006-0.007l0.044-0.054l0.006-0.007l0.045-0.055l0.006-0.006
		l0.045-0.055l0.003-0.006l0.044-0.055l0.007-0.006l0.044-0.055l0.006-0.007l0.045-0.058l0.006-0.006l0.042-0.058l0.003-0.007
		l0.042-0.055l0.006-0.006l0.045-0.055l0.003-0.006l0.042-0.055l0.006-0.006l0.042-0.055l0.003-0.007l0.042-0.058l0.006-0.006
		l0.042-0.059l0.006-0.006l0.042-0.058l0.007-0.007l0.042-0.057l0.006-0.007l0.039-0.058l0.006-0.01l0.042-0.058l0.003-0.007
		l0.039-0.057l0.006-0.007l0.042-0.058l0.006-0.006l0.039-0.059l0.006-0.006l0.039-0.058l0.003-0.007l0.042-0.057l0.003-0.007
		l0.039-0.058l0.003-0.006l0.042-0.059l0.006-0.006l0.038-0.058l0.003-0.007l0.038-0.061l0.003-0.006l0.039-0.059l0.006-0.006
		l0.038-0.058l0.007-0.009l0.038-0.062l0.003-0.007l0.038-0.057l0.006-0.007l0.039-0.058l0.003-0.01l0.038-0.061l0.006-0.006
		l0.035-0.059l0.003-0.01l0.035-0.057l0.003-0.007l0.038-0.061l0.003-0.01l0.035-0.062l0.003-0.006l0.035-0.061l0.006-0.006
		l0.035-0.062l0.006-0.007l0.035-0.061l0.003-0.01l0.035-0.061l0.003-0.006l0.035-0.061l0.003-0.01l0.035-0.062l0.003-0.007
		l0.036-0.061l0.003-0.006l0.035-0.061l0.003-0.007l0.035-0.061l0.003-0.007l0.035-0.061l0.007-0.006l0.035-0.062l0.003-0.009
		l0.032-0.064l0.003-0.01l0.032-0.064l0.003-0.006l0.032-0.061l0.006-0.01l0.032-0.064l0.003-0.01l0.032-0.063l0.003-0.01
		l0.032-0.063l0.003-0.007l0.032-0.062l0.003-0.006l0.032-0.064l0.003-0.009l0.032-0.064l0.003-0.007l0.029-0.063l0.003-0.009
		l0.032-0.062l0.003-0.007l0.029-0.063l0.003-0.01l0.032-0.061l0.003-0.007l0.032-0.063l0.003-0.007l0.029-0.064l0.003-0.006
		l0.029-0.064l0.003-0.006l0.029-0.064l0.003-0.006l0.029-0.064l0.003-0.01l0.029-0.063l0.003-0.007l0.029-0.063l0.003-0.01
		l0.029-0.063l0.003-0.01l0.029-0.064l0.003-0.01l0.026-0.063l0.003-0.01l0.029-0.067l0.003-0.01l0.029-0.063l0.003-0.007
		l0.026-0.063l0.003-0.01l0.026-0.063l0.003-0.01l0.026-0.064l0.003-0.01l0.026-0.064l0.003-0.009l0.026-0.063l0.003-0.01
		l0.026-0.064l0.003-0.01l0.026-0.066l0.003-0.01l0.022-0.068l0.003-0.009l0.022-0.063l0.003-0.01l0.022-0.064l0.003-0.01
		l0.025-0.064l0.003-0.01l0.022-0.066l0.003-0.01l0.022-0.067l0.003-0.007l0.022-0.066l0.003-0.01l0.022-0.067l0.003-0.009
		l0.022-0.068l0.003-0.006l0.022-0.067l0.003-0.009l0.022-0.068l0.003-0.009l0.022-0.067l0.003-0.01l0.022-0.066l0.003-0.01
		l0.022-0.068l0.003-0.006l0.019-0.066l0.003-0.01l0.019-0.068l0.003-0.006l0.019-0.066l0.003-0.01l0.022-0.068l0.003-0.009
		l0.019-0.067l0.003-0.006l0.019-0.068l0.003-0.006l0.019-0.07l0.003-0.01l0.019-0.066l0.003-0.01l0.019-0.067v-0.01l0.019-0.067
		l0.003-0.01l0.019-0.07v-0.01l0.019-0.066l0.003-0.01l0.016-0.067l0.003-0.01l0.02-0.067l0.003-0.01l0.016-0.066l0.003-0.007
		l0.016-0.067l0.003-0.006l0.016-0.067l0.003-0.01l0.016-0.067l0.003-0.01l0.016-0.066v-0.01l0.016-0.067v-0.007l0.016-0.066
		l0.003-0.007l0.013-0.07v-0.007l0.016-0.07v-0.01l0.013-0.066v-0.007l0.016-0.07v-0.007l0.016-0.07l0.003-0.01l0.013-0.07
		l0.003-0.01l0.013-0.066l0.003-0.01l0.013-0.067v-0.009l0.013-0.07v-0.007l0.013-0.071v-0.006l0.013-0.07v-0.006l0.01-0.07
		l0.003-0.01l0.01-0.07l0.003-0.01l0.013-0.07v-0.007l0.009-0.07v-0.007l0.013-0.07l0.003-0.01l0.01-0.07l0.003-0.01l0.01-0.07
		v-0.01l0.01-0.07v-0.01l0.009-0.07l0.003-0.009l0.01-0.071l0.003-0.009l0.01-0.073l0.003-0.01l0.01-0.07v-0.01l0.01-0.07v-0.007
		l0.009-0.07v-0.01l0.01-0.07l0.003-0.01l0.007-0.07v-0.009l0.006-0.071l0.003-0.009l0.006-0.074l0.003-0.006l0.006-0.07v-0.01
		l0.006-0.07v-0.01l0.006-0.07v-0.01l0.006-0.07v-0.01l0.003-0.07v-0.01l0.006-0.07v-0.01l0.006-0.074v-0.006l0.006-0.074v-0.009
		l0.003-0.073v-0.007l0.003-0.07v-0.01l0.003-0.07l0.003-0.01l0.003-0.07v-0.01l0.003-0.07v-0.007l0.003-0.07v-0.01l0.003-0.073
		v-0.007l0.003-0.07v-0.009l0.003-0.073v-0.094l0.003-0.073v-44.672L111.481,298.361z M102.915,343.113l-0.003,0.045v0.09
		l-0.003,0.045l-0.003,0.045l-0.003,0.045l-0.003,0.045l-0.003,0.045l-0.003,0.045l-0.003,0.045l-0.003,0.045l-0.003,0.044
		l-0.003,0.045l-0.003,0.045l-0.006,0.045l-0.003,0.045l-0.003,0.044l-0.003,0.045l-0.003,0.045l-0.006,0.045l-0.006,0.042
		l-0.006,0.045l-0.003,0.044l-0.006,0.042l-0.003,0.045l-0.006,0.045l-0.006,0.045l-0.006,0.045l-0.006,0.044l-0.006,0.045
		l-0.006,0.045l-0.006,0.045l-0.01,0.042l-0.006,0.042l-0.01,0.045l-0.006,0.044l-0.01,0.045l-0.009,0.042l-0.01,0.045l-0.01,0.045
		l-0.009,0.041l-0.006,0.045l-0.01,0.041l-0.01,0.045l-0.006,0.045l-0.009,0.042l-0.01,0.042l-0.01,0.045l-0.009,0.041l-0.01,0.041
		l-0.01,0.042l-0.013,0.042l-0.01,0.045l-0.009,0.041l-0.013,0.042l-0.01,0.045l-0.01,0.042l-0.013,0.041l-0.013,0.041l-0.013,0.042
		l-0.013,0.042l-0.009,0.041l-0.013,0.042l-0.013,0.042l-0.013,0.041l-0.013,0.042l-0.016,0.042l-0.013,0.041l-0.013,0.041
		l-0.016,0.042l-0.013,0.042l-0.016,0.041l-0.016,0.042l-0.016,0.042l-0.016,0.041l-0.013,0.042l-0.013,0.042l-0.013,0.041
		l-0.013,0.041l-0.016,0.042l-0.016,0.042l-0.016,0.041l-0.016,0.042l-0.016,0.042l-0.016,0.038l-0.016,0.042l-0.016,0.041
		l-0.016,0.041l-0.016,0.039l-0.016,0.041l-0.016,0.042l-0.016,0.042l-0.016,0.038l-0.019,0.038l-0.02,0.042l-0.019,0.042
		l-0.019,0.041l-0.02,0.039l-0.019,0.038l-0.019,0.042l-0.02,0.038l-0.019,0.038l-0.019,0.041l-0.019,0.039l-0.02,0.039
		l-0.019,0.037l-0.022,0.039l-0.022,0.039l-0.019,0.037l-0.019,0.042l-0.02,0.038l-0.019,0.039l-0.022,0.038l-0.022,0.038
		l-0.019,0.039l-0.022,0.038l-0.022,0.038l-0.019,0.039l-0.02,0.038l-0.022,0.038l-0.022,0.039l-0.022,0.038l-0.022,0.035
		l-0.022,0.038l-0.022,0.039l-0.022,0.035l-0.022,0.038l-0.022,0.038l-0.022,0.039l-0.022,0.038l-0.022,0.035l-0.026,0.035
		l-0.025,0.038l-0.022,0.035l-0.022,0.035l-0.025,0.035l-0.026,0.039l-0.022,0.038l-0.022,0.036l-0.026,0.035l-0.025,0.035
		l-0.026,0.035l-0.025,0.035l-0.025,0.035l-0.026,0.035l-0.025,0.035l-0.026,0.035l-0.025,0.035l-0.026,0.035l-0.025,0.035
		l-0.025,0.035l-0.029,0.035l-0.026,0.031l-0.025,0.035l-0.026,0.035l-0.025,0.033l-0.029,0.035l-0.029,0.031l-0.029,0.035
		l-0.029,0.032l-0.029,0.032l-0.029,0.031l-0.029,0.035l-0.029,0.035l-0.029,0.035l-0.029,0.033l-0.029,0.031l-0.029,0.032
		l-0.029,0.032l-0.029,0.031l-0.029,0.033l-0.029,0.031l-0.032,0.032l-0.029,0.032l-0.029,0.031l-0.029,0.032L100,350.145
		l-0.032,0.031l-0.032,0.033l-0.032,0.031l-0.029,0.032l-0.032,0.032l-0.029,0.031l-0.032,0.033L99.75,350.4l-0.032,0.032
		l-0.032,0.032l-0.032,0.028l-0.032,0.032l-0.032,0.029l-0.032,0.031l-0.032,0.032l-0.032,0.028l-0.032,0.032l-0.035,0.028
		l-0.032,0.033l-0.032,0.028l-0.032,0.028l-0.035,0.029l-0.032,0.029l-0.035,0.031l-0.035,0.029l-0.032,0.025l-0.035,0.029
		l-0.035,0.028l-0.032,0.028l-0.035,0.029l-0.035,0.025l-0.035,0.025l-0.035,0.029l-0.035,0.028l-0.035,0.028l-0.036,0.026
		l-0.035,0.028l-0.035,0.025l-0.035,0.029l-0.038,0.025l-0.036,0.025l-0.035,0.026l-0.035,0.025l-0.035,0.025l-0.035,0.026
		l-0.038,0.025l-0.036,0.025l-0.038,0.025l-0.035,0.025l-0.035,0.025l-0.035,0.025l-0.036,0.026l-0.035,0.025l-0.038,0.022
		l-0.039,0.025l-0.039,0.022l-0.038,0.026l-0.039,0.025l-0.038,0.021l-0.039,0.023l-0.039,0.021l-0.038,0.025l-0.039,0.026
		l-0.039,0.022l-0.038,0.021l-0.039,0.023l-0.042,0.021l-0.039,0.026l-0.038,0.022l-0.039,0.021l-0.039,0.023l-0.042,0.021
		l-0.045,0.023l-37.11,20.682l-0.042,0.021l-0.039,0.02l-0.038,0.02l-0.035,0.02l-0.039,0.019l-0.039,0.019l-0.038,0.02l-0.039,0.02
		l-0.038,0.02l-0.039,0.02l-0.039,0.019l-0.038,0.019l-0.036,0.02l-0.038,0.02l-0.039,0.02l-0.038,0.02l-0.039,0.016l-0.039,0.02
		l-0.038,0.019l-0.039,0.017l-0.039,0.019l-0.038,0.019l-0.039,0.017l-0.039,0.017l-0.038,0.016l-0.039,0.016l-0.038,0.016
		l-0.039,0.017l-0.039,0.017l-0.038,0.016l-0.039,0.016l-0.039,0.016l-0.038,0.014l-0.042,0.016l-0.038,0.013l-0.039,0.013
		l-0.038,0.014l-0.039,0.016l-0.042,0.013l-0.039,0.013l-0.042,0.016l-0.039,0.014l-0.038,0.012l-0.042,0.014l-0.038,0.012
		l-0.039,0.014l-0.042,0.013l-0.039,0.013l-0.042,0.013l-0.039,0.013l-0.038,0.014l-0.039,0.012l-0.083,0.025l-0.08,0.023
		l-0.08,0.021l-0.08,0.023l-0.08,0.021l-0.08,0.02l-0.08,0.02l-0.08,0.02l-0.08,0.019l-0.08,0.017l-0.08,0.019l-0.08,0.017
		l-0.083,0.016l-0.08,0.013l-0.08,0.017l-0.08,0.012l-0.083,0.014l-0.08,0.012l-0.083,0.014l-0.08,0.013l-0.083,0.01l-0.08,0.009
		l-0.083,0.01l-0.083,0.01l-0.08,0.007l-0.083,0.007l-0.083,0.006l-0.083,0.006l-0.083,0.004l-0.083,0.006l-0.083,0.007
		l-0.083,0.003l-0.083,0.004h-0.083l-0.083,0.002h-0.409l-0.083-0.002l-0.08-0.004l-0.08-0.003l-0.08-0.007l-0.083-0.006
		l-0.083-0.007l-0.08-0.007l-0.083-0.006l-0.08-0.006l-0.083-0.007l-0.083-0.01l-0.083-0.009l-0.083-0.01L53.891,374l-0.083-0.012
		l-0.08-0.014l-0.08-0.013l-0.08-0.017l-0.08-0.012l-0.08-0.017l-0.08-0.016l-0.08-0.017l-0.08-0.019l-0.08-0.017l-0.08-0.019
		l-0.08-0.02l-0.08-0.019l-0.08-0.023l-0.08-0.021l-0.08-0.023l-0.08-0.021l-0.08-0.023l-0.08-0.021l-0.08-0.022l-0.08-0.026
		l-0.083-0.025l-0.035-0.012l-0.039-0.014l-0.042-0.013l-0.039-0.013l-0.038-0.013l-0.039-0.017l-0.039-0.012l-0.038-0.017
		l-0.039-0.017l-0.039-0.016l-0.038-0.016l-0.042-0.016l-0.039-0.014l-0.039-0.016l-0.038-0.016l-0.039-0.017l-0.039-0.016
		l-0.038-0.017l-0.039-0.016l-0.039-0.016l-0.038-0.016l-0.039-0.017l-0.038-0.019L51.2,373.22l-0.039-0.02l-0.038-0.019
		l-0.039-0.017l-0.039-0.016l-0.038-0.017l-0.039-0.019l-0.039-0.017l-0.038-0.019l-0.039-0.02l-0.035-0.019l-0.039-0.02
		l-0.038-0.02l-0.039-0.02l-0.039-0.019l-0.038-0.02l-0.039-0.019l-0.038-0.02l-0.039-0.02l-0.039-0.022l-0.038-0.019l-0.039-0.02
		l-0.039-0.02l-0.035-0.021l-0.038-0.02l-0.039-0.02l-0.039-0.02l-0.035-0.02l-0.042-0.025l-33.498-19.584l-0.054-0.031
		l-0.048-0.029l-0.048-0.029l-0.051-0.028l-0.048-0.028l-0.048-0.029l-0.048-0.029l-0.048-0.028l-0.048-0.028l-0.045-0.029
		l-0.048-0.031l-0.048-0.033l-0.045-0.031l-0.048-0.032l-0.048-0.028l-0.048-0.032l-0.045-0.032l-0.045-0.031l-0.045-0.033
		l-0.044-0.031l-0.045-0.032l-0.045-0.032l-0.048-0.031l-0.045-0.032l-0.045-0.032l-0.045-0.035l-0.044-0.035l-0.045-0.032
		l-0.045-0.035l-0.042-0.032l-0.045-0.035l-0.044-0.035l-0.045-0.035l-0.042-0.035l-0.045-0.031l-0.042-0.035l-0.045-0.035
		l-0.042-0.036l-0.042-0.035l-0.045-0.035l-0.045-0.035l-0.045-0.035l-0.042-0.035l-0.042-0.038l-0.042-0.039l-0.042-0.035
		l-0.042-0.035l-0.042-0.038l-0.042-0.038l-0.042-0.035l-0.042-0.035l-0.042-0.039l-0.038-0.038l-0.039-0.038l-0.042-0.039
		l-0.039-0.038l-0.038-0.038l-0.042-0.039l-0.038-0.038l-0.039-0.038l-0.039-0.039l-0.038-0.038l-0.039-0.038l-0.039-0.042
		l-0.038-0.038l-0.039-0.039l-0.038-0.038l-0.039-0.038l-0.039-0.041l-0.035-0.043l-0.038-0.041l-0.039-0.038l-0.039-0.042
		l-0.038-0.038l-0.036-0.042l-0.038-0.041l-0.039-0.042l-0.035-0.042l-0.035-0.041l-0.035-0.042l-0.035-0.042l-0.035-0.041
		l-0.035-0.041l-0.035-0.042l-0.036-0.042l-0.035-0.041l-0.035-0.042l-0.035-0.042l-0.035-0.045l-0.035-0.041l-0.035-0.045
		l-0.035-0.041l-0.035-0.042l-0.032-0.045l-0.032-0.045l-0.032-0.045l-0.032-0.044l-0.035-0.045l-0.036-0.045l-0.032-0.045
		l-0.032-0.045l-0.032-0.045l-0.032-0.045l-0.032-0.045l-0.032-0.045l-0.032-0.045l-0.032-0.047l-0.032-0.045l-0.032-0.045
		l-0.029-0.045l-0.029-0.045l-0.029-0.049l-0.029-0.044l-0.032-0.045l-0.029-0.048l-0.029-0.049l-0.029-0.045l-0.029-0.044
		l-0.029-0.045l-0.029-0.045l-0.029-0.048l-0.029-0.048l-0.029-0.045l-0.029-0.048l-0.029-0.045l-0.026-0.049l-0.029-0.047
		l-0.025-0.049l-0.025-0.048l-0.026-0.048l-0.029-0.048l-0.029-0.048l-0.025-0.049l-0.026-0.047l-0.025-0.049l-0.029-0.048
		l-0.026-0.048l-0.025-0.048l-0.025-0.048l-0.026-0.049l-0.025-0.047l-0.026-0.049l-0.025-0.051l-0.026-0.049l-0.025-0.051
		l-0.022-0.048l-0.022-0.052l-0.022-0.051l-0.022-0.051l-0.022-0.051l-0.022-0.052l-0.022-0.052l-0.022-0.051l-0.022-0.051
		l-0.022-0.052l-0.022-0.051l-0.022-0.052l-0.02-0.051l-0.019-0.051l-0.019-0.052l-0.02-0.052l-0.019-0.051l-0.022-0.051
		l-0.022-0.051l-0.019-0.052l-0.019-0.052l-0.02-0.051l-0.019-0.051l-0.019-0.052l-0.02-0.051l-0.019-0.052l-0.019-0.051
		l-0.02-0.051l-0.019-0.055l-0.016-0.051l-0.019-0.052l-0.019-0.052l-0.02-0.051l-0.019-0.051l-0.016-0.055l-0.016-0.051
		l-0.016-0.055l-0.016-0.055l-0.016-0.051l-0.016-0.055l-0.016-0.055l-0.013-0.051l-0.016-0.055l-0.013-0.051l-0.013-0.055
		l-0.013-0.051l-0.016-0.055l-0.013-0.055l-0.013-0.055l-0.013-0.055l-0.016-0.051l-0.013-0.051l-0.013-0.055l-0.013-0.055
		l-0.013-0.055l-0.013-0.054l-0.013-0.054l-0.013-0.055l-0.013-0.055l-0.01-0.055l-0.013-0.055l-0.013-0.054l-0.01-0.055
		l-0.009-0.054l-0.01-0.055l-0.013-0.055l-0.01-0.055l-0.01-0.055l-0.009-0.054l-0.01-0.055l-0.01-0.058l-0.009-0.055l-0.01-0.055
		l-0.01-0.054l-0.009-0.055l-0.006-0.058l-0.006-0.055l-0.007-0.057l-0.006-0.059l-0.006-0.054l-0.006-0.055l-0.006-0.058
		l-0.006-0.055l-0.006-0.054l-0.006-0.055l-0.006-0.054l-0.003-0.059l-0.006-0.055l-0.006-0.057l-0.006-0.055l-0.003-0.058
		l-0.003-0.058l-0.003-0.058l-0.006-0.058l-0.003-0.058l-0.003-0.058l-0.003-0.058l-0.003-0.058l-0.003-0.058l-0.003-0.058
		l-0.003-0.058l-0.003-0.058l-0.003-0.055v-0.172l-0.003-0.059v-40.575l0.003-0.058v-0.058l0.003-0.058l0.003-0.058v-0.058
		l0.003-0.058l0.003-0.058l0.003-0.058l0.003-0.058l0.003-0.058l0.003-0.058l0.003-0.058l0.003-0.058l0.003-0.058l0.003-0.058
		l0.006-0.058l0.006-0.058l0.003-0.058l0.006-0.058l0.007-0.058l0.006-0.054l0.006-0.058l0.006-0.058l0.006-0.058l0.006-0.058
		l0.006-0.058l0.006-0.058l0.01-0.054l0.01-0.058l0.006-0.055l0.006-0.058l0.006-0.058l0.01-0.058l0.009-0.054l0.01-0.054
		l0.01-0.055l0.009-0.058l0.01-0.058l0.01-0.054l0.009-0.054l0.01-0.058l0.01-0.058l0.009-0.058l0.01-0.058l0.01-0.055l0.013-0.054
		l0.009-0.055l0.013-0.054l0.013-0.054l0.013-0.055l0.013-0.054l0.013-0.055l0.013-0.054l0.013-0.058l0.013-0.054l0.013-0.055
		l0.016-0.054l0.013-0.055l0.016-0.054l0.013-0.054l0.013-0.055l0.016-0.054l0.016-0.055l0.016-0.054l0.016-0.054l0.016-0.055
		l0.016-0.051l0.016-0.054l0.019-0.055l0.016-0.054l0.016-0.051l0.016-0.051l0.019-0.054l0.016-0.055l0.016-0.051l0.016-0.055
		l0.019-0.054l0.02-0.051l0.016-0.055l0.019-0.054l0.019-0.054l0.02-0.055l0.019-0.051l0.019-0.054l0.019-0.051l0.02-0.054
		l0.019-0.051l0.022-0.051l0.022-0.054l0.019-0.051l0.022-0.051l0.022-0.051l0.022-0.051l0.022-0.054l0.022-0.051l0.019-0.051
		l0.022-0.051l0.022-0.051l0.022-0.051l0.022-0.051l0.022-0.051l0.022-0.051l0.022-0.051l0.022-0.051l0.022-0.051l0.025-0.051
		l0.026-0.051l0.025-0.051l0.026-0.051l0.025-0.051l0.022-0.048l0.025-0.051l0.026-0.048l0.025-0.051l0.026-0.048l0.025-0.048
		l0.025-0.051l0.026-0.051l0.025-0.051l0.026-0.048l0.029-0.051l0.029-0.048l0.029-0.048l0.029-0.051l0.029-0.048l0.029-0.048
		l0.029-0.048l0.029-0.048l0.029-0.048l0.029-0.048l0.028-0.048l0.029-0.048l0.029-0.048l0.029-0.048l0.032-0.048l0.032-0.048
		l0.029-0.048l0.028-0.048l0.029-0.048l0.029-0.048l0.029-0.045l0.029-0.048l0.032-0.048l0.032-0.045l0.032-0.048l0.029-0.048
		l0.032-0.045l0.032-0.044l0.032-0.045l0.032-0.045l0.032-0.048l0.032-0.045l0.032-0.045l0.032-0.048l0.032-0.045l0.032-0.044
		l0.032-0.045l0.035-0.045l0.035-0.045l0.035-0.044l0.035-0.045l0.032-0.045l0.035-0.045l0.035-0.044l0.035-0.045l0.035-0.045
		l0.035-0.045l0.035-0.044l0.035-0.042l0.036-0.044l0.038-0.042l0.035-0.042l0.039-0.044l0.035-0.042l0.035-0.042l0.039-0.042
		l0.038-0.045l0.039-0.042l0.039-0.042l0.038-0.042l0.035-0.042l0.039-0.042l0.039-0.042l0.038-0.042l0.039-0.039l0.042-0.042
		l0.039-0.042l0.038-0.042l0.039-0.039l0.039-0.042L14,291.251l0.039-0.042l0.042-0.039l0.039-0.042l0.042-0.039l0.039-0.038
		l0.042-0.039l0.042-0.038l0.042-0.039l0.042-0.039l0.042-0.038l0.042-0.039l0.042-0.039l0.042-0.038l0.042-0.039l0.042-0.039
		l0.042-0.038l0.042-0.035l0.042-0.035l0.042-0.039l0.042-0.039l0.042-0.035l0.042-0.035l0.045-0.035l0.042-0.035l0.045-0.035
		l0.044-0.035l0.042-0.035l0.044-0.035l0.045-0.036l0.042-0.035l0.045-0.035l0.045-0.035l0.045-0.035l0.044-0.035l0.045-0.035
		l0.045-0.035l0.045-0.032l0.044-0.035l0.045-0.032l0.045-0.032l0.045-0.032l0.044-0.032l0.045-0.032l0.045-0.032l0.048-0.032
		l0.045-0.032l0.045-0.032l0.048-0.035l0.048-0.032l0.048-0.032l0.048-0.032l0.048-0.032l0.048-0.032l0.048-0.032l0.048-0.032
		l0.048-0.032l0.048-0.032l0.048-0.032l0.051-0.032l0.054-0.035l32.128-19.801l0.051-0.032l0.048-0.029l0.048-0.029l0.045-0.029
		l0.048-0.029l0.045-0.025l0.048-0.029l0.048-0.029l0.048-0.029l0.044-0.026l0.048-0.025l0.044-0.026l0.048-0.028l0.048-0.026
		l0.048-0.025l0.048-0.026l0.048-0.025l0.048-0.026l0.048-0.022l0.048-0.025l0.048-0.022l0.048-0.025l0.048-0.026l0.048-0.022
		l0.048-0.022l0.051-0.022l0.048-0.022l0.048-0.022l0.048-0.022l0.051-0.022l0.048-0.022l0.051-0.022l0.048-0.022l0.048-0.022
		l0.048-0.022l0.051-0.022l0.048-0.019l0.048-0.022l0.051-0.02l0.051-0.019l0.051-0.019l0.051-0.022l0.048-0.019l0.048-0.02
		l0.051-0.019l0.048-0.019l0.051-0.02l0.051-0.019l0.051-0.019l0.048-0.016l0.051-0.016l0.051-0.016l0.051-0.019l0.051-0.016
		l0.051-0.016l0.051-0.019l0.051-0.016l0.048-0.016l0.051-0.016l0.051-0.016l0.051-0.016l0.051-0.016l0.051-0.016l0.048-0.016
		l0.051-0.016l0.051-0.013l0.051-0.016l0.051-0.013l0.051-0.013l0.051-0.013l0.051-0.013l0.051-0.013l0.051-0.013l0.051-0.013
		l0.051-0.013l0.051-0.013l0.051-0.013l0.051-0.01l0.051-0.009l0.051-0.013l0.051-0.013l0.051-0.013l0.051-0.009l0.051-0.01
		l0.051-0.01l0.055-0.01l0.051-0.009l0.054-0.01l0.051-0.006l0.051-0.01l0.051-0.009l0.051-0.01l0.051-0.01l0.051-0.009l0.051-0.01
		l0.055-0.01l0.051-0.006l0.051-0.009l0.055-0.006l0.051-0.006l0.051-0.007l0.051-0.006l0.051-0.006l0.055-0.006l0.051-0.006
		l0.051-0.006l0.055-0.006l0.051-0.006l0.054-0.006l0.054-0.007l0.055-0.006l0.051-0.006l0.054-0.006l0.054-0.006l0.051-0.003
		l0.055-0.003l0.051-0.003l0.051-0.003l0.051-0.003l0.055-0.003l0.051-0.003l0.054-0.003l0.054-0.003l0.055-0.003l0.054-0.001
		l0.055-0.001l0.054-0.001h0.052l0.052,0h0.053l0.051-0.021h0.103l0.051,0.003h0.105l0.051,0.003l0.048,0.003l0.051,0.003
		l0.051,0.003h0.054l0.051,0.003l0.051,0.003h0.051l0.051,0.003l0.051,0.003l0.054,0.003l0.055,0.003l0.051,0.003l0.051,0.003
		l0.051,0.003l0.051,0.003l0.051,0.003l0.051,0.006l0.051,0.006l0.051,0.003l0.055,0.006l0.051,0.006l0.051,0.007l0.051,0.006
		l0.051,0.006l0.051,0.006l0.051,0.01l0.051,0.006l0.054,0.009l0.051,0.006l0.051,0.01l0.051,0.01l0.051,0.006l0.051,0.006
		l0.051,0.006l0.051,0.006l0.055,0.01l0.051,0.01l0.051,0.009l0.051,0.01l0.051,0.01l0.051,0.009l0.051,0.01l0.051,0.013l0.051,0.01
		l0.051,0.009l0.051,0.013l0.051,0.009l0.051,0.013l0.051,0.013l0.051,0.013l0.051,0.01l0.051,0.013l0.051,0.013l0.051,0.016
		l0.051,0.013l0.051,0.013l0.051,0.013l0.051,0.016l0.051,0.013l0.051,0.016l0.051,0.013l0.051,0.016l0.051,0.016l0.051,0.016
		l0.048,0.016l0.051,0.016l0.051,0.016l0.051,0.016l0.048,0.016l0.051,0.016l0.051,0.016l0.048,0.016l0.051,0.016l0.051,0.019
		l0.048,0.016l0.048,0.016l0.048,0.02l0.051,0.019l0.051,0.019l0.05,0.02l0.05,0.019l0.049,0.019l0.051,0.02l0.051,0.022
		l0.051,0.019l0.049,0.022l0.051,0.019l0.048,0.019l0.049,0.02l0.048,0.022l0.048,0.022l0.05,0.022l0.048,0.02l0.048,0.022
		l0.05,0.022l0.048,0.022l0.048,0.022l0.05,0.022l0.048,0.025l0.048,0.022l0.048,0.022l0.048,0.026l0.049,0.022l0.048,0.025
		l0.048,0.025l0.048,0.026l0.048,0.025l0.048,0.026l0.048,0.025l0.047,0.026l0.048,0.025l0.048,0.025l0.048,0.026l0.046,0.025
		l0.048,0.026l0.047,0.026l0.048,0.029l0.048,0.029l0.046,0.025l0.051,0.032l36.211,21.244l0.042,0.022l0.035,0.02l0.035,0.019
		l0.035,0.022l0.035,0.022l0.035,0.022l0.035,0.022l0.035,0.022l0.035,0.022l0.035,0.022l0.036,0.022l0.035,0.022l0.032,0.022
		l0.035,0.022l0.035,0.022l0.035,0.026l0.032,0.022l0.032,0.022l0.036,0.025l0.032,0.025l0.032,0.022l0.032,0.026l0.032,0.025
		l0.032,0.026l0.035,0.025l0.035,0.025l0.032,0.026l0.032,0.025l0.032,0.022l0.032,0.026l0.032,0.025l0.032,0.025l0.032,0.026
		l0.029,0.022l0.067,0.054l0.061,0.051l0.064,0.051l0.064,0.051l0.064,0.054l0.061,0.055l0.061,0.054l0.061,0.054l0.061,0.055
		l0.061,0.054l0.061,0.058l0.061,0.058l0.058,0.058l0.058,0.058l0.058,0.058l0.058,0.058l0.058,0.058l0.054,0.061l0.055,0.061
		l0.054,0.061l0.055,0.061l0.054,0.061l0.051,0.061l0.054,0.061l0.051,0.061l0.051,0.064l0.051,0.064l0.051,0.064l0.051,0.064
		l0.048,0.064l0.048,0.064l0.048,0.064l0.048,0.064l0.048,0.064l0.045,0.067l0.045,0.067l0.044,0.067l0.045,0.067l0.045,0.067
		l0.045,0.067l0.042,0.067l0.042,0.067l0.045,0.07l0.042,0.07l0.042,0.07l0.042,0.071l0.038,0.07l0.039,0.07l0.038,0.07l0.039,0.07
		l0.039,0.07l0.038,0.074l0.035,0.074l0.039,0.074l0.035,0.07l0.035,0.074l0.035,0.073l0.032,0.074l0.035,0.074l0.032,0.073
		l0.032,0.074l0.032,0.074l0.029,0.077l0.032,0.074l0.029,0.077l0.029,0.077l0.029,0.077l0.029,0.073l0.029,0.077l0.029,0.077
		l0.025,0.077l0.026,0.077l0.025,0.077l0.026,0.077l0.022,0.077l0.025,0.08l0.022,0.08l0.022,0.08l0.022,0.08l0.019,0.08l0.019,0.08
		l0.02,0.08l0.019,0.08l0.019,0.08l0.02,0.08l0.019,0.08l0.016,0.08l0.013,0.08l0.016,0.08l0.016,0.08l0.013,0.08l0.013,0.083
		l0.009,0.082l0.013,0.084l0.006,0.035l0.003,0.039l0.003,0.042l0.006,0.042l0.006,0.039l0.003,0.038l0.006,0.042l0.003,0.039
		l0.006,0.039l0.003,0.038l0.003,0.039l0.007,0.042l0.003,0.042l0.003,0.039l0.003,0.042l0.003,0.039l0.003,0.042l0.003,0.042
		l0.003,0.042l0.003,0.038l0.003,0.042v0.042l0.003,0.042v0.042l0.003,0.042v0.042l0.003,0.042l0.003,0.039V343.113z"/>
	<polygon fill="#FFFFFF" points="67.897,311.417 44.884,311.417 44.884,287.263 31.011,287.263 31.011,353.573 44.884,353.573 
		44.884,324.579 67.897,324.579 67.897,353.573 81.811,353.573 81.811,287.263 67.897,287.263 	"/>
</g>
</svg>
