<?xml version="1.0" encoding="utf-8"?>
<!-- Generator: Adobe Illustrator 16.0.4, SVG Export Plug-In . SVG Version: 6.00 Build 0)  -->
<!DOCTYPE svg PUBLIC "-//W3C//DTD SVG 1.1//EN" "http://www.w3.org/Graphics/SVG/1.1/DTD/svg11.dtd">
<svg version="1.1" id="レイヤー_1" xmlns="http://www.w3.org/2000/svg" xmlns:xlink="http://www.w3.org/1999/xlink" x="0px"
	 y="0px" width="459.5px" height="237px" viewBox="0 200.5 459.5 237" enable-background="new 0 200.5 459.5 237"
	 xml:space="preserve">
<path fill="#FFFFFF" d="M36.379,252.391h68.179c20.011,0.168,34.512,5.938,43.502,17.299c8.991,11.362,11.957,26.88,8.904,46.555
	c-1.186,8.991-3.816,17.808-7.886,26.458c-3.903,8.649-9.327,16.45-16.282,23.405c-8.481,8.817-17.554,14.414-27.221,16.79
	c-9.667,2.376-19.675,3.562-30.02,3.562H45.029l-9.667,48.336H0L36.379,252.391L36.379,252.391 M66.144,281.392l-15.264,76.32
	c1.018,0.168,2.035,0.255,3.053,0.255c1.186,0,2.376,0,3.562,0c16.282,0.168,29.852-1.44,40.704-4.834
	c10.853-3.562,18.149-15.941,21.878-37.143c3.053-17.808,0-28.07-9.158-30.782c-8.99-2.712-20.266-3.984-33.835-3.816
	c-2.035,0.168-3.984,0.254-5.851,0.254c-1.694,0-3.475,0-5.342,0L66.144,281.392"/>
<path fill="#FFFFFF" d="M197.247,203.8h35.107l-9.921,48.591h31.545c17.3,0.341,30.187,3.902,38.669,10.685
	c8.649,6.782,11.193,19.675,7.632,38.669l-17.045,84.715h-35.616l16.282-80.899c1.694-8.481,1.186-14.501-1.526-18.062
	c-2.713-3.562-8.563-5.342-17.554-5.342l-28.239-0.254L195.72,386.459h-35.107L197.247,203.8L197.247,203.8"/>
<path fill="#FFFFFF" d="M337.978,252.391h68.18c20.011,0.168,34.512,5.938,43.502,17.299c8.99,11.362,11.957,26.88,8.904,46.555
	c-1.186,8.991-3.816,17.808-7.887,26.458c-3.902,8.649-9.326,16.45-16.281,23.405c-8.481,8.817-17.554,14.414-27.221,16.79
	c-9.668,2.376-19.676,3.562-30.02,3.562h-30.528l-9.667,48.336h-35.361L337.978,252.391L337.978,252.391 M367.742,281.392
	l-15.264,76.32c1.018,0.168,2.035,0.255,3.053,0.255c1.186,0,2.376,0,3.562,0c16.281,0.168,29.852-1.44,40.704-4.834
	c10.853-3.562,18.148-15.941,21.878-37.143c3.054-17.808,0-28.07-9.158-30.782c-8.99-2.712-20.266-3.984-33.835-3.816
	c-2.035,0.168-3.984,0.254-5.852,0.254c-1.694,0-3.475,0-5.342,0L367.742,281.392"/>
</svg>
