<svg version="1.1" id="レイヤー_1" xmlns="http://www.w3.org/2000/svg" xmlns:xlink="http://www.w3.org/1999/xlink" x="0px"
	 y="0px" width="426px" height="420.5px" viewBox="0 91.5 426 420.5" enable-background="new 0 91.5 426 420.5"
	 xml:space="preserve">
<path fill="#FFFFFF" d="M414.705,189.663l9.261-13.892c-113.881-104.86-245.605-45.372-301.768,64.83c-50.421,89.292-78.279,178.79-73.319,268.584
	l0.003-0.008h205.292c-24.433-54.783-39.29-138.36-34.742-192.235C229.36,199.345,350.719,129.606,414.705,189.663z M7.951,405.769
	l40.133,3.088l-6.946,40.133l-37.817-4.631L7.951,405.769z M71.231,320.882l10.806-30.1L46.534,276.89l-11.577,32.416
	L71.231,320.882z M121.423,217.411l20.838-24.697l-27.012-17.751l-33.065,23.925L121.423,217.411z M176.183,121.719l18.523,22.382
	l25.469-14.664L201.651,108.6L176.183,121.719z M266.503,96.284l4.632,22.382l31.644-0.772l-3.088-20.066L266.503,96.284z
	 M373.802,120.176l-0.772,13.892l21.611,11.577l4.631-6.946L373.802,120.176z M369.172,179.628v11.577l20.839,2.315v-9.262
	L369.172,179.628z M302.805,189.629l10.034,18.523l14.663-11.577l-3.087-12.349L302.805,189.629z M271.135,213.583l15.436,23.154
	l-9.262,16.208l-22.382-24.698L271.135,213.583z M240.265,277.665l-10.033,20.067l26.241,22.383l6.174-25.47L240.265,277.665z
	 M229.461,347.86l-1.543,27.012l32.415,13.893l-1.543-25.468L229.461,347.86z M238.723,443.552l7.717,27.785l40.905,2.314
	l-14.664-30.099L238.723,443.552z"/>
</svg>
