<svg version="1.1" id="レイヤー_1" xmlns="http://www.w3.org/2000/svg" xmlns:xlink="http://www.w3.org/1999/xlink" x="0px"
	 y="0px" width="512px" height="388px" viewBox="0 61.5 512 388" enable-background="new 0 61.5 512 388" xml:space="preserve">
<path fill="#FFFFFF" d="M167.998,289.57l-48.742,26.766c-28.142-27.572-54.693-40.977-70.159-61.856
	c-19.73-26.636-13.404-61.608,30.214-96.143c94.965-72.325,187.256-75.071,209.698-46.843c20.626,25.944-14.93,82.246-75.26,102.502
	c-36.994,12.507-72.298,13.008-90.535-7.636c-2.456-3.402-6.246-0.37-4.971,2.829c12.024,36.009,67.194,33.592,108.57,23.595
	c77.133-18.638,134.973-117.617,64.325-156.25C187.922,28.214,7.914,138.19,0.236,215.549
	c-4.373,44.066,52.745,75.218,100.428,111.056c-37.538,20.055-64.997,38.646-74.348,54.611c-9.5,15.011-12.868,31.002-5.788,48.072
	c13.388,30.188,60.042,16.053,77.389,3.712c27.591-19.63,49.19-58.427,30.756-103.519l28.107-16.171l0.425,0.36
	c-0.507,1.667-1.047,3.335-1.521,5.035c-8.761,28.267-5.971,54.961,7.75,74.658c5.835,8.377,18.622,9.279,25.94,2.829
	c7.477-6.589,13.413-22.872,22.9-43.199c-2.389,21.265-0.581,38.974,12.083,40.306c7.885,0.828,15.055-6.713,21.043-16.744
	c15.757-26.393,30.585-59.082,45.326-94.148c2.93,14.48,7.504,27.785,13.93,39.766c1.587,3.172,1.407,5.232-0.801,7.881
	l-27.355,33.617c-13.137,15.318-8.526,23.242,9.092,22.14c24.947-2.235,55.66-18.427,48.529-51.734
	c-2.699-12.438-6.096-14.213-3.368-17.479c10.53-15.026,20.631-33.398,28.986-49.7c2.714,14.111,6.921,28.134,14.229,40.462
	c-17.579,15.805-30.391,32.422-29.71,51.342c0.998,7.489,7.129,12.346,14.487,10.645c19.404-2.941,41.671-20.799,44.39-34.615
	c1.547-7.857,1.029-15.579-3.268-27.485c78.677-26.326,125.749,32.514,87.838,58.39c-1.535,0.881-3.104,1.818-3.902,2.877
	c-1.212,1.604-0.668,3.467,1.63,3.451c3.732-0.027,6.704-1.848,9.428-3.453c37.516-22.115,10.141-83.418-50.126-84.368
	c-17.769-0.343-34.39,3.046-50.802,10.53c-10.366-17.092-13.788-32.781-10.906-45.538c1.438-6.001,3.335-11.904,5.102-17.839
	c0.798-3.035,0.539-5.825-5.854-7.195c-7.162-1.03-14.209-0.441-21.143,1.57c-5.138,1.409-4.453,4.803-6.147,9.385
	c-4.01,20.7-19.169,43.928-33.372,68.56c-5.044-9.029-9.271-19.824-8.32-33.797c0.478-7.018,3.507-16.163,5.9-23.627
	c1.124-3.125,0.075-5.198-5.805-6.835c-10.047-1.38-19.867,0.457-24.008,3.004c-3.254,2.003-4.11,13.723-8.433,23.337
	c-17.794,39.07-37.107,86.049-45.26,97.338c-4.974-2.921,4.314-35.402,12.051-64.668c2.717-8.751-8.191-14.205-16.744-8.012
	c8.268-44.156-29.957-41.318-59.91-3.451C170.254,287.968,169.158,288.932,167.998,289.57 M113.361,362.781
	c-1.368,18.23-9.606,33.005-23.112,44.957c-34.847,27.917-55.128,9.89-37.591-20.259c7.371-15.52,32.027-31.349,58.258-47.205
	C112.944,347.796,113.929,355.211,113.361,362.781z M178.2,368.35c-10.001-23.959,3.311-69.236,26.473-86.039
	c8.469-4.98,12.205-3.709,11.552,1.234c-0.965,5.82-2.167,11.65-3.867,17.291c-5.886,19.523-13.424,38.457-21.583,57.113
	C184.754,370.71,180.455,373.682,178.2,368.35z M286.379,372.943c8.404-9.811,16.792-19.604,25.213-29.447
	C312.638,354.435,294.063,376.263,286.379,372.943z M360.622,356.15c-1.393,0.304-1.962-0.662-1.155-4.691
	c3.401-12.019,9.705-22.425,19.625-31.065C383.703,333.008,378.645,349.398,360.622,356.15z"/>
</svg>
