<svg version="1.1" id="レイヤー_1" xmlns="http://www.w3.org/2000/svg" xmlns:xlink="http://www.w3.org/1999/xlink" x="0px"
	 y="0px" width="512px" height="512px" viewBox="0 0 512 512" enable-background="new 0 0 512 512" xml:space="preserve">
<path fill="#FFFFFF" d="M272.568,136.019h-34.137v-34.137h34.137V136.019z M409.118,238.431h-34.137v34.137h34.137V238.431z M170.156,136.019
	h-34.138v34.138h34.138V136.019z M136.019,238.431h-34.137v34.137h34.137V238.431z M511.531,50.675l-17.068-17.069L272.568,204.293
	c-2.049-0.684-34.137,0-34.137,0c-18.769,0-34.138,15.369-34.138,34.138v34.137c0,18.77,15.369,34.138,34.138,34.138h34.137
	c18.77,0,34.138-15.368,34.138-34.138v-31.403L511.531,50.675z M457.258,190.292c6.485,20.836,10.234,42.672,10.234,65.208
	c0,116.747-94.896,211.659-211.659,211.659c-116.748,0-211.993-94.912-211.993-211.659c0-116.748,94.912-211.659,211.659-211.659
	c40.972,0,78.859,11.618,111.629,32.104l32.088-32.104c-42.237-28.854-92.21-44.323-143.383-44.373
	C114.166-0.531-0.531,114.166-0.531,255.5c0,141.333,114.697,256.031,256.031,256.031c141.333,0,256.031-114.698,256.031-256.031
	c0-35.154-6.834-68.959-20.136-99.346L457.258,190.292z"/>
</svg>
