<svg id="レイヤー_1" data-name="レイヤー 1" xmlns="http://www.w3.org/2000/svg" xmlns:xlink="http://www.w3.org/1999/xlink" viewBox="0 0 2048 1536"><defs><style>.cls-1{fill:none;}.cls-2{clip-path:url(#clip-path);}.cls-3{fill:#b2b2b2;}.cls-4{clip-path:url(#clip-path-2);}.cls-5{clip-path:url(#clip-path-3);}.cls-6{clip-path:url(#clip-path-4);}.cls-7{clip-path:url(#clip-path-5);}.cls-8{clip-path:url(#clip-path-6);}.cls-15,.cls-9{fill:#fff;}.cls-10{fill:#231815;}.cls-11{fill:#0b64ad;}.cls-12{stroke-miterlimit:10;opacity:0.05;fill:url(#_194_Dot_Geometry_2);stroke:url(#_001_Dot_Circle);}.cls-13{fill:#646464;}.cls-14{fill:#515556;}.cls-15{font-size:34px;font-family:ShinMGoPro-DeBold-83pv-RKSJ-H, A-OTF Shin Maru Go Pro;}</style><clipPath id="clip-path"><rect class="cls-1" x="3.44" y="3.44" width="14.38" height="14.38"/></clipPath><clipPath id="clip-path-2"><rect class="cls-1" x="-10.73" y="3.44" width="14.38" height="14.38"/></clipPath><clipPath id="clip-path-3"><rect class="cls-1" x="-3.65" y="-3.65" width="14.38" height="14.38"/></clipPath><clipPath id="clip-path-4"><rect class="cls-1" x="3.44" y="-10.73" width="14.38" height="14.38"/></clipPath><clipPath id="clip-path-5"><rect class="cls-1" x="-10.73" y="-10.73" width="14.38" height="14.38"/></clipPath><clipPath id="clip-path-6"><rect class="cls-1" width="28.16" height="28.16"/></clipPath><pattern id="_194_Dot_Geometry_2" data-name="194_Dot_Geometry 2" width="28.16" height="28.16" patternTransform="translate(0 21.61)" patternUnits="userSpaceOnUse" viewBox="0 0 28.16 28.16"><rect class="cls-1" width="28.16" height="28.16"/><g class="cls-8"><polygon class="cls-9" points="10.1 16.74 11.42 18.07 18.06 11.43 16.73 10.1 10.1 16.74"/><polygon class="cls-9" points="16.73 18.06 18.06 16.73 11.42 10.1 10.1 11.43 16.73 18.06"/><polygon class="cls-9" points="24.21 2.64 25.54 3.96 32.18 -2.67 30.85 -4 24.21 2.64"/><polygon class="cls-9" points="30.84 3.96 32.18 2.63 25.54 -4 24.21 -2.67 30.84 3.96"/><polygon class="cls-10" points="-3.98 2.64 -2.66 3.96 3.98 -2.67 2.65 -4 -3.98 2.64"/><polygon class="cls-9" points="2.65 3.96 3.98 2.63 -2.66 -4 -3.99 -2.67 2.65 3.96"/><polygon class="cls-9" points="-3.98 30.84 -2.66 32.16 3.98 25.53 2.65 24.2 -3.98 30.84"/><polygon class="cls-9" points="2.65 32.16 3.98 30.83 -2.66 24.2 -3.99 25.52 2.65 32.16"/><polygon class="cls-10" points="24.21 30.84 25.54 32.16 32.18 25.53 30.85 24.2 24.21 30.84"/><polygon class="cls-9" points="30.84 32.16 32.18 30.83 25.54 24.2 24.21 25.52 30.84 32.16"/></g></pattern><pattern id="_001_Dot_Circle" data-name="001_Dot_Circle" width="7.09" height="7.09" patternTransform="translate(23.87 -293.64) scale(4.41 10.76)" patternUnits="userSpaceOnUse" viewBox="0 0 7.09 7.09"><rect class="cls-1" width="7.09" height="7.09"/><g class="cls-2"><circle class="cls-3" cx="3.44" cy="3.44" r="1.01"/></g><g class="cls-4"><circle class="cls-3" cx="3.65" cy="3.44" r="1.01"/></g><g class="cls-5"><circle class="cls-3" cx="3.54" cy="3.54" r="1.01"/><circle class="cls-3" cx="-3.65" cy="-3.65" r="1.01"/><circle class="cls-3" cx="10.73" cy="-3.65" r="1.01"/><circle class="cls-3" cx="-3.65" cy="10.73" r="1.01"/><circle class="cls-3" cx="10.73" cy="10.73" r="1.01"/></g><g class="cls-6"><circle class="cls-3" cx="3.44" cy="3.65" r="1.01"/></g><g class="cls-7"><circle class="cls-3" cx="3.65" cy="3.65" r="1.01"/></g></pattern></defs><title>アートボード 1</title><rect class="cls-11" width="2048" height="1536"/><rect class="cls-12" width="2048" height="1536"/><rect class="cls-13" y="1448" width="2048" height="88"/><g id="logo-lg"><g id="en"><path class="cls-14" d="M450.74,1487.22a17.2,17.2,0,0,0-6.62-8.09,17.77,17.77,0,0,0-9.61-2.78,13.86,13.86,0,0,0-2.6.26,15.59,15.59,0,0,0-3.59,1.15,9.72,9.72,0,0,0-11.07,1.17,8.9,8.9,0,0,0-1.6,1.84,13.55,13.55,0,0,0-4.24-3.06,15.85,15.85,0,0,0-6.79-1.41,13.43,13.43,0,0,0-2.83.31,14.11,14.11,0,0,0-4.19,1.69,13.58,13.58,0,0,0-3.63-1.47,17.78,17.78,0,0,0-4.32-.48,12.93,12.93,0,0,0-5.54,1.25,9.92,9.92,0,0,0-4.38-1,9.7,9.7,0,0,0-6.4,2.42,2.5,2.5,0,0,0-.23.23,9,9,0,0,0-1.69-1.29,9.91,9.91,0,0,0-5-1.36,9.8,9.8,0,0,0-4.67,1.21,16.46,16.46,0,0,0-2.08-.79,15.86,15.86,0,0,0-2.19-.48,12.93,12.93,0,0,0-1.91-.14,17.45,17.45,0,0,0-9,2.42,8.72,8.72,0,0,0,.05-.9,9.2,9.2,0,0,0-.58-3.25,8.32,8.32,0,0,0-2.06-3.12h0l-.09-.08v0h0a24.48,24.48,0,0,0-26-4.57,23.49,23.49,0,0,0-10.44,8.8,24.61,24.61,0,0,0-3.92,13.43,24.28,24.28,0,0,0,6.78,17,23.11,23.11,0,0,0,7.58,5.21,24.47,24.47,0,0,0,24.9-3.59,16.75,16.75,0,0,0,3.17,2.68,17.64,17.64,0,0,0,9.62,2.81,14.85,14.85,0,0,0,6.22-1.4,9.72,9.72,0,0,0,11-1.18l.27-.27a9.94,9.94,0,0,0,1.6,1.24,9.76,9.76,0,0,0,11.44-1,8.87,8.87,0,0,0,1.31-1.42,9.36,9.36,0,0,0,2.64,2.39,9.76,9.76,0,0,0,11.44-1,9.41,9.41,0,0,0,1.29-1.38,9.41,9.41,0,0,0,2.61,2.35,9.72,9.72,0,0,0,5,1.41,10,10,0,0,0,3.7-.73v3.14a8.93,8.93,0,0,0,.87,3.83,9.29,9.29,0,0,0,3.64,3.92,9.84,9.84,0,0,0,5,1.35,9.65,9.65,0,0,0,6.4-2.42,9.08,9.08,0,0,0,2.16-2.79,8.78,8.78,0,0,0,.95-3.71v-2.47c.44,0,.89.08,1.33.08a17.88,17.88,0,0,0,6.6-1.25,17,17,0,0,0,7.95-6.45,19.25,19.25,0,0,0,3.07-10.74A20.12,20.12,0,0,0,450.74,1487.22Zm-113.81,3.19a9.41,9.41,0,0,0-6.26,2.33l-.16.14a3.82,3.82,0,0,1-1.34.84,5,5,0,0,1-1.89.34,4.14,4.14,0,0,1-1.71-.35,4.32,4.32,0,0,1-1.91-1.68,5.58,5.58,0,0,1-.81-3,5.34,5.34,0,0,1,1.36-3.68,4,4,0,0,1,1.36-1,4.14,4.14,0,0,1,1.71-.35,5.24,5.24,0,0,1,1.89.33,4,4,0,0,1,1.34.85l.16.14a9.41,9.41,0,0,0,6.26,2.33,10,10,0,0,0,2.35-.29,18.5,18.5,0,0,0-.91,3.1A10,10,0,0,0,336.93,1490.41Zm1.52,11.18Z"/><path class="cls-9" d="M327.28,1470.83a17.88,17.88,0,0,1,12.6,4.91c1.34,1.24,1,3.87-.46,5.16a3.75,3.75,0,0,1-4.86,0,10.48,10.48,0,0,0-7.28-2.79c-5.88,0-10.33,4.86-10.33,10.9S321.4,1500,327.28,1500a10.48,10.48,0,0,0,7.28-2.78,3.75,3.75,0,0,1,4.86,0c1.44,1.29,1.8,3.92.46,5.16a17.88,17.88,0,0,1-12.6,4.91c-10.17,0-17.86-8.11-17.86-18.23S317.11,1470.83,327.28,1470.83Z"/><path class="cls-9" d="M362.8,1485.65a3.53,3.53,0,0,1,3.62-3.2,3.42,3.42,0,0,1,3.61,3.2v18.23a3.42,3.42,0,0,1-3.61,3.2,3.53,3.53,0,0,1-3.62-3.2v-.47a8.56,8.56,0,0,1-7.23,3.88c-6.14,0-11.72-4.55-11.72-12.55s5.58-12.5,11.72-12.5a8.91,8.91,0,0,1,7.23,3.88ZM357,1500.88a6.09,6.09,0,0,0,0-12.18c-3.62,0-5.68,2.89-5.68,6.09S353.35,1500.88,357,1500.88Z"/><path class="cls-9" d="M414.07,1503.88a3.42,3.42,0,0,1-3.61,3.2,3.53,3.53,0,0,1-3.62-3.2V1494c0-3.15-1.91-4.8-4-4.8-2.28,0-4.08,1.4-4.08,4.91v9.81a3.43,3.43,0,0,1-3.62,3.2,3.52,3.52,0,0,1-3.61-3.2v-10.07c0-3-1.91-4.65-4-4.65s-4.18,1.24-4.18,4.91v9.81a3.42,3.42,0,0,1-3.62,3.2,3.52,3.52,0,0,1-3.61-3.2v-18.23a3.52,3.52,0,0,1,3.61-3.2,3.42,3.42,0,0,1,3.62,3.2v.57a6.91,6.91,0,0,1,6.3-4c3.82,0,6.35,1.24,8,4.55a7.79,7.79,0,0,1,7-4.6c5.73,0,9.4,3.67,9.45,11Z"/><path class="cls-9" d="M434.51,1482.24c6.15,0,11.73,4.5,11.73,12.5s-5.58,12.55-11.73,12.55a8.57,8.57,0,0,1-7.23-3.88v12a3.52,3.52,0,0,1-3.61,3.21,3.42,3.42,0,0,1-3.61-3.21v-29.74a3.42,3.42,0,0,1,3.61-3.2,3.52,3.52,0,0,1,3.61,3.2v.47A8.92,8.92,0,0,1,434.51,1482.24Zm-1.39,6.46a6.09,6.09,0,0,0,0,12.18c3.61,0,5.68-2.89,5.68-6.09S436.73,1488.7,433.12,1488.7Z"/><path class="cls-14" d="M306.63,1477.6a3.68,3.68,0,0,0-.35-.15v-1a8.83,8.83,0,0,0-.88-3.83,9.21,9.21,0,0,0-3.63-3.92,9.86,9.86,0,0,0-5-1.35,9.73,9.73,0,0,0-6.41,2.42,9.4,9.4,0,0,0-2.16,2.79,8.92,8.92,0,0,0-.94,3.71v1.6a8.54,8.54,0,0,0-2.53,2.06c-.36-.25-.72-.5-1.09-.73a19.43,19.43,0,0,0-10.21-2.81,19.75,19.75,0,0,0-7,1.26,17.71,17.71,0,0,0-7.5,5.36,17.5,17.5,0,0,0-4.34-3.81,19.4,19.4,0,0,0-10.2-2.81,19.76,19.76,0,0,0-7,1.26,17.81,17.81,0,0,0-5.57,3.35,16.89,16.89,0,0,0-1.16-6.12,14.52,14.52,0,0,0-2.46-4.08,14.86,14.86,0,0,0-5.75-4.1,18.56,18.56,0,0,0-7.05-1.31H204.1a9.11,9.11,0,0,0-3.67.76,8.6,8.6,0,0,0-2.35,1.56,8.86,8.86,0,0,0-2.18,3.21,9.86,9.86,0,0,0-.69,3.39v29.35a9.59,9.59,0,0,0,.52,3.15,8.91,8.91,0,0,0,3,4.2,8.4,8.4,0,0,0,2.52,1.31,9.06,9.06,0,0,0,2.81.44h12.29a18.65,18.65,0,0,0,7-1.3,16.39,16.39,0,0,0,6.58-4.85,17.62,17.62,0,0,0,4.19,3.71,19.07,19.07,0,0,0,10.25,2.9,18.72,18.72,0,0,0,13.06-5.09,17.55,17.55,0,0,0,1.48-1.63,17.68,17.68,0,0,0,4.28,3.82,19,19,0,0,0,10.24,2.9,18.75,18.75,0,0,0,13.07-5.09,18.23,18.23,0,0,0,1.27-1.36,9.64,9.64,0,0,0,.43,1,9.29,9.29,0,0,0,3.55,3.81,9.76,9.76,0,0,0,11.44-1,9,9,0,0,0,2.21-2.9,8.75,8.75,0,0,0,.88-3.82v-10.26l.44-.19a8.66,8.66,0,0,0,3.57-3.25,8.89,8.89,0,0,0-1-10.58A8.27,8.27,0,0,0,306.63,1477.6Zm-62.42,17h0l-.07-.11Zm.3.26h0l.11.13Zm28.77-.26h0l-.07-.11Zm.3.26h0l.1.13Z"/><path class="cls-9" d="M204.1,1506.82a3,3,0,0,1-3-3.2v-29.17a3,3,0,0,1,3-3.21h11.25c6.41,0,10.54,3.83,10.54,9.92a7,7,0,0,1-4.86,6.66,8.64,8.64,0,0,1,6.72,8.11c0,5.88-4.29,10.89-11.36,10.89Zm10.53-21.38c2,0,3.31-1.65,3.31-3.76s-1.14-3.77-3.36-3.77h-5.89v7.53Zm-5.94,6v8.73H216c2.53,0,3.82-2.32,3.82-4.44a4,4,0,0,0-4-4.29Z"/><path class="cls-9" d="M231.72,1494.69c0-7.59,5.63-12.45,12.65-12.45s12.7,4.86,12.7,12.45-5.68,12.6-12.7,12.6S231.72,1502.28,231.72,1494.69Zm18.12,0a5.45,5.45,0,1,0-10.89,0,5.45,5.45,0,1,0,10.89,0Z"/><path class="cls-9" d="M260.78,1494.69c0-7.59,5.63-12.45,12.65-12.45s12.71,4.86,12.71,12.45-5.68,12.6-12.71,12.6S260.78,1502.28,260.78,1494.69Zm18.13,0a5.45,5.45,0,1,0-10.9,0,5.45,5.45,0,1,0,10.9,0Z"/><path class="cls-9" d="M293.15,1482.71v-6.3a3.53,3.53,0,0,1,3.62-3.2,3.42,3.42,0,0,1,3.61,3.2v6.3h2.74a2.71,2.71,0,0,1,2.58,2.84,2.78,2.78,0,0,1-2.58,2.84h-2.74v15.49a3.42,3.42,0,0,1-3.61,3.2,3.54,3.54,0,0,1-3.62-3.2v-15.49h-2a2.79,2.79,0,0,1-2.58-2.84,2.72,2.72,0,0,1,2.58-2.84Z"/><path class="cls-14" d="M195.11,1464.79a9.84,9.84,0,0,0-5-1.35,9.65,9.65,0,0,0-6.4,2.42,9.24,9.24,0,0,0-2.16,2.79,8.77,8.77,0,0,0-.94,3.71v4.07a12.31,12.31,0,0,0-1.33-.08,18,18,0,0,0-6.58,1.23,17.08,17.08,0,0,0-3.54,1.91c-.05,0-.08-.11-.13-.16a8.54,8.54,0,0,0-2.32-1.75,10.54,10.54,0,0,0-3.21-1,15,15,0,0,0-2.55-.19,11.32,11.32,0,0,0-3.82.65,10.81,10.81,0,0,0-1.56.7,9.9,9.9,0,0,0-4.58-1.15,9.71,9.71,0,0,0-6.41,2.42,9.32,9.32,0,0,0-1.87,2.29,17.94,17.94,0,0,0-2.74-2.1,19.37,19.37,0,0,0-10.2-2.81,19.76,19.76,0,0,0-7,1.26,17.9,17.9,0,0,0-5.92,3.68,7.39,7.39,0,0,0-.51-.81,10,10,0,0,0,2.57-6.71,9.91,9.91,0,0,0-.84-4,10.09,10.09,0,0,0-3.87-4.44,10.69,10.69,0,0,0-12.68,1.08l-.43-.22a8.82,8.82,0,0,0-3.66-.8H81a9.07,9.07,0,0,0-3.66.76,8.65,8.65,0,0,0-2.36,1.56,9,9,0,0,0-2.18,3.21,10.1,10.1,0,0,0-.69,3.39v29.3a9,9,0,0,0,.9,3.89,9.64,9.64,0,0,0,3.53,4,9.7,9.7,0,0,0,11.92-1.07,9.48,9.48,0,0,0,2.15-3,9.27,9.27,0,0,0,.83-3.81v-5.1h2.88a8.65,8.65,0,0,0,3.68-.83,9.84,9.84,0,0,0,1-.53v9.51a9.44,9.44,0,0,0-3.71,2,8.89,8.89,0,0,0-2.18,2.94,9,9,0,0,0-.83,3.77,9.17,9.17,0,0,0,4.25,7.74,9.44,9.44,0,0,0,5.06,1.46H103a17.1,17.1,0,0,0,6.54-1.18,12.61,12.61,0,0,0,6.31-5.58,16,16,0,0,0,1.7-4.74,24,24,0,0,0,.42-3.87,16.54,16.54,0,0,0,1.53,1.11,19.1,19.1,0,0,0,10.25,2.9,18.73,18.73,0,0,0,12.92-5,9.28,9.28,0,0,0,3.28,3.36,9.76,9.76,0,0,0,11.44-1,9,9,0,0,0,2.21-2.9,8.75,8.75,0,0,0,.88-3.82V1498a19.15,19.15,0,0,1,.24-3c0-.1,0-.19.05-.28l.87,0a20.31,20.31,0,0,0,1.39,7.51,17.17,17.17,0,0,0,6.61,8.11,17.64,17.64,0,0,0,9.62,2.81,14.85,14.85,0,0,0,6.22-1.4,9.7,9.7,0,0,0,11-1.18,9.07,9.07,0,0,0,2.22-2.9,8.74,8.74,0,0,0,.87-3.82v-31.34a8.79,8.79,0,0,0-.87-3.83A9.29,9.29,0,0,0,195.11,1464.79Zm-65,29.84h0l0,0Zm-.5.2h0l-.11.09Zm-21.14-21.23Zm.1.73h0l.6,1Zm.09-.27h0l1.13.52Zm0-.54h0l1.15-.53Zm-.25,0h0l-1.14-.5Z"/><path class="cls-9" d="M97.39,1471.24a3.24,3.24,0,0,1,3.1,3.36,3.38,3.38,0,0,1-3.1,3.31H85.57v8.15h8.77a3.18,3.18,0,0,1,3.1,3.26,3.28,3.28,0,0,1-3.1,3.25H85.57v11a3.68,3.68,0,0,1-3.77,3.51,3.78,3.78,0,0,1-3.77-3.51v-29.12a3,3,0,0,1,3-3.21Z"/><path class="cls-9" d="M101.72,1512.14c2.64,0,3.15-2.12,3.15-3.82v-22.67a3.53,3.53,0,0,1,3.62-3.2,3.42,3.42,0,0,1,3.61,3.2v22.51c0,6.41-2.27,10.49-9.09,10.49h-1.44a3.26,3.26,0,1,1,0-6.51Zm6.82-42.55a4.22,4.22,0,1,1,0,8.42,4.22,4.22,0,1,1,0-8.42Z"/><path class="cls-9" d="M117.11,1494.69c0-7.59,5.63-12.45,12.65-12.45s12.7,4.86,12.7,12.45-5.68,12.6-12.7,12.6S117.11,1502.28,117.11,1494.69Zm18.12,0a5.45,5.45,0,1,0-10.89,0,5.45,5.45,0,1,0,10.89,0Z"/><path class="cls-9" d="M165.38,1486.22a3.32,3.32,0,0,1-3.56,2.63c-.52,0-1.29,0-1.76,0-4,0-5.37,3.1-5.47,9.14v5.94a3.42,3.42,0,0,1-3.61,3.2,3.53,3.53,0,0,1-3.62-3.2v-18.23a3.53,3.53,0,0,1,3.62-3.2,3.42,3.42,0,0,1,3.61,3.2v2.63c1.34-4.49,3.87-6,6.35-6S165.85,1482.81,165.38,1486.22Z"/><path class="cls-9" d="M186.5,1472.54a3.52,3.52,0,0,1,3.61-3.21,3.43,3.43,0,0,1,3.62,3.21v31.34a3.42,3.42,0,0,1-3.62,3.2,3.52,3.52,0,0,1-3.61-3.2v-.47a8.56,8.56,0,0,1-7.23,3.88c-6.14,0-11.72-4.55-11.72-12.55s5.58-12.5,11.72-12.5a8.92,8.92,0,0,1,7.23,3.88Zm-5.84,28.34a6.09,6.09,0,0,0,0-12.18c-3.61,0-5.68,2.89-5.68,6.09S177.05,1500.88,180.66,1500.88Z"/></g></g><text class="cls-15" transform="translate(1669 1505.68)">合同会社フィヨルド</text></svg>