<svg id="レイヤー_1" data-name="レイヤー 1" xmlns="http://www.w3.org/2000/svg" xmlns:xlink="http://www.w3.org/1999/xlink" viewBox="0 0 1478.33 318.49"><defs><style>.cls-1{fill:none;}.cls-2{fill:#fff;}.cls-3{fill:#515556;}.cls-4{fill:#f4e90f;}.cls-5{fill:#bfd1bf;}.cls-6{fill:#6c8c6c;}.cls-7{fill:#cec015;}.cls-8{clip-path:url(#clip-path);}.cls-9{fill:#e8e7df;}.cls-10{fill:#826427;}.cls-11{fill:#2d88ea;}.cls-12{fill:#6d6d69;}.cls-13{fill:#f9e4d4;}.cls-14{fill:#b6ecf2;}</style><clipPath id="clip-path"><path class="cls-1" d="M119.24,135.31s-15.7,18.36-35.06,18.36-35.06-18.36-35.06-18.36,15.69-18.37,35.06-18.37S119.24,135.31,119.24,135.31Z"/></clipPath></defs><title>kuroigamen-logo</title><path class="cls-2" d="M302.44,129.11l1.32-20.32c-3.71,0-14.07-.07-20.64-.33l-1.21,0-.57-19.1,1.36,0s14.91.43,20.84.49l.29-30.2-.29,0c-7,15.79-33.59,36.07-54.53,36.9l-3.79.15,2.92-2.43c18.64-15.56,31.71-33.06,34.91-39.45-2.81.08-8.22.22-13.76.22-4,0-8.11-.07-11.33-.29l-1.21-.08.19-21.83,44.52-.17-1.82-29.8,1.42.06s20.45.83,21.76.83h1.39l-2.14,29c6.86-.27,35.2-1.42,39.91-1.42h1.29V54.19l-1.37-.1s-12.27-.83-25-1.35c6.94,6.55,27.2,24.74,39.59,26l2.32.25-17.89,22.84-1-1.08c-26.61-28.07-33.18-35.15-39-42.07h-.23l.61,33.06c2.15-.08,6.66-.22,11.52-.22,2.25,0,4.56,0,6.76.11l1.27,0-.39,15.61-1.11.13c-.47.06-11.48,1.32-18.73,1.34l1.81,20.31Z"/><path class="cls-3" d="M301,4.23s20.49.83,21.81.83l-2.14,29.07s36-1.48,41.3-1.48V52.8s-14.54-1-28.42-1.48c0,0,27.1,27.1,42.8,28.75L360.83,99.9c-27.1-28.59-33.38-35.36-39.33-42.47h-2.15L320,93.12s6.05-.27,12.78-.27c2.23,0,4.53,0,6.71.11l-.33,13.22s-11.56,1.34-18.82,1.34l-1.17,0L321,127.82H303.82l1.32-20.32s-13.88,0-22-.33l-.5-16.53s17.52.5,22.14.5l.33-32.88-2.47.17c-6.45,15.86-33.05,36-53.71,36.84,21-17.51,34.87-37.34,36-41.8,0,0-7.71.29-15.69.29-4,0-8-.07-11.24-.29l.17-19.34L302.83,34,301,4.23m-2.75-2.69.18,2.85,1.65,27-41.88.15h-2.55l0,2.55-.17,19.34,0,2.43,2.42.17c2.89.19,6.73.29,11.42.29,4.3,0,8.53-.08,11.52-.16-4.33,7.18-16.51,22.93-33.5,37.11l-5.83,4.86,7.58-.3c19.92-.8,44-17.94,53.44-33.46l-.24,24.15c-6.54-.1-19.52-.48-19.52-.48L280,88l.08,2.73.5,16.52.07,2.41,2.4.1c5.87.24,14.84.31,19.33.33l-1.15,17.58-.18,2.74h22.77l-.26-2.81L322,110.08c7.25-.17,17-1.28,17.46-1.33l2.23-.26.06-2.24L342.09,93l.06-2.55-2.54-.09c-2.22-.08-4.55-.11-6.81-.11-4,0-7.84.09-10.25.17L322,62c5.54,6.41,13.42,14.84,36.93,39.64l2.07,2.18,1.84-2.36,15.53-19.83L381.26,78l-4.63-.49c-10.06-1-26.72-14.55-36.32-23.32,11.28.51,21.38,1.19,21.5,1.2l2.75.19V30.07H362c-4.45,0-29.8,1-38.52,1.37l1.93-26.19.21-2.78h-2.78c-.93,0-13.49-.49-21.71-.82Z"/><path class="cls-2" d="M501.35,126c-.64,0-65.14-1.15-84.4-1.15h-1.3V108.2h1.29c.5,0,48.63-.31,59.31-.91.28-2.68,1-9.64,1.38-13.07l-53.79-1.32,1-16.76H426s12.54.08,25.53.08c18.39,0,24.92-.16,27.14-.3l.94-11.22c-8.64.19-53.79,1.16-65,1.46l-1.22,0-1.54-18.47h1.39c.35,0,32.85-.28,40.59-.59L450.74,8.39h24.07l-1.65,37.3,34.39-1,.08,1.25c.83,14.38,1.54,56.61-5,79.1l-.28.94Zm-84.3-86c-.18-.49-4.19-12.09-4.53-16l-.09-1L428.36,17l7.28,15.89-1,.58c-.41.24-10.11,5.72-16,7.39l-1.17.34Zm87.56-3.14a67.88,67.88,0,0,1-16.94-2.64L485,33.51l2.3-1.59c.15-.1,14.4-10,18.19-15.39l1.07-1.5,12.19,17.62-1.06.73C514.22,35.73,510,36.87,504.61,36.87Z"/><path class="cls-3" d="M473.45,9.68,471.81,47l34.53-1c.83,14.38,1.49,56.52-5,78.65,0,0-64.94-1.15-84.43-1.15v-14s52.38-.33,60.47-1c0,0,1.32-12.72,1.66-15.53l-53.87-1.32L426,77.43s12.55.08,25.55.08,26.66-.08,28.32-.41l1.16-13.72s-54,1.16-66.43,1.49L413.31,49s37.84-.32,42-.66L452.14,9.68h21.31m33.06,7.6,10.4,15c-3.1,2.13-7.07,3.26-12.3,3.26A66.43,66.43,0,0,1,488,33s14.54-10.08,18.51-15.7M427.69,18.6,434,32.32s-9.92,5.62-15.7,7.27c0,0-4.13-11.9-4.47-15.7l13.89-5.29M476.15,7.1h-26.8l.22,2.79,2.92,36c-7.55.23-28,.45-39.2.54l-2.78,0,.23,2.77,1.32,15.86.2,2.43,2.44-.06c10.67-.28,52.21-1.18,63.54-1.43l-.73,8.67c-2.84.11-9.66.24-25.93.24-13,0-25.53-.08-25.53-.08l-2.45,0-.14,2.45-.83,14.21-.16,2.66,2.67.07,51.06,1.25c-.35,3.18-.83,7.86-1.12,10.57-12.44.57-57.67.86-58.15.86l-2.57,0v19.19H417c19.25,0,83.73,1.14,84.38,1.15l2,0,.54-1.9c6.6-22.65,5.9-65.08,5.07-79.52l-.15-2.5-2.51.07-31.75.91L476,9.8Zm30.38,5.67-2.13,3c-3,4.3-13.93,12.34-17.87,15.07L481.93,34l5.41,1.44a69,69,0,0,0,17.27,2.68c5.62,0,10.12-1.21,13.76-3.71L520.51,33,519,30.85l-10.41-15ZM429,15.33l-2.26.87-13.88,5.28-1.83.69.17,1.95c.35,4,4.16,15.07,4.6,16.32l.8,2.3,2.34-.67c6-1.72,15.85-7.27,16.27-7.5l2.06-1.17-1-2.15L430,17.53Z"/><path class="cls-2" d="M630.73,110.19c-.07-.09-6.58-8-10.72-11.11a16.29,16.29,0,0,1-13.25,6.47,19.31,19.31,0,0,1-3-.23c-10.49-1.64-15.59-9.51-15.2-16.45.42-9.82,8.18-14.22,15.67-14.22a20.94,20.94,0,0,1,4.85.57,151.7,151.7,0,0,0-1-15.35c-3.64-.09-15.17-.43-17.57-.86l-1-.18-.85-18.1H590s9,0,16.47-.31l-2-13.65,19.12-.44-.12,1.43c-.27,3.07-.87,10.72-.9,14L639,41.31l1.59,16.39-1.18.2c-.37.06-8.48,1.42-14.7,1.81.21,4.1.8,16.67.06,22.11a67.21,67.21,0,0,1,17.54,15.23l.65.82-11.2,13.53ZM604.17,87.8a2.39,2.39,0,0,0-2.23,1.12l0,1.67a3.13,3.13,0,0,0,2.73,1.35,6.64,6.64,0,0,0,4.72-2.15,13,13,0,0,0-4.59-1.94ZM561,106.62c-6.6-12.93-8.23-36.86-4.71-69.2l.14-1.28,17.44,1.91-.3,1.4c-1.89,8.58-6,29.79-4,45.45,2-.65,5.87-2,10.67-4.08l4.43-1.91-2.88,3.87c-.13.17-13.21,17.68-18.62,24.08l-1.25,1.48Z"/><path class="cls-3" d="M622.19,27.65s-1.11,12.88-.87,15.48l16.47-.49,1.36,14s-9.53,1.6-15.84,1.86c0,0,1.11,18.57,0,24a65.16,65.16,0,0,1,18,15.35l-9.54,11.52s-7.92-9.66-12.13-12.13c-1.21,2.63-5.83,7-12.83,7A18,18,0,0,1,604,104c-9.53-1.48-14.49-8.42-14.11-15.1.38-8.87,7.14-13,14.38-13a19.86,19.86,0,0,1,6.17,1s-.12-11.76-1.24-18.32c0,0-15.72-.38-18.45-.87L590,42s10.28,0,18-.37L606,28l16.22-.38M604.71,93.23c3.28,0,6.71-2.77,5.84-3.55-2.22-2-3.09-2.6-5.45-3.09l-.93-.08c-3.18,0-4.52,2.86-3.27,4.78a4.45,4.45,0,0,0,3.81,1.94M557.56,37.56l14.74,1.61c-1.86,8.42-6.32,31.2-3.84,47.42A118,118,0,0,0,580.71,82s-13.12,17.59-18.57,24c-5.57-10.9-8.54-32.07-4.58-68.47M625,25l-2.88.06-16.22.37-2.91.07.42,2.89L605,39.19c-7,.24-14.89.25-15,.25h-2.71l.13,2.7.74,15.72.1,2,2,.37c2.29.41,12.12.73,16.67.85.49,4,.72,9.2.82,12.5a22.86,22.86,0,0,0-3.51-.27c-8.11,0-16.5,4.78-17,15.47-.42,7.49,5,16,16.29,17.76a19.49,19.49,0,0,0,3.17.25,17.86,17.86,0,0,0,13.45-5.94A96.65,96.65,0,0,1,629.73,111l2,2.42,2-2.42,9.53-11.51,1.34-1.61-1.3-1.64A68.76,68.76,0,0,0,626.1,81.14c.56-5.4.16-15.41-.08-20.23,6.07-.48,13.22-1.68,13.56-1.74l2.38-.4-.24-2.4-1.36-14-.23-2.4-2.42.07-13.81.41c.13-3.32.55-8.94.86-12.6Zm-20.3,65.64L603,89.8l1.17-.71.52,0a5.33,5.33,0,0,1,2.27.93ZM555.27,34.71,555,37.28c-3.55,32.59-1.87,56.77,4.85,69.92l1.76,3.46,2.5-3c5.44-6.44,18.13-23.43,18.67-24.15l5.77-7.73-8.86,3.82c-3.75,1.61-6.92,2.78-9.05,3.52C569.16,67.89,573,48,574.82,39.72l.62-2.8-2.86-.32L557.84,35Z"/><path class="cls-2" d="M764.33,128.58l1-47.61-2,.16c-1.38.11-2.18.17-2.82.17l-1.59-.14.49,24.75-15.14-1,0-1.19c-.07-3.72-.64-36.49.39-39.74l.27-.86,20.51-.81.33-19.37,17.35-.2L784.37,63l20.21.5,0,1.23c0,.33.66,33.09-.33,45.73l-.19,2.42-1.9-1.51c-.13-.1-12.91-10.25-18.58-14l-.86-.56.23,32.37ZM791.11,95,791,81.16c-1.54,0-4.21-.11-6.37-.11l-2,0L782.74,95ZM686.53,118.72c0-1,1.48-95.22,1.16-101.7l-.07-1.44,16.36,1,.31,37.76,10.86-9.54,9.94,14L714,68l-.83-.89c-.26-.28-6.28-6.79-8.85-11.17l.52,62.7-18.31,1.54Zm-22.66-53c4.93-6,10.53-12.81,11.11-16.89l.41-2.87,11.89,14.24-.89.83c-.32.3-8,7.28-22.16,7.62l-2.82.06Zm56.55.6c19.23-14.41,23.07-24.45,23.82-31-4,.13-15,.46-17.75.46h-1.23l-.8-15.32,25,.17-.66-19.24,22.63,1.32L769,20.91c6.85-.2,34.69-1,39.55-1.44l1.46-.13-.78,18.1-1.27,0c-1.59,0-36.77-1-43.84-1.43-5.39,15.18-19.67,32.48-42.86,32.66l-3.92,0Z"/><path class="cls-3" d="M750.12,2.74,770,3.9l-2.48,18.34s35.52-1,41.14-1.49L808,36.12S766.31,35,763.17,34.63c-5.45,16.36-20.32,32.55-42,32.72C740.37,53,745.16,42.4,745.66,34c0,0-15.87.5-19.17.5l-.66-12.73,24.95.17-.66-19.17M689,17l13.71.83.83,99.63-15.7,1.33S689.31,23.56,689,17m92.86,27.1,1.32,20.16,20.16.5s.66,32.88-.33,45.6c0,0-12.89-10.24-18.67-14h8.1l-.17-16.35s-4.4-.15-7.64-.15a19.28,19.28,0,0,0-3.26.15l.33,47.91-16-.49,1-47.75c-3.72.26-5.16.43-6.18.43a13.31,13.31,0,0,1-2.91-.43l.5,25-12.56-.83s-.66-36.19.33-39.33l20.82-.82L767,44.22l14.87-.17m-66.92,2.64,8.43,11.9s-5.62,4.63-9.25,7.6c0,0-6.28-6.77-8.76-11.07l9.58-8.43M676.26,49l9.25,11.08s-7.44,6.94-21.32,7.27c5.29-6.44,11.41-13.72,12.07-18.35M747.44,0l.1,2.83.57,16.48-22.27-.15-2.74,0,.15,2.74.66,12.72.13,2.45h2.45c2.41,0,11.47-.26,16.25-.41-1.15,6.31-5.67,15.58-23.09,28.64l-4.38,3.29.46-.38L725,60.58l1.86-1.52-1.39-2L717,45.2l-1.66-2.34-2.15,1.89-7.67,6.74-.27-33.73,0-2.41-2.41-.15-13.71-.82-2.88-.18.14,2.88c.13,2.64,0,20-.28,39.7l-7.88-9.43-3.72-4.45-.82,5.74c-.53,3.72-6.24,10.67-10.83,16.26l-.67.81-3.57,4.35,5.63-.13c11.58-.27,19-4.88,21.78-7-.35,26.72-.79,55.21-.8,55.73l0,2.85,2.85-.24,15.7-1.32,2.38-.21,0-2.39-.47-57.26c2.85,3.79,6.37,7.61,6.57,7.82l1.6,1.72-.42.32,7.84-.06a43.39,43.39,0,0,0,22.06-6c-.94,4.42-.52,31.49-.37,39.85l0,2.38,2.37.16,12.55.82,2.81.19,0-2.81-.44-21.89h.27c.66,0,1.49-.06,2.92-.18l.62,0-.93,44.9-.06,2.56,2.56.08,16,.49,2.68.09v-2.68l-.2-28.61c6,4.16,17.2,13,17.32,13.13l3.8,3,.38-4.84c1-12.7.37-44.51.34-45.85l0-2.47-2.47-.07-17.8-.43-1.16-17.81-.16-2.44-2.45,0-14.87.17-2.51,0,0,2.5-.29,16.9-17.54.69A53.51,53.51,0,0,0,765,37.32c8.63.42,39.1,1.27,42.93,1.38l2.54.07.1-2.54.66-15.37.13-2.94-2.93.26c-4.52.4-29.24,1.14-38,1.39L772.5,4.24l.37-2.76-2.77-.16L750.27.17Zm36.5,82.34h.67c1.64,0,3.58,0,5.08.08l.12,11.26H784Z"/><path class="cls-2" d="M892.91,113.79c-.36-.35-36.55-34.91-52.91-46l-1.37-.94,1.24-1.1c.43-.37,42.53-37.57,53.28-46l1.05-.83L906.71,36l-1,.77c-1.15.92-26.29,21.05-34.57,27,20,12,25.56,15.73,29.64,18.47,2.85,1.89,4.89,3.26,10.71,6.67l1.24.73L894,114.79Z"/><path class="cls-3" d="M893.94,20.74l11,15s-30.51,24.44-36.15,28.05C904.94,85.52,896.55,81.62,910.87,90L893.8,112.85S857.36,78,840.73,66.73c0,0,42.37-37.45,53.21-46m.51-3.68-2.1,1.66c-10.78,8.47-51.6,44.54-53.33,46.07L836.53,67l2.75,1.87c16.26,11,52.38,45.51,52.74,45.86l2.11,2,1.74-2.33,17.06-22.85,1.73-2.31-2.49-1.46c-5.79-3.39-7.82-4.75-10.64-6.63-4-2.66-9.36-6.25-28-17.49,9.57-7.06,32-25,33-25.86l1.93-1.55-1.46-2-11-15Z"/><path class="cls-2" d="M1030.53,128.35a41.3,41.3,0,0,1-4.19-.23c-10.1-.52-21.28-8.84-22-23.2,0-13.73,10-23.42,25.64-25a87,87,0,0,0-4.42-18.06l-.52-1.46L1051,56.3l.24,1.21a151.13,151.13,0,0,1,3.26,23,142.42,142.42,0,0,1,22.77,7.79l1.08.48-7.52,21.27-1.35-.8c-.09,0-8.44-5-14.8-6.59.16,5.52-1.36,13.07-6.27,18.52C1044.1,125.94,1038.09,128.34,1030.53,128.35ZM1029,98.88a4.4,4.4,0,0,0-4.38,4.16c-.23,1.92.23,4.21,2.26,4.89l1.85.27c3.16,0,4-2.72,4.22-4.34a4.54,4.54,0,0,0-.74-3.75A4.17,4.17,0,0,0,1029,98.88Zm-48.38-26,.11-1.35c0-.13,1-12.35,1.29-21.38-3.6.48-12.52,1.63-14.71,1.63h-1.24l-.92-24.24,1.36,0s10.13.14,16.64.29L980.54,11.5l22.68-2.08-1,19.19,17.65-1.33-.74,23.06-14.88-.5-.82,24Zm97-22.09s-14.72-.66-29.27-1.48l-1.17-.07-.75-23.37,1.36,0s9.76.23,18.85.23c4.53,0,8.89-.06,11.78-.23l1.42-.08-.93,25Z"/><path class="cls-3" d="M1001.86,10.84l-1,19.17,17.69-1.33L1017.89,49,1003,48.51l-.83,24L982,71.64s1.16-13.71,1.32-23c0,0-13.38,1.81-16,1.81l-.82-21.64s11.89.16,18.17.33L982,12.66l19.83-1.82m76.67,16.35-.83,22.31S1063,48.84,1048.46,48l-.67-20.83s9.77.23,18.87.23c4.56,0,8.95-.06,11.87-.23m-28.59,30.57a150.57,150.57,0,0,1,3.31,23.8,141.07,141.07,0,0,1,23.46,7.93l-6.61,18.67s-10.08-6-16.85-7.1c.93,9-3.09,26-22.72,26a38.67,38.67,0,0,1-4-.23c-9.59-.49-20.16-8.26-20.82-22,0-12.89,9.75-22.64,25.78-23.8a83.57,83.57,0,0,0-4.63-19.66l23.13-3.64m-21.2,51.73c3.32,0,5.09-2.45,5.5-5.46.66-4.63-2.14-6.44-5.28-6.44a5.7,5.7,0,0,0-5.62,5.45c-.33,2.64.66,5.29,3.14,6.11l2.26.34M1004.59,8l-3,.28-19.83,1.82-2.75.25.44,2.73,2.15,13.46c-6.45-.14-15.1-.26-15.1-.26l-2.71,0,.1,2.72.82,21.64.1,2.48h2.48c2,0,9.17-.89,13.37-1.43-.31,8.78-1.22,19.66-1.23,19.78l-.23,2.69,2.69.11,20.16.83,2.6.1.09-2.59.74-21.38,12.29.41,2.58.08.09-2.58.66-20.32.09-2.88-2.86.22-14.77,1.1.84-16.24Zm76.62,16.47-2.83.16c-2.89.16-7.21.21-11.72.21-9.07,0-18.8-.22-18.81-.22l-2.72-.06.08,2.72.67,20.83.07,2.36,2.36.13c14.55.83,29.28,1.49,29.28,1.49l2.59.12.1-2.6.83-22.31ZM1052,54.83l-2.45.38-23.14,3.64-3.07.48,1.05,2.94a88.61,88.61,0,0,1,4.18,16.5c-15.36,2.1-25.48,12.32-25.48,26.09.73,15.25,12.53,24,23.26,24.55a39.36,39.36,0,0,0,4.19.23c8,0,14.27-2.55,18.8-7.57,4.69-5.2,6.46-12,6.61-17.67a77.82,77.82,0,0,1,12.85,6l2.7,1.6,1-3,6.61-18.67.79-2.23-2.15-1a140.9,140.9,0,0,0-22.09-7.64,151.54,151.54,0,0,0-3.22-22.24Zm-23.25,52.08-1.57-.25c-1.16-.38-1.43-2-1.27-3.3a3.22,3.22,0,0,1,3.27-3.2l2.07.79.45,2.72C1031.4,105.82,1030.41,106.91,1028.74,106.91Z"/><path class="cls-2" d="M1149.51,106c-.79-.67-19.29-16.77-19.79-62.11V42.77l25.41-3.86v1.52c-.09,8,.5,29.36,4.11,36l21.34-4.85L1171,81.94c-8.82,9.41-11.48,12.25-19.55,23.82l-.81,1.16Zm85.67-2.75c-8-5.74-24.12-17-28.42-18.5L1201.69,83l5.32-.71s8.42-1.12,13-1.43c1.15-15.69-5.5-30.79-12.24-39.81l-1.16-1.56,24.64-6,.41,1.06c8,20.94,9.78,43.15,5.52,67.93l-.35,2Z"/><path class="cls-3" d="M1230.48,35c5.29,13.88,10.91,35.53,5.46,67.25,0,0-23.14-16.69-28.76-18.67,0,0,9.92-1.32,14-1.48,1.49-15.37-4.62-31.4-12.39-41.81L1230.48,35m-76.66,5.46s-.34,30.23,4.78,37.5l18.18-4.13c-14.54,15.7-16.52,17-26.44,31.23,0,0-18.83-15.86-19.33-61.14l22.81-3.46m78.26-8.51-2.21.55-21.65,5.28-3.78.93,2.33,3.12c6.43,8.63,12.79,22.91,12,37.84-4.68.38-11.63,1.31-12,1.35l-10.64,1.43L1206.33,86c3.86,1.36,18.92,11.71,28.09,18.32l3.36,2.42.7-4.07c4.3-25,2.47-47.45-5.59-68.61Zm-75.65,5.5-3,.45-22.81,3.47-2.21.34,0,2.24c.5,45.93,19.44,62.41,20.25,63.09l2.16,1.82,1.62-2.32c8-11.49,10.66-14.32,19.43-23.68,1.93-2.06,4.15-4.43,6.78-7.27l5.67-6.12-8.13,1.85L1159.93,75c-2.76-6.51-3.65-24.09-3.53-34.52Z"/><path class="cls-2" d="M362,297.44c-.23-.4-5.69-9.89-8.33-16.18l-.46-1.09,13.44-7,.66.9s5.1,7.08,9.7,12.84l.86,1.07-15.17,10.69ZM313.19,284l1.65-.77c3.83-1.75,14.25-7,16.53-10l.86-1.14,13.33,12.34-1.06.95a98.67,98.67,0,0,1-16.94,12.08l-.86.45Zm78.38,10.59c-.23-.44-5.54-10.76-6.39-14.34l-.26-1.1,13.94-5.42.57.92c0,.07,4.78,7.73,7.67,11.26l1,1.2-15.91,8.65Zm38.16.7c-.55,0-1.83,0-15.08-12.08l-1-.87,11.86-12.71.49,2.46c.33,1.64,7.21,6.51,13.42,10l1.36.77-10.48,12.39ZM360,269.89c-13.07,0-23.37-.19-30.61-.56l-1.28-.06.78-17,1.21,0s28.68-.45,39.46-.49l-.87-5c-3.35,0-14.06-.15-25.68-.15h-1.26l-.39-16.45h1.31s16.43-.15,26.55-.16l-.47-6.87c-4.07.44-16.5,1.71-25.23,1.84l-1.26,0-1.91-55.33,1.35,0s12.7.19,29.27.19c18.72,0,34.43-.23,46.68-.68l1.37,0,0,1.37c-1.15,46.25-1.33,46.67-3.5,51.83l-.32.77-.93.21s-8.75.15-16,.15c-2.78,0-5.33,0-7.08-.08l-.12,6.61h3.44c17.67,0,20.66-.48,21.16-.62l1.74-.51-.81,16.3L415.3,245s-17.84-.72-24.5-.81l-.21,4.53c2.77,0,9.44.11,16.4.11,15.71,0,19.44-.37,20.27-.58l1.64-.43-.39,20.94-1.23,0C426.92,268.85,390.66,269.89,360,269.89Zm31.43-60.45c2.82,0,6.65-.29,8.38-.43a23,23,0,0,0,.17-4.73l-8.59.39Zm-32.21-.67,2.73.14a46.17,46.17,0,0,0,7.69-.75V203.6l-10.2.27Zm-.33-17a105,105,0,0,0,11.3.79l.23-6-11.31-.14Zm32.55.13a55.29,55.29,0,0,0,8.71-.91l.56-5.14-9,.64Z"/><path class="cls-3" d="M417.67,170.39c-1.16,46.6-1.33,46.43-3.48,51.55,0,0-8.74.15-15.94.15-3.59,0-6.81,0-8.35-.15l-.16,9.26h4.75c7,0,19.52-.08,21.52-.67l-.66,13.21s-20.49-.83-25.78-.83l-.33,7.11s8.64.12,17.74.12,18.7-.12,20.6-.61l-.33,18S391,268.6,360,268.6c-11.65,0-22.56-.15-30.54-.56l.66-14.54s31.73-.49,41-.49l-1.32-7.61s-12.73-.16-26.77-.16l-.33-13.88s18-.16,27.92-.16l-.66-9.59s-15.86,1.82-26.44,2l-1.82-52.7s12.71.18,29.29.18c14.57,0,32.12-.14,46.73-.68m-15.54,14-11.73.83-.33,7.93A53.08,53.08,0,0,0,401.3,192l.83-7.61m-30.73,9.42.33-8.59-13.88-.17-.33,7.77a105.59,105.59,0,0,0,13.88,1m-9.48,16.35a47,47,0,0,0,9-1v-6.94l-12.72.33-.33,7.27a23.55,23.55,0,0,0,4.07.32m29.48.53c3.81,0,9.41-.52,9.41-.52.83-2.64.33-7.27.33-7.27l-11.07.5v7.27l1.33,0m33.37,61.61c.66,3.3,14.05,10.9,14.05,10.9L429.73,294c-1.33,0-14.22-11.74-14.22-11.74l9.26-9.91M332.4,274l11.24,10.41A98,98,0,0,1,327,296.3l-11.57-11.9s14.05-6.44,17-10.41m33.88.83s5.12,7.1,9.75,12.89l-12.89,9.08s-5.62-9.74-8.26-16l11.4-5.94m32.05.49s4.79,7.77,7.77,11.4L392.72,294s-5.46-10.58-6.29-14.05l11.9-4.63m22-107.61-2.74.11c-12.23.45-27.92.68-46.63.68-16.56,0-29.24-.19-29.25-.19l-2.71,0,.09,2.72,1.82,52.71.09,2.53,2.53,0c8.08-.13,19-1.18,24-1.71l.28,4.15c-10.16,0-25.18.16-25.18.16l-2.62,0,.07,2.61.33,13.88.06,2.52H343c10.57,0,20.39.1,24.59.14l.43,2.48c-11.74.07-37.95.48-37.95.48l-2.43,0-.11,2.42-.66,14.55-.12,2.56,2.56.13,2.34.11-1.29,1.71c-1.88,2.51-10.83,7.23-16,9.61L311,283.58l2.55,2.62,11.57,11.9,1.35,1.39,1.71-.91a98.72,98.72,0,0,0,17.2-12.27l2.11-1.89-2.08-1.92-11.23-10.41-1.43-1.32c6.95.27,16.09.41,27.24.41,24.6,0,52.8-.67,63.21-.94l-.3.34-9.25,9.91-1.79,1.91,1.93,1.76c13.63,12.41,14.92,12.41,16,12.41h1.19l.78-.92,9.09-10.74,2-2.37-2.7-1.54c-6.19-3.52-12.19-7.87-12.83-9.31l-.31-1.55h.37l2.46-.07.05-2.47.33-18,.06-3.39-3.29.85c-.49.12-3.36.53-19.95.53-6,0-11.79,0-15-.08l.09-2c7.31.15,23,.78,23.22.79l2.55.1.13-2.55.66-13.21.18-3.64-3.49,1c-1,.26-7.06.57-20.79.57h-2.12l.07-4c1.62,0,3.65,0,5.81,0,7.22,0,16-.15,16-.15l1.69,0,.65-1.55c2.34-5.56,2.52-6,3.68-52.49Zm-27.43,20,6.35-.45-.28,2.64a55.72,55.72,0,0,1-6.19.67Zm-32.69,2.94.13-2.91,8.72.1-.13,3.41C366.74,191.16,363.42,191,360.19,190.62Zm.46,14.51,7.67-.2v2.14a43,43,0,0,1-6.4.55l-1.38,0Zm32,.77,6.06-.27-.08,2.17c-1.6.13-3.93.28-6,.34Zm-25.59,65.59-2,1-11.4,6-2.11,1.09.93,2.19c2.67,6.36,8.17,15.92,8.4,16.32l1.41,2.45,2.31-1.63,12.89-9.09,2.25-1.58L378,286.09c-4.53-5.66-9.62-12.71-9.67-12.78Zm32.34.63-2,.79-11.89,4.62-2.1.82.52,2.19c.88,3.67,5.93,13.52,6.5,14.63l1.21,2.34,2.32-1.26L407.33,289l2.74-1.49-2-2.41c-2.82-3.46-7.52-11.05-7.56-11.13Z"/><path class="cls-2" d="M486.44,266.29c-.69-.59-16.94-14.73-17.37-54.48v-1.12l22.56-3.43v1.52c-.08,6.93.42,25.43,3.51,31.34l19.07-4.33-8.75,9.4c-7.71,8.24-10.05,10.73-17.11,20.85l-.8,1.16Zm75-2.4c-5.59-4-20.94-14.8-24.83-16.18l-5.06-1.79,5.32-.7s7.2-1,11.27-1.25c1-13.63-4.84-26.74-10.69-34.58l-1.16-1.57,21.94-5.36.4,1.07c7,18.35,8.57,37.82,4.84,59.53l-.35,2Z"/><path class="cls-3" d="M557.41,204c4.62,12.14,9.54,31.09,4.77,58.85,0,0-20.24-14.6-25.16-16.34,0,0,8.68-1.16,12.29-1.3,1.3-13.45-4-27.47-10.85-36.59L557.41,204m-67.09,4.77s-.3,26.46,4.18,32.82L510.41,238c-12.72,13.74-14.46,14.89-23.13,27.33,0,0-16.49-13.88-16.92-53.51l20-3M559,200.94l-2.21.54-18.94,4.63-3.79.92,2.33,3.13c5.56,7.45,11.06,19.74,10.5,32.62-4.1.35-9.91,1.12-10.21,1.16l-10.63,1.41,10.11,3.58c3.33,1.18,16.8,10.44,24.51,16l3.35,2.42.7-4.07c3.77-21.95,2.17-41.64-4.91-60.21Zm-66.07,4.81-3,.46-20,3-2.22.34,0,2.24c.44,40.34,17.12,54.86,17.83,55.46l2.17,1.82,1.61-2.32c7-10,9.32-12.52,17-20.71l5.92-6.35L518,233.6l-8.13,1.85-14,3.18c-2.32-5.8-3.06-20.85-3-29.84Z"/><path class="cls-2" d="M668.53,289.78c-26.93,0-44.88-.55-53.36-1.62l-1-.13-.09-1c0-.33-3.14-33.51-2.32-51.24l.06-1.23H630l0,1.32c0,.31-.57,28.93-.51,36.2,4.85.06,23.16.28,42.13.28,33.82,0,44.47-.68,47.67-1.19l-.16-31.68,20.18.39-.09,1.35s-2.3,35.52-3,46.58l-.07,1.19L735,289C703.79,289.64,681.63,289.78,668.53,289.78Zm21.63-35.69c-18.58,0-42.58-.31-51.41-1.79l-1.08-.19.17-55,1.21-.07c1-.05,22.25-1.28,28.74-1.47L668,190c-4.6.05-19.75.2-28.43.2-2.61,0-6.87-.08-6.87-.08l-.18-18.74h1.3c.8,0,80.62-.17,84.32-.49l1.42-.13-.2,17.23s-24.94.3-31.85.34l.12,7.4,26.24,1.15.06,1.19c.06,1.7,1.62,41.79-1.19,54.85l-.22,1h-1S702.23,254.09,690.16,254.09Zm-31.07-14.83c1,.06,2,.08,3.06.08,2.46,0,4.76-.14,6.09-.24V232l-9.15-.12Zm32.75,0a43.3,43.3,0,0,0,4.87-.27l.22-5.59-6.61.35v5.49Zm-3.22-20.13c1,.07,2,.1,3,.1,1.73,0,3.39-.08,4.43-.14l.34-5.74-8,.12Zm-32.43-.81c3.57.32,8,.38,10.41.38h1.14v-6.44l-11.21.68Z"/><path class="cls-3" d="M718.28,172.21l-.17,14.54s-27.59.33-31.89.33l.16,9.91,26.27,1.16s1.66,41.47-1.15,54.52c0,0-9.28.13-21.34.13-18.07,0-42.38-.29-51.2-1.77l.17-52.72s25.61-1.49,29.9-1.49l.34-8.09s-19.46.21-29.78.21c-2.59,0-4.6,0-5.59,0l-.16-16.2s80.63-.16,84.44-.49M666.6,220c1.48,0,2.43,0,2.43,0v-9.09l-13.71.83-.5,7.76a114.17,114.17,0,0,0,11.78.52M697.79,212l-10.75.16.34,8.1a35.54,35.54,0,0,0,4.26.22c2.93,0,5.65-.22,5.65-.22l.5-8.26m-35.64,28.6c3.87,0,7.38-.35,7.38-.35V230.7l-11.73-.16v9.91c1.39.14,2.9.18,4.35.18M698.28,232l-9.25.5v7.93c1,.07,1.93.09,2.81.09a41.42,41.42,0,0,0,6.11-.42l.33-8.1m-69.57,3.8s-.66,33.22-.49,37.51c0,0,21.24.29,43.41.29s45.16-.29,49-1.44l-.17-31.4,17.52.33s-2.32,35.53-3,46.6c-9,.18-38.36.78-66.43.78-22.14,0-43.43-.37-53.2-1.61,0,0-3.14-33.21-2.31-51.06h15.69m92.18-66.43-2.84.25c-3,.26-61.82.43-84.21.48h-2.61l0,2.61.16,16.19,0,2.47,2.47.09c1,0,3.05,0,5.67,0,8,0,21.36-.12,27.08-.18l-.12,3c-7.62.28-26.66,1.38-27.57,1.44l-2.43.14v2.42L636.38,251v2.19l2.16.36c8.92,1.5,33,1.82,51.63,1.82,12.09,0,21.38-.14,21.38-.14l2.05,0,.43-2c2.84-13.22,1.28-53.47,1.21-55.17l-.09-2.38-2.37-.1-23.85-1-.08-4.88c8.18-.06,29.3-.31,29.3-.31l2.52,0,0-2.52.17-14.54Zm-63.14,44.75,8.7-.53v3.79c-2.16,0-5.72-.05-8.89-.28Zm32,.59,5.31-.08-.19,3.2c-.93,0-2.05.08-3.21.08l-1.78,0ZM660.38,238v-4.88l6.57.1v4.64c-1.3.09-3,.16-4.8.16ZM691.61,235l4-.21-.12,3.06c-1,.08-2.21.15-3.62.15h-.23Zm-60.26-1.72h-20.8l-.11,2.46c-.82,17.83,2.19,50.06,2.32,51.42l.2,2.06,2,.26c8.54,1.08,26.55,1.63,53.53,1.63,13.12,0,35.29-.14,66.48-.78l2.39-.05.14-2.38c.66-11.07,3-46.58,3-46.58l.18-2.7-2.7-.05-17.52-.33-2.64,0v2.64L718,270c-3.93.45-15,1-46.37,1-17.6,0-34.6-.19-40.86-.26,0-8.78.52-34.61.53-34.91Z"/><path class="cls-2" d="M818,287.72c-25.76,0-42.3-1.15-49.15-3.42L768,284l1.19-67.92,1.19-.07c.27,0,26.55-1.52,34.94-1.52h1a107,107,0,0,0,6.16-15.16c-4.69.22-9.35.32-14.12.32-7.87,0-16.33-.29-25.87-.9l-1.11-.06-1.87-21.84h1.4s35.5-.17,65.26-.17c24.26,0,37.65.11,39.8.34l1.3.15-2.6,21.37-1.06.06c-1.29.08-30.5,1.86-39.69,2a40,40,0,0,1-8.11,12.34c10.81.17,42.85.67,47.3.95l1.15.07.06,1.15c.11,2.19,2.8,54,1.48,70.07l-.09,1.13-1.13.05C874.3,286.36,845.6,287.72,818,287.72Zm-1.94-15.56c3.69,0,8.36-.44,10.45-.66l.21-4.79-12.23.13v5.29Zm-28.34-3.33c4,.29,8,.37,10,.39l.61-34.69-10.62.54Zm57.75-3.42a94.57,94.57,0,0,0,13.64-1.09l-1.53-29.41L843,234.2c0,5.72-.38,25.45-.5,31.14C843.48,265.39,844.5,265.41,845.49,265.41Zm-30.63-10.32c3.88,0,10.09-.43,12.71-.63l-.21-4.75-13.34.42v5Zm-1.7-17.62,2.42.09a97.47,97.47,0,0,0,12.06-1l-.5-3.66-14.08,1Z"/><path class="cls-3" d="M836.18,178c19.89,0,37.22.08,39.67.34l-2.32,19s-32.38,2-40.48,2c0,0-3.8,10.09-10.74,14.87,0,0,45.44.67,50.73,1,0,0,2.81,53.7,1.49,69.89,0,0-28.64,1.37-56.51,1.37-20.65,0-40.88-.75-48.75-3.35l1.16-65.77s26.41-1.52,34.86-1.52l1.82,0s4.95-9.59,7.11-17.85c-5.29.27-10.5.4-15.85.4-8,0-16.37-.3-25.79-.89l-1.66-19.34s35.5-.17,65.26-.17m-20.6,60.87a103.48,103.48,0,0,0,13.51-1.21l-.83-6.12-16.52,1.16.16,5.95a27.27,27.27,0,0,0,3.68.22m29.91,27.85a93.88,93.88,0,0,0,15-1.3l-1.65-31.72-17.19-.83c.17,1.65-.49,33.71-.49,33.71,1.45.1,2.91.14,4.34.14m-45.81-33.52-13.23.66V270c6.12.49,12.56.49,12.56.49l.67-37.34m15.18,23.2c5.06,0,14.06-.73,14.06-.73l-.33-7.27-15.86.5v7.43l2.13.07m13.23,9-14.87.16v7.77a27.23,27.23,0,0,0,2.86.12c5,0,11.69-.78,11.69-.78l.32-7.27m8.09-90c-29.77,0-65.27.17-65.27.17l-2.8,0,.24,2.79L770,197.71l.18,2.21,2.23.15c9.56.59,18.05.89,26,.89,4.16,0,8.22-.08,12.34-.24a110,110,0,0,1-5.18,12.49h-.24c-8.43,0-33.93,1.46-35,1.53l-2.39.13,0,2.4L766.69,283l0,1.9,1.81.6c7,2.31,23.66,3.48,49.56,3.48,27.62,0,56.34-1.36,56.63-1.37l2.27-.11.18-2.25c1.32-16.19-1.37-68-1.48-70.25l-.12-2.3-2.3-.14c-4.13-.26-31.72-.7-44.48-.9a43.71,43.71,0,0,0,6-9.83c10.05-.2,37.68-1.89,38.92-2l2.15-.13.26-2.13,2.31-19,.32-2.59-2.6-.29C875.3,175.66,872.8,175.4,836.18,175.4Zm-21.8,59.68,11.65-.81.15,1.17a88.6,88.6,0,0,1-10.6.83l-1.16,0Zm29.4,29c.15-7.55.43-22.19.46-28.54l12.14.58,1.4,27.07a92.13,92.13,0,0,1-12.29.91ZM789,236.29l8-.4-.56,32c-1.89,0-4.61-.11-7.45-.29Zm26.28,15.09,10.82-.34.1,2.22c-2.87.21-7.64.51-10.92.54Zm.5,16.73,9.58-.1-.1,2.32c-2.35.23-6.16.54-9.21.54h-.27Z"/><path class="cls-2" d="M1021,288.21c-.34-.16-33.64-16.28-50.3-46-9.46,18.19-25,38.37-59.44,40.49l-4.14.25,3.26-2.56c37.74-29.65,46.78-47.89,52.8-64l.07-8.7c0-2.83.07-5.48.14-8.13L941,201.19l1-19.82L980.69,180l-.18,1.5c-3.55,29,7.79,48.75,17.93,60.2,13.77,15.56,30.77,22.29,36.41,22.3h2.32l-1,2L1022,288.71Z"/><path class="cls-3" d="M979.23,181.29c-7.07,57.8,43.15,84,55.61,84h.23l-13.54,21.82s-34.7-16.53-50.9-47.59c-9.41,18.83-24.45,39.82-59.48,42,38.5-30.23,47.42-49.07,53.21-64.6.16-7.27.16-12.89.32-18.67l-22.3,1.65.83-17.19,36-1.32m2.92-2.69-3,.11-36,1.32-2.37.09-.12,2.37-.82,17.18-.14,2.92,2.91-.22L962,200.93c0,2.19-.07,4.39-.1,6.72,0,2.68-.08,5.53-.15,8.68-5.95,15.87-15.06,33.87-52.23,63.06L903,284.51l8.26-.51c33.82-2.07,49.69-21.18,59.41-39.1,17.11,28.71,48.33,43.82,49.71,44.47l2.08,1,1.22-2,13.55-21.81,2.53-4.08-4.8.13h0c-5.6,0-22.09-6.59-35.59-21.84-10-11.26-21.11-30.66-17.62-59.2Z"/><path class="cls-2" d="M1177.73,299.23c-5.81-5.4-21.51-19.78-24.4-21.48l-4.07-2.4h16.29c-.18-7.44-1.12-44.08-1.85-55.25a182,182,0,0,1-21.71,1.37c-3.38,0-6.9-.11-10.41-.39l-1.13-.09-2.1-45.26,1.33,0s44-.83,47.11-.83H1178l0,1.25c0,1,3,99.62,1.82,122.22l-.14,2.76Zm-30.29-92a42.51,42.51,0,0,0,5.58.35,52.06,52.06,0,0,0,5.84-.34l-.41-4.24-11.19,1.21Zm-1.15-15.22c4-.12,9.9-.73,12.35-1v-3.18h-12.55Zm-85,96.09c1.38-29.15,4.84-105.61,4.32-109.31l-.22-1.47h1.49c9.74,0,41.71.06,44.06.9l.88.31-1.22,46.15-1.07.15a191.73,191.73,0,0,1-24.34,1.63c-1.58,0-3.19,0-4.8-.08l-.33,61.3-18.84,1.92Zm23.61-76.33c3.42,0,7.43-.31,9.33-.47l.21-4.83-11.18-.27.22,5.55Zm-2.82-18c1.31.09,2.73.12,4.1.12,2.34,0,4.53-.09,5.79-.16l.43-4.59h-10.22Z"/><path class="cls-3" d="M1176.79,176.17s3,99.31,1.82,122.11c0,0-21-19.5-24.62-21.64h12.89s-1.16-47.76-2-58a174.61,174.61,0,0,1-22.9,1.54c-3.34,0-6.83-.11-10.31-.39l-2-42.79s44-.83,47.09-.83m-31.73,17.19c5.13,0,14.87-1.16,14.87-1.16v-5.62h-15.19l.32,6.78m8,15.55a48.41,48.41,0,0,0,7.25-.52l-.66-6.77-13.72,1.48.33,5.29a42.29,42.29,0,0,0,6.8.52m-86.11-30.26s41.31,0,43.62.82l-1.16,44.12a188.81,188.81,0,0,1-24.15,1.62c-2,0-4,0-6.09-.13l-.32,61.47-16.2,1.65s5-104.93,4.3-109.55m26.93,9.25H1081l-.16,7.11c1.65.17,3.58.22,5.42.22,3.67,0,7-.22,7-.22l.66-7.11m-8.91,25.2c4.72,0,10.57-.57,10.57-.57l.32-7.28-13.87-.33.32,8.1c.81,0,1.71.08,2.66.08m94.37-39.51h-2.51c-3.13,0-45.34.79-47.14.83l-2.65.05.12,2.65,2,42.79.11,2.27,2.27.18c3.28.27,6.82.4,10.51.4a180.15,180.15,0,0,0,20.51-1.21c.68,11.83,1.49,43.19,1.73,52.51h-19.7l8.15,4.8c2.47,1.46,16.14,13.85,24.17,21.31l4.06,3.77.28-5.53c1.14-22.65-1.7-118.26-1.82-122.31Zm-31.86,15.57h9.91v.73c-2.48.27-6.54.66-9.83.82Zm1.18,16.24,8.67-.93.16,1.66c-1.17.1-2.71.2-4.43.2a43.56,43.56,0,0,1-4.36-.22Zm-81.71-29.33h-3l.42,2.93c.43,3.8-2.35,67.31-4.33,109.08l-.14,3,3-.31,16.2-1.64,2.3-.24,0-2.31.31-58.82c1.18,0,2.35,0,3.52,0a189.52,189.52,0,0,0,24.52-1.64l2.15-.31.06-2.18,1.16-44.12.05-1.87-1.76-.63C1109,176.19,1082.51,176.07,1066.91,176.07Zm16.56,14.41H1091l-.19,2.06c-1.24.06-2.88.11-4.61.11l-2.79-.05Zm1.28,20-.12-3,8.5.2-.11,2.38c-2.1.16-5.31.37-8.09.37Z"/><path class="cls-2" d="M48.36,233.49c-12.69,0-23.95-14.8-26.21-34.44-2.34-20.44,6.41-38.28,19.52-39.79a15.51,15.51,0,0,1,1.8-.1c12.69,0,24,14.81,26.2,34.44C72,214,63.26,231.89,50.16,233.39A15.51,15.51,0,0,1,48.36,233.49Z"/><path class="cls-3" d="M43.47,161.07c11.49,0,22.17,14.18,24.3,32.75C70,213.24,62,230.11,49.94,231.49a14,14,0,0,1-1.58.09c-11.49,0-22.18-14.18-24.3-32.75-2.23-19.42,5.75-36.28,17.82-37.67a14.12,14.12,0,0,1,1.59-.09m0-3.82h0a19.53,19.53,0,0,0-2,.11c-7.2.83-13.35,5.88-17.3,14.24-3.67,7.75-5,17.58-3.9,27.67,2.37,20.6,14.45,36.14,28.11,36.14a17.11,17.11,0,0,0,2-.12c7.2-.82,13.34-5.88,17.3-14.23,3.67-7.75,5-17.58,3.89-27.67C69.21,172.78,57.13,157.25,43.47,157.25Z"/><path class="cls-2" d="M120,233.49a15.69,15.69,0,0,1-1.81-.1c-13.1-1.5-21.85-19.35-19.51-39.79,2.25-19.63,13.52-34.44,26.2-34.44a15.69,15.69,0,0,1,1.81.1c13.1,1.51,21.85,19.35,19.51,39.79C144,218.69,132.68,233.49,120,233.49Z"/><path class="cls-3" d="M124.88,161.07a14.12,14.12,0,0,1,1.59.09c12.07,1.39,20.05,18.25,17.83,37.67-2.13,18.57-12.82,32.75-24.3,32.75a14.12,14.12,0,0,1-1.59-.09c-12.07-1.38-20-18.25-17.83-37.67,2.13-18.57,12.82-32.75,24.3-32.75m0-3.82c-13.66,0-25.74,15.53-28.1,36.14-1.16,10.09.23,19.92,3.89,27.67,4,8.35,10.1,13.41,17.3,14.23a17.15,17.15,0,0,0,2,.12c13.66,0,25.74-15.54,28.1-36.14,1.16-10.09-.23-19.92-3.9-27.67-3.95-8.36-10.09-13.41-17.29-14.24A19.57,19.57,0,0,0,124.88,157.25Z"/><path class="cls-4" d="M54.87,309.89c-2.66,0-5.82-.45-6.89-1.46a2.44,2.44,0,0,1-.78-2,3.15,3.15,0,0,1,.58-1.43,9.22,9.22,0,0,1-2.68.56,2.22,2.22,0,0,1-1.85-.79,1.82,1.82,0,0,1-.36-1.48,3.84,3.84,0,0,1,1.4-2,4.15,4.15,0,0,1-1.07.19,1.75,1.75,0,0,1-1.31-.64,1.59,1.59,0,0,1-.19-1.37c1.65-4.78,8.62-9.38,17.35-11.46,1.16-.28,2.36-.5,3.58-.68V229.81a1.44,1.44,0,0,1,1.44-1.44H77.48a1.44,1.44,0,0,1,1.44,1.44V289.7a6.53,6.53,0,0,1,2.59,3.74c1.55,6.5-8,12-17.46,15A31.12,31.12,0,0,1,54.87,309.89Z"/><path class="cls-3" d="M77.48,229.81v60.64a5.6,5.6,0,0,1,2.64,3.32c1.16,4.9-6.47,10.12-16.51,13.29a29.22,29.22,0,0,1-8.74,1.39c-3.23,0-5.43-.62-5.9-1.06-2.33-2.21,8-6.26,7-6.9l-.21,0c-1.44,0-8.24,3.63-10.64,3.63a.87.87,0,0,1-.72-.24c-1.13-1.43,9.6-6.88,9.5-7.3l-.25-.1c-1.49,0-9.23,3.54-10.41,3.54l-.14-.12c1.45-4.19,7.92-8.53,16.32-10.52a41.26,41.26,0,0,1,4.69-.82V229.81H77.48m0-2.87H64.09a2.86,2.86,0,0,0-2.87,2.87V286c-.84.14-1.67.31-2.48.5-9.33,2.22-16.54,7.08-18.37,12.39a3,3,0,0,0,.38,2.67,2.76,2.76,0,0,0,.88.82,3,3,0,0,0-.15.57,3.3,3.3,0,0,0,.64,2.63,3.67,3.67,0,0,0,3,1.33l.66,0A3.81,3.81,0,0,0,47,309.47c1.81,1.72,6.48,1.85,7.87,1.85a32.6,32.6,0,0,0,9.61-1.52c10.07-3.18,20.2-9.24,18.43-16.69A7.81,7.81,0,0,0,80.35,289V229.81A2.86,2.86,0,0,0,77.48,226.94Z"/><path class="cls-4" d="M114.35,309.89a31,31,0,0,1-9.17-1.46c-9.46-3-19-8.49-17.47-15a6.55,6.55,0,0,1,2.6-3.74V229.81a1.43,1.43,0,0,1,1.43-1.44h13.39a1.43,1.43,0,0,1,1.44,1.44v57.45c1.22.18,2.43.4,3.59.68,8.72,2.08,15.69,6.68,17.34,11.46a1.59,1.59,0,0,1-.19,1.37,1.73,1.73,0,0,1-1.31.64h0a4.15,4.15,0,0,1-1.07-.19,3.78,3.78,0,0,1,1.4,2,1.82,1.82,0,0,1-.36,1.48,2.21,2.21,0,0,1-1.85.79,9.22,9.22,0,0,1-2.68-.56,3.15,3.15,0,0,1,.58,1.43,2.41,2.41,0,0,1-.78,2C120.18,309.44,117,309.89,114.35,309.89Z"/><path class="cls-3" d="M105.13,229.81v58.71a40.5,40.5,0,0,1,4.69.82c8.41,2,14.88,6.33,16.32,10.52L126,300c-1.17,0-8.91-3.54-10.41-3.54l-.25.1c-.1.42,10.63,5.87,9.51,7.3a.91.91,0,0,1-.73.24c-2.4,0-9.2-3.63-10.64-3.63l-.2,0c-1,.64,9.31,4.69,7,6.9-.47.44-2.67,1.06-5.9,1.06a29.27,29.27,0,0,1-8.74-1.39c-10-3.17-17.67-8.39-16.51-13.29a5.6,5.6,0,0,1,2.64-3.32V229.81h13.39m0-2.87H91.74a2.87,2.87,0,0,0-2.87,2.87V289a7.81,7.81,0,0,0-2.56,4.09c-1.77,7.45,8.36,13.51,18.43,16.69a32.7,32.7,0,0,0,9.61,1.52c1.39,0,6.07-.13,7.88-1.85a3.84,3.84,0,0,0,1.23-2.55l.66,0a3.64,3.64,0,0,0,3-1.33,3.3,3.3,0,0,0,.64-2.63,3,3,0,0,0-.15-.57,2.9,2.9,0,0,0,.89-.82,3,3,0,0,0,.38-2.67c-1.84-5.31-9.05-10.17-18.37-12.39-.81-.19-1.64-.36-2.49-.5V229.81A2.86,2.86,0,0,0,105.13,226.94Z"/><path class="cls-2" d="M84.11,269.87c-32.06-1.13-53.61-16.39-53.61-38,0-10.27,4.65-18.38,8.76-25.54,3.05-5.32,5.69-9.92,5.69-14.18a57.19,57.19,0,0,1,8.25-30c-21.91-10-35.94-30.15-35.94-51.86,0-32.25,30-58.49,66.92-58.49s66.91,26.24,66.91,58.49c0,21.71-14,41.84-35.94,51.86a57.1,57.1,0,0,1,8.26,30c0,4.26,2.63,8.86,5.69,14.18,4.1,7.16,8.75,15.27,8.75,25.54,0,21.57-21.54,36.83-53.61,38h-.13Z"/><path class="cls-3" d="M84.18,53.76c35.9,0,65,25.33,65,56.57,0,22.48-15.06,41.89-36.87,51a54.5,54.5,0,0,1,9.18,30.84c0,10.83,14.45,22.27,14.45,39.72,0,22.52-23.72,35.06-51.76,36-28-1-51.76-13.53-51.76-36,0-17.45,14.44-28.89,14.44-39.72A54.5,54.5,0,0,1,56,161.35c-21.81-9.13-36.87-28.54-36.87-51,0-31.24,29.11-56.57,65-56.57m0-3.83c-38,0-68.83,27.1-68.83,60.4,0,21.82,13.65,42.08,35.14,52.69A59.51,59.51,0,0,0,43,192.19c0,3.75-2.52,8.15-5.43,13.23-4,7-9,15.71-9,26.49,0,22.68,22.28,38.7,55.45,39.87h.27c33.17-1.17,55.46-17.19,55.46-39.87,0-10.78-5-19.49-9-26.49-2.92-5.08-5.44-9.48-5.44-13.23A59.51,59.51,0,0,0,117.87,163C139.36,152.41,153,132.15,153,110.33,153,77,122.13,49.93,84.18,49.93Z"/><path class="cls-5" d="M133,67.71c-16.2,0-30-9.77-33.53-23.76l-1.29-5.09,4.26,3.07c1.91,1.38,4.22,2,7.49,2,1.71,0,3.51-.16,5.43-.33,2.1-.18,4.28-.37,6.55-.37,14.1,0,30.56-5.71,30.56-21.79a23.21,23.21,0,0,0-.73-5.73l-1.29-5.1,4.26,3.07c8.06,5.81,12.68,14.41,12.68,23.6C167.4,54.06,152,67.71,133,67.71Z"/><path class="cls-3" d="M153.6,15.24c7.26,5.22,11.89,13.16,11.89,22C165.49,53,151,65.79,133,65.79c-15.5,0-28.45-9.54-31.68-22.3a14.09,14.09,0,0,0,8.61,2.35c3.71,0,7.75-.7,12-.7,17.94,0,32.48-8,32.48-23.7a25,25,0,0,0-.8-6.2M147.32,6l2.57,10.18a21.53,21.53,0,0,1,.68,5.27c0,9.61-7.52,19.87-28.65,19.87-2.35,0-4.57.2-6.72.38-1.87.17-3.64.32-5.26.32-2.88,0-4.78-.49-6.37-1.63L95,34.24l2.58,10.18c3.76,14.84,18.31,25.2,35.39,25.2,20,0,36.3-14.51,36.3-32.34,0-9.81-4.91-19-13.47-25.15Z"/><path class="cls-5" d="M36.3,70.12c-19,0-34.39-13.65-34.39-30.43,0-9.19,4.62-17.79,12.68-23.6L18.85,13l-1.29,5.09a23.84,23.84,0,0,0-.73,5.74c0,16.08,16.46,21.78,30.56,21.78,2.27,0,4.45.19,6.55.38,1.92.16,3.73.32,5.43.32,3.27,0,5.58-.61,7.49-2l4.26-3.07-1.29,5.09C66.3,60.35,52.51,70.12,36.3,70.12Z"/><path class="cls-3" d="M15.71,17.64a25,25,0,0,0-.8,6.21c0,15.75,14.54,23.7,32.48,23.7,4.23,0,8.28.7,12,.7A14.09,14.09,0,0,0,68,45.89C64.75,58.65,51.81,68.2,36.3,68.2,18.37,68.2,3.83,55.44,3.83,39.69c0-8.89,4.63-16.82,11.88-22M22,8.39l-8.53,6.15C4.91,20.71,0,29.88,0,39.69,0,57.52,16.28,72,36.3,72c17.08,0,31.64-10.36,35.39-25.2l2.58-10.19-8.53,6.15c-1.58,1.14-3.49,1.63-6.37,1.63-1.62,0-3.39-.15-5.26-.32-2.15-.19-4.37-.38-6.72-.38-21.12,0-28.65-10.27-28.65-19.87a21.53,21.53,0,0,1,.68-5.27Z"/><path class="cls-6" d="M84.18,91.78c-19,0-37.07-5.18-51-14.6l-.83-.55s0-2,0-2.25C32.31,40.55,55.58,13,84.18,13s51.87,27.53,51.87,61.36c0,.27,0,2.25,0,2.25l-.83.55C121.24,86.6,103.13,91.78,84.18,91.78Z"/><path class="cls-3" d="M84.18,14.93c27.59,0,49.95,26.62,49.95,59.45,0,.41,0,.81,0,1.22C121,84.45,103.46,89.87,84.18,89.87S47.35,84.45,34.25,75.6c0-.41,0-.81,0-1.22,0-32.83,22.37-59.45,50-59.45m0-3.82c-29.66,0-53.79,28.38-53.79,63.27,0,.29,0,.57,0,.86v.42l0,2,1.66,1.12C46.35,88.39,64.85,93.7,84.18,93.7S122,88.39,136.25,78.77l1.65-1.12,0-2v-.42c0-.29,0-.57,0-.86C138,39.49,113.83,11.11,84.18,11.11Z"/><path class="cls-7" d="M75,124.28V91.38C59.33,90,44.89,85.1,33.18,77.18l-.83-.55s0-2,0-2.25a72.56,72.56,0,0,1,1-11.75l.47-2.9,2.46,1.61C47.15,68.5,60.54,73,75,74.29V14l1.59-.27a43.46,43.46,0,0,1,15.09,0l1.59.27V74.29c14.5-1.33,27.9-5.79,38.84-13l2.46-1.61.48,2.9a73.71,73.71,0,0,1,1,11.75c0,.27,0,2.25,0,2.25l-.83.55C123.46,85.1,109,90,93.31,91.38v32.9Z"/><path class="cls-3" d="M84.18,14.93a42.14,42.14,0,0,1,7.22.63V76.37c16-1.14,30.48-6,41.8-13.43a70.46,70.46,0,0,1,.93,11.44c0,.41,0,.81,0,1.22-11.45,7.73-26.28,12.84-42.71,14v32.76H77V89.61c-16.42-1.17-31.26-6.28-42.7-14,0-.41,0-.81,0-1.22a71.6,71.6,0,0,1,.93-11.44C46.48,70.34,61,75.23,77,76.37V15.56a42.17,42.17,0,0,1,7.23-.63m0-3.82a46.86,46.86,0,0,0-7.88.68l-3.17.55V72.17A82.7,82.7,0,0,1,37.25,59.74l-4.92-3.22-.95,5.8a75.27,75.27,0,0,0-1,12.06c0,.29,0,.57,0,.86v.42l0,2,1.66,1.12c11.54,7.8,25.66,12.73,41,14.35V126.2h22.1V93.12c15.35-1.62,29.47-6.55,41-14.35l1.65-1.12,0-2v-.42c0-.29,0-.57,0-.86a75.26,75.26,0,0,0-1-12.06l-.95-5.8-4.92,3.22A82.75,82.75,0,0,1,95.23,72.17V12.34l-3.18-.55A46.83,46.83,0,0,0,84.18,11.11Z"/><ellipse class="cls-3" cx="50.77" cy="109.13" rx="10.23" ry="12.04"/><ellipse class="cls-3" cx="118.18" cy="109.13" rx="10.23" ry="12.04"/><path class="cls-4" d="M84.18,155.1c-19.8,0-35.5-18.09-36.15-18.86a1.44,1.44,0,0,1,0-1.87c.65-.77,16.35-18.87,36.15-18.87s35.49,18.1,36.15,18.87a1.44,1.44,0,0,1,0,1.87C119.67,137,104,155.1,84.18,155.1Z"/><path class="cls-3" d="M84.18,116.94c19.36,0,35.06,18.37,35.06,18.37s-15.7,18.36-35.06,18.36-35.06-18.36-35.06-18.36,15.69-18.37,35.06-18.37m0-2.87c-20.45,0-36.57,18.58-37.24,19.37a2.87,2.87,0,0,0,0,3.73c.67.79,16.79,19.37,37.24,19.37s36.56-18.58,37.24-19.37a2.87,2.87,0,0,0,0-3.73C120.74,132.65,104.63,114.07,84.18,114.07Z"/><g class="cls-8"><path class="cls-3" d="M84.18,132.52c14.6,0,27.91,1.35,37.95,3.54l1-.91c-10.25-2.33-23.91-3.74-38.95-3.74s-28.71,1.41-39,3.73q.42.41,1,.93C56.27,133.87,69.58,132.52,84.18,132.52Z"/><path class="cls-3" d="M84.18,132.52v1h0c14.54,0,27.79,1.34,37.73,3.52l.48.1.36-.32,1-.94,1.31-1.23-1.76-.4c-10.35-2.34-24.06-3.75-39.16-3.76S55.36,131.87,45,134.21l-1.76.4,1.32,1.23,1,.94.37.33.47-.11c9.93-2.17,23.16-3.52,37.68-3.52h.07v-1.91h-.07c-14.64,0-28,1.35-38.09,3.56l.21.94.63-.72c-.39-.34-.72-.65-1-.91l-.66.7.21.93c10.16-2.29,23.78-3.7,38.75-3.7s28.58,1.41,38.74,3.71l.21-.93-.65-.7-1,.9.64.71.2-.93c-10.12-2.22-23.48-3.56-38.14-3.56h0Z"/></g><circle class="cls-4" cx="84.18" cy="29.88" r="4.3"/><circle class="cls-4" cx="84.18" cy="47.58" r="4.3"/><circle class="cls-4" cx="84.18" cy="65.28" r="4.3"/><circle class="cls-4" cx="84.18" cy="82.97" r="4.3"/><circle class="cls-4" cx="103.12" cy="81.38" r="4.3"/><circle class="cls-4" cx="120.53" cy="76.22" r="4.3"/><circle class="cls-4" cx="63.32" cy="81.38" r="4.3"/><circle class="cls-4" cx="45.91" cy="75.65" r="4.3"/><circle class="cls-4" cx="84.18" cy="100.67" r="4.3"/><path class="cls-9" d="M115.74,210.68s-13.39-9.57-30.61-9.57c-16.5,0-30.61,9.57-30.61,9.57s18.75-5.74,30.61-5.74S115.74,210.68,115.74,210.68Z"/><path class="cls-10" d="M1442.48,30.44a59.93,59.93,0,0,0-38.11-13.64A67.61,67.61,0,0,0,1368.22,27c-18.86,10-33,28.36-37.94,52.64a53.29,53.29,0,0,0-2,13.19h.24c-.14,2.18-.24,4.39-.24,6.65,0,48.84,33.21,88.43,74.17,88.43s74.17-39.59,74.17-88.43C1476.64,68.26,1463,43.92,1442.48,30.44Z"/><path class="cls-3" d="M1442.48,30.44l1.06-1.33a61.73,61.73,0,0,0-39.17-14,69.33,69.33,0,0,0-37,10.5l.89,1.44-.79-1.5c-19.33,10.19-33.74,29.07-38.81,53.8l1.66.34-1.64-.43a54.62,54.62,0,0,0-2,13.62v1.69h1.93V92.87l-1.69-.11c-.15,2.21-.24,4.45-.24,6.76,0,24.81,8.42,47.29,22.12,63.62s32.7,26.51,53.74,26.51,40.06-10.18,53.74-26.51,22.12-38.81,22.12-63.62c0-31.75-13.88-56.7-34.92-70.5l-.93,1.42,1.06-1.33-1.06,1.33-.94,1.42c20,13.15,33.39,36.89,33.4,67.66,0,24-8.18,45.76-21.33,61.44s-31.22,25.29-51.14,25.29-38-9.61-51.14-25.29S1330,123.56,1330,99.52c0-2.21.09-4.38.23-6.55l.12-1.8h-2v1.7h1.7a51.71,51.71,0,0,1,1.92-12.75l0-.05v0c4.89-23.82,18.66-41.76,37.06-51.48l0,0,0,0a65.92,65.92,0,0,1,35.26-10,58.19,58.19,0,0,1,37.05,13.26l.06,0,.06.05Z"/><path class="cls-11" d="M1381.23,316.79c-5.43,0-9.67-2.16-11.63-5.93-1.18-2.27-1.66-6.09,2.78-11.42a39.13,39.13,0,0,1,11.6-9c3.73-1.94,6.92-2.89,9.74-2.89,4.09,0,7.2,2,9.25,5.94,1.69,3.25,1.44,7.21-.7,11.14a23.5,23.5,0,0,1-9.88,9.28A24.41,24.41,0,0,1,1381.23,316.79Z"/><path class="cls-3" d="M1393.72,289.24c3.48,0,6,1.73,7.75,5,2.94,5.64-1.48,13.76-9.86,18.13a22.78,22.78,0,0,1-10.38,2.7c-4.57,0-8.41-1.73-10.13-5-2.94-5.65,5.28-13.76,13.66-18.13,3.5-1.82,6.47-2.7,9-2.7m0-3.39h0c-3.1,0-6.54,1-10.52,3.08a40.71,40.71,0,0,0-12.12,9.42c-5.3,6.37-4.15,11.06-3,13.29,2.27,4.35,7.06,6.85,13.14,6.85a26.23,26.23,0,0,0,12-3.08,25.26,25.26,0,0,0,10.59-10c2.38-4.38,2.64-9,.71-12.73C1402.14,288.22,1398.42,285.85,1393.72,285.85Z"/><path class="cls-12" d="M1388.11,305c-4.61,0-8.28-2.3-9.12-5.74-.88-3.6,4.09-6.71,8.84-9.08l-3.74-58.36a1.27,1.27,0,0,1,1.27-1.35h13.31a1.27,1.27,0,0,1,1.27,1.27v60.85l-.06.4a6,6,0,0,1,.36,1.06c1.08,4.37-2.82,9.09-8.68,10.53a14.6,14.6,0,0,1-3.45.42Z"/><path class="cls-3" d="M1398.67,231.69v60.85l-.23.41a5,5,0,0,1,.57,1.35c.9,3.7-2.57,7.72-7.75,9a12.87,12.87,0,0,1-3.15.39c-3.91,0-7.16-1.84-7.88-4.77s5.27-6.24,8.93-8l-3.8-59.2h13.31m0-2.55h-13.31a2.55,2.55,0,0,0-2.54,2.71l3.69,57.51c-3.86,2-9.88,5.55-8.76,10.16,1,4,5.15,6.71,10.36,6.71a16,16,0,0,0,3.75-.46c6.66-1.64,10.88-6.94,9.62-12.07a7.06,7.06,0,0,0-.28-.89V231.69A2.55,2.55,0,0,0,1398.67,229.14Z"/><path class="cls-11" d="M1429.38,316.79a24.41,24.41,0,0,1-11.17-2.89,23.5,23.5,0,0,1-9.88-9.28c-2.14-3.93-2.39-7.89-.7-11.14,2-3.94,5.17-5.94,9.26-5.94,2.81,0,6,.95,9.73,2.89,9.54,5,17.83,13.82,14.38,20.43-2,3.77-6.2,5.93-11.62,5.93Z"/><path class="cls-3" d="M1416.89,289.24c2.49,0,5.46.88,8.95,2.7,8.38,4.37,16.6,12.48,13.66,18.13-1.72,3.3-5.56,5-10.12,5a22.85,22.85,0,0,1-10.39-2.7c-8.38-4.37-12.79-12.49-9.85-18.13,1.71-3.3,4.26-5,7.75-5m0-3.39c-4.71,0-8.43,2.37-10.76,6.85-3.87,7.42,1.1,17.4,11.3,22.71a26.17,26.17,0,0,0,12,3.08c6.08,0,10.86-2.5,13.13-6.85,1.16-2.23,2.32-6.92-3-13.29a40.79,40.79,0,0,0-12.11-9.42C1423.42,286.86,1420,285.85,1416.89,285.85Z"/><path class="cls-12" d="M1422.49,305a14.6,14.6,0,0,1-3.45-.42c-5.86-1.44-9.75-6.16-8.68-10.53a6.07,6.07,0,0,1,.37-1.06l-.07-.4V231.69a1.27,1.27,0,0,1,1.28-1.27h13.31a1.26,1.26,0,0,1,.93.4,1.29,1.29,0,0,1,.34,1l-3.75,58.36c4.75,2.37,9.73,5.48,8.84,9.08C1430.77,302.65,1427.11,305,1422.49,305Z"/><path class="cls-3" d="M1425.25,231.69l-3.81,59.2c3.66,1.78,9.68,5,8.94,8s-4,4.77-7.89,4.77a12.85,12.85,0,0,1-3.14-.39c-5.19-1.27-8.66-5.29-7.75-9a4.7,4.7,0,0,1,.56-1.35c-.14-.24-.22-.41-.22-.41V231.69h13.31m0-2.55h-13.31a2.55,2.55,0,0,0-2.55,2.55v61.12a9.18,9.18,0,0,0-.28.89c-1.26,5.13,3,10.43,9.62,12.07a16,16,0,0,0,3.75.46c5.21,0,9.37-2.7,10.36-6.71,1.13-4.61-4.9-8.2-8.76-10.16l3.7-57.51a2.56,2.56,0,0,0-2.54-2.71Z"/><path class="cls-13" d="M1338.64,241.26a4.76,4.76,0,0,1-1.75-.32c-2.88-1.1-4.18-4.74-2.9-8.12a6.54,6.54,0,0,1,5.83-4.44,4.88,4.88,0,0,1,1.74.32c2.89,1.1,4.19,4.74,2.9,8.12A6.51,6.51,0,0,1,1338.64,241.26Z"/><path class="cls-3" d="M1339.82,229.23a4,4,0,0,1,1.44.26c2.45.94,3.53,4.08,2.41,7a5.7,5.7,0,0,1-5,3.9,4,4,0,0,1-1.44-.27c-2.46-.93-3.54-4.08-2.41-7a5.68,5.68,0,0,1,5-3.9m0-1.7a7.38,7.38,0,0,0-6.62,5c-1.45,3.82.07,7.95,3.39,9.22a5.68,5.68,0,0,0,2.05.37,7.37,7.37,0,0,0,6.62-5,8,8,0,0,0,.15-5.42,6,6,0,0,0-3.54-3.79A5.77,5.77,0,0,0,1339.82,227.53Z"/><path class="cls-12" d="M1350.72,236.77a1.39,1.39,0,0,1-.66-.18l-14-8.33a1.3,1.3,0,0,1-.59-.82,1.26,1.26,0,0,1,.18-1l46.3-69.64a1.27,1.27,0,0,1,.94-.56h.12a1.3,1.3,0,0,1,.91.38l4.47,4.53a1.27,1.27,0,0,1,.23,1.46l-36.8,73.44a1.21,1.21,0,0,1-.78.65Z"/><path class="cls-3" d="M1383,157.52l4.47,4.53-36.79,73.44-14-8.33,46.3-69.64m0-2.54h-.24a2.58,2.58,0,0,0-1.88,1.12l-46.3,69.64a2.6,2.6,0,0,0-.36,2,2.53,2.53,0,0,0,1.18,1.62l14,8.33a2.53,2.53,0,0,0,1.31.36,2.83,2.83,0,0,0,.71-.1,2.57,2.57,0,0,0,1.56-1.31l36.8-73.44a2.56,2.56,0,0,0-.47-2.93l-4.46-4.52A2.55,2.55,0,0,0,1383,155Z"/><path class="cls-13" d="M1470,241.26a6.51,6.51,0,0,1-5.82-4.44A7.09,7.09,0,0,1,1464,232a5.19,5.19,0,0,1,3-3.28,4.88,4.88,0,0,1,1.74-.32,6.54,6.54,0,0,1,5.83,4.44,7.17,7.17,0,0,1,.14,4.85,5.16,5.16,0,0,1-3,3.27,4.76,4.76,0,0,1-1.75.32Z"/><path class="cls-3" d="M1468.77,229.23a5.68,5.68,0,0,1,5,3.9c1.13,2.94,0,6.09-2.4,7a4,4,0,0,1-1.45.27,5.7,5.7,0,0,1-5-3.9c-1.12-3,0-6.09,2.41-7a4,4,0,0,1,1.44-.26m0-1.7a5.77,5.77,0,0,0-2,.38c-3.32,1.26-4.84,5.4-3.39,9.21a7.37,7.37,0,0,0,6.62,5,5.68,5.68,0,0,0,2-.37,6,6,0,0,0,3.55-3.8,8,8,0,0,0-.16-5.42A7.38,7.38,0,0,0,1468.77,227.53Z"/><path class="cls-12" d="M1458,236.77l-.36-.06a1.23,1.23,0,0,1-.78-.65l-36.79-73.44a1.28,1.28,0,0,1,0-1.2l2.56-4.52a1.26,1.26,0,0,1,1-.65h.06a1.25,1.25,0,0,1,1,.55l48.21,69.64a1.27,1.27,0,0,1-.4,1.82l-14,8.33A1.35,1.35,0,0,1,1458,236.77Z"/><path class="cls-3" d="M1423.8,157.52l48.2,69.64-14,8.33-36.79-73.44,2.56-4.53m0-2.54h-.12a2.56,2.56,0,0,0-2.1,1.29L1419,160.8a2.53,2.53,0,0,0-.06,2.39l36.79,73.44a2.6,2.6,0,0,0,1.56,1.31,3,3,0,0,0,.72.1,2.52,2.52,0,0,0,1.3-.36l14-8.33a2.56,2.56,0,0,0,.79-3.64l-48.21-69.64A2.57,2.57,0,0,0,1423.8,155Z"/><path class="cls-11" d="M1404.31,273.32a87.81,87.81,0,0,1-33.28-7.86c-.13-.06-13.23-6.23-13.18-8.88l0-1.66h0c.54-10.07,5.68-25.37,10.25-39,3.62-10.79,7-21,7-25.46a56.23,56.23,0,0,1,8.73-30c-1.86-1-3.39-2.33-3-4.2.46-2.28,4.74-5,22.49-5s22,2.72,22.49,5c.38,1.87-1.16,3.21-3,4.2a56.23,56.23,0,0,1,8.73,30c0,4.47,3.42,14.67,7.05,25.46,4.56,13.59,9.7,28.89,10.25,39h0l0,1.68c0,2.52-18.3,15.8-44.57,16.73h-.12Z"/><path class="cls-3" d="M1403.42,153c13.9,0,27.81,2.27,17,6.81a54.44,54.44,0,0,1,9.53,30.65c0,10.77,17.35,48.76,17.35,66.11h0c.62,0-15.22,14-42.91,15-27.68-1-45.4-15-44.81-15h0c0-17.35,17.34-55.34,17.34-66.11a54.37,54.37,0,0,1,9.54-30.65c-10.85-4.54,3.06-6.81,17-6.81m0-3.39c-22.87,0-23.8,4.62-24.15,6.37-.46,2.28.81,3.93,2.36,5.08a57.88,57.88,0,0,0-8.1,29.4c0,4.2-3.54,14.73-7,24.92-4.36,13-9.24,27.52-10.21,37.78h-.13l-.08,3.36c0,1.9,1.09,2.94,4.71,5.3a74.86,74.86,0,0,0,9.47,5.16,89.76,89.76,0,0,0,33.92,8h.24a82.31,82.31,0,0,0,33-8,62.06,62.06,0,0,0,8.88-5.2c3.68-2.63,4.33-3.66,4.3-5.24l0-3.33h-.15c-1-10.27-5.85-24.82-10.21-37.82-3.42-10.19-7-20.72-7-24.92a58,58,0,0,0-8.1-29.4c1.54-1.15,2.81-2.8,2.35-5.08C1427.22,154.26,1426.29,149.64,1403.42,149.64Z"/><path class="cls-14" d="M1402.47,181.19c-11.84,0-16.06-7.31-16.06-14.16,0-7.81,7.2-14.16,16.06-14.16s16.06,6.35,16.06,14.16C1418.53,173.88,1414.31,181.19,1402.47,181.19Z"/><path class="cls-3" d="M1402.47,153.72c8.4,0,15.21,6,15.21,13.31s-4.8,13.31-15.21,13.31-15.21-6-15.21-13.31,6.81-13.31,15.21-13.31m0-1.7c-9.32,0-16.91,6.74-16.91,15,0,7.26,4.44,15,16.91,15s16.91-7.75,16.91-15C1419.38,158.76,1411.79,152,1402.47,152Z"/><path class="cls-13" d="M1457.73,92.87h-76.18l-11.41-22.82L1360,92.87h-14.69c0,.15,0,.3,0,.46-.39,7-9.65,15.06-9.4,30.28.43,26,28.64,42.22,65.1,42.58v0h1v0c36.45-.36,64.67-16.55,65.1-42.58.25-15.22-9-23.33-9.4-30.28C1457.72,93.17,1457.73,93,1457.73,92.87Z"/><path class="cls-3" d="M1457.73,92.87v-1.7h-76.18v1.7l1.52-.76-13-26-11.6,26.11,1.55.69v-1.7h-16.38v1.71c0,.21,0,.33,0,.36h0a13.9,13.9,0,0,1-1.47,4.82c-2.57,5.61-7.94,13.29-7.94,24.94,0,.21,0,.42,0,.64a35.15,35.15,0,0,0,5.49,18.46c5.15,8.15,13.59,14.52,24.15,18.89s23.29,6.76,37.14,6.9l0-1.7h-1.7v1.72h4.4v-1.72H1402l0,1.7c18.47-.19,34.92-4.36,47-11.93a45.13,45.13,0,0,0,14.34-13.86,35.15,35.15,0,0,0,5.49-18.46V123a40.81,40.81,0,0,0-4.73-18.57c-1.17-2.4-2.34-4.5-3.2-6.37a13.9,13.9,0,0,1-1.47-4.82h0s0-.14,0-.35h0v-1.7h-1.7v1.7H1456v0a2.34,2.34,0,0,1,0,.35v.2h0a17,17,0,0,0,1.78,6.06c2.83,6.06,7.62,12.92,7.62,23.51v.58a31.83,31.83,0,0,1-5,16.71c-4.67,7.4-12.5,13.39-22.58,17.56s-22.39,6.51-35.88,6.65h-1.68v1.7h1.7v-1.7h-1v1.7h1.7v-1.7H1401c-18-.18-33.87-4.28-45.18-11.41a41.82,41.82,0,0,1-13.28-12.8,31.83,31.83,0,0,1-5-16.71V123a37.39,37.39,0,0,1,4.39-17.08c1.12-2.3,2.29-4.41,3.23-6.43a17,17,0,0,0,1.78-6.06h0v-.18a2.48,2.48,0,0,1,0-.36h-1.7v1.69h15.79L1370.23,74l10.27,20.54h77.23V92.87h0Z"/><path class="cls-3" d="M1377.7,122.78c0,7.93-3.49,14.37-7.78,14.37s-7.79-6.44-7.79-14.37,3.49-14.37,7.79-14.37S1377.7,114.84,1377.7,122.78Z"/><path class="cls-3" d="M1442.81,122.78c0,7.93-3.49,14.37-7.78,14.37s-7.79-6.44-7.79-14.37,3.49-14.37,7.79-14.37S1442.81,114.84,1442.81,122.78Z"/><path class="cls-3" d="M1400.73,135.37a7.89,7.89,0,0,1-4.24-1.14,2.62,2.62,0,0,1,0-4.8,7.89,7.89,0,0,1,4.24-1.14.85.85,0,0,0,0-1.7,9.49,9.49,0,0,0-5.18,1.43,4.28,4.28,0,0,0,0,7.62,9.49,9.49,0,0,0,5.18,1.43.85.85,0,0,0,0-1.7Z"/></svg>