<?xml version="1.0" encoding="utf-8"?>
<!-- Generator: Adobe Illustrator 16.0.4, SVG Export Plug-In . SVG Version: 6.00 Build 0)  -->
<!DOCTYPE svg PUBLIC "-//W3C//DTD SVG 1.1//EN" "http://www.w3.org/Graphics/SVG/1.1/DTD/svg11.dtd">
<svg version="1.1" id="レイヤー_1" xmlns="http://www.w3.org/2000/svg" xmlns:xlink="http://www.w3.org/1999/xlink" x="0px"
	 y="0px" width="100px" height="100px" viewBox="0 0 100 100" enable-background="new 0 0 100 100" xml:space="preserve">
<g>
	<g>
		<g>
			<rect x="5.174" y="2.833" fill="#CDD5D7" width="91.42" height="95.825"/>
		</g>
		<g>
			<g>
				<g>
					<rect x="84.844" y="8.786" fill="#00B2E6" width="8.791" height="6.935"/>
				</g>
			</g>
			<g>
				<g>
					<rect x="74.089" y="8.786" fill="#00B2E6" width="8.792" height="6.935"/>
				</g>
			</g>
			<g>
				<g>
					<rect x="74.089" y="17.627" fill="#00B2E6" width="8.792" height="6.935"/>
				</g>
			</g>
			<g>
				<g>
					<rect x="74.089" y="26.467" fill="#00B2E6" width="8.792" height="6.935"/>
				</g>
			</g>
			<g>
				<g>
					<rect x="74.089" y="35.307" fill="#00B2E6" width="8.792" height="6.935"/>
				</g>
			</g>
			<g>
				<g>
					<rect x="84.844" y="17.627" fill="#00B2E6" width="8.791" height="6.935"/>
				</g>
			</g>
			<g>
				<g>
					<rect x="84.844" y="26.467" fill="#00B2E6" width="8.791" height="6.935"/>
				</g>
			</g>
			<g>
				<g>
					<rect x="84.844" y="35.307" fill="#00B2E6" width="8.791" height="6.935"/>
				</g>
			</g>
		</g>
		<g>
			<rect x="31.971" y="21.646" fill="#F4F4F4" width="37.722" height="77.014"/>
		</g>
		<g>
			<rect x="38.258" y="74.078" fill="#64798A" width="25.149" height="24.581"/>
		</g>
		<g>
			<rect x="49.795" y="74.078" fill="#3A556A" width="2.135" height="24.581"/>
		</g>
		<g>
			<rect x="47.626" y="84.66" fill="#3A556A" width="1.006" height="4.297"/>
		</g>
		<g>
			<rect x="53.221" y="84.66" fill="#3A556A" width="1.008" height="4.297"/>
		</g>
		<g>
			<g>
				<rect x="34.939" y="28.984" fill="#00B2E6" width="8.79" height="6.935"/>
			</g>
		</g>
		<g>
			<g>
				<rect x="46.436" y="28.984" fill="#00B2E6" width="8.791" height="6.935"/>
			</g>
		</g>
		<g>
			<g>
				<rect x="57.935" y="28.984" fill="#00B2E6" width="8.79" height="6.935"/>
			</g>
		</g>
		<g>
			<g>
				<rect x="34.939" y="38.769" fill="#00B2E6" width="8.79" height="6.936"/>
			</g>
		</g>
		<g>
			<g>
				<rect x="46.436" y="38.769" fill="#00B2E6" width="8.791" height="6.936"/>
			</g>
		</g>
		<g>
			<g>
				<rect x="57.935" y="38.769" fill="#00B2E6" width="8.79" height="6.936"/>
			</g>
		</g>
		<g>
			<g>
				<rect x="34.939" y="48.556" fill="#00B2E6" width="8.79" height="6.935"/>
			</g>
		</g>
		<g>
			<g>
				<rect x="46.436" y="48.556" fill="#00B2E6" width="8.791" height="6.935"/>
			</g>
		</g>
		<g>
			<g>
				<rect x="57.935" y="48.556" fill="#00B2E6" width="8.79" height="6.935"/>
			</g>
		</g>
		<g>
			<g>
				<rect x="34.939" y="58.342" fill="#00B2E6" width="8.79" height="6.936"/>
			</g>
		</g>
		<g>
			<g>
				<rect x="46.436" y="58.342" fill="#00B2E6" width="8.791" height="6.936"/>
			</g>
		</g>
		<g>
			<g>
				<rect x="57.935" y="58.342" fill="#00B2E6" width="8.79" height="6.936"/>
			</g>
		</g>
		<rect x="30.337" y="19.024" fill="#FFC042" width="41.075" height="2.62"/>
		<g>
			<g>
				<rect x="19.203" y="8.786" fill="#00B2E6" width="8.789" height="6.935"/>
			</g>
		</g>
		<g>
			<g>
				<rect x="35.354" y="8.786" fill="#00B2E6" width="8.791" height="6.935"/>
			</g>
		</g>
		<g>
			<g>
				<rect x="46.491" y="8.786" fill="#00B2E6" width="8.791" height="6.935"/>
			</g>
		</g>
		<g>
			<g>
				<rect x="57.624" y="8.786" fill="#00B2E6" width="8.79" height="6.935"/>
			</g>
		</g>
		<g>
			<g>
				<rect x="8.447" y="8.786" fill="#00B2E6" width="8.789" height="6.935"/>
			</g>
		</g>
		<g>
			<g>
				<rect x="8.447" y="17.627" fill="#00B2E6" width="8.789" height="6.935"/>
			</g>
		</g>
		<g>
			<g>
				<rect x="8.447" y="26.467" fill="#00B2E6" width="8.789" height="6.935"/>
			</g>
		</g>
		<g>
			<g>
				<rect x="8.447" y="35.307" fill="#00B2E6" width="8.789" height="6.935"/>
			</g>
		</g>
		<g>
			<g>
				<rect x="19.203" y="17.627" fill="#00B2E6" width="8.789" height="6.935"/>
			</g>
		</g>
		<g>
			<g>
				<rect x="19.203" y="26.467" fill="#00B2E6" width="8.789" height="6.935"/>
			</g>
		</g>
		<g>
			<g>
				<rect x="19.203" y="35.307" fill="#00B2E6" width="8.789" height="6.935"/>
			</g>
		</g>
		<g>
			<g>
				<g>
					<rect x="84.844" y="44.197" fill="#00B2E6" width="8.791" height="6.937"/>
				</g>
			</g>
			<g>
				<g>
					<rect x="74.089" y="44.197" fill="#00B2E6" width="8.792" height="6.937"/>
				</g>
			</g>
			<g>
				<g>
					<rect x="74.089" y="53.039" fill="#00B2E6" width="8.792" height="6.934"/>
				</g>
			</g>
			<g>
				<g>
					<rect x="74.089" y="61.881" fill="#00B2E6" width="8.792" height="6.934"/>
				</g>
			</g>
			<g>
				<g>
					<rect x="74.089" y="70.719" fill="#00B2E6" width="8.792" height="6.936"/>
				</g>
			</g>
			<g>
				<g>
					<rect x="84.844" y="53.039" fill="#00B2E6" width="8.791" height="6.934"/>
				</g>
			</g>
			<g>
				<g>
					<rect x="84.844" y="61.881" fill="#00B2E6" width="8.791" height="6.934"/>
				</g>
			</g>
			<g>
				<g>
					<rect x="84.844" y="70.719" fill="#00B2E6" width="8.791" height="6.936"/>
				</g>
			</g>
		</g>
		<g>
			<g>
				<g>
					<rect x="19.203" y="44.197" fill="#00B2E6" width="8.789" height="6.937"/>
				</g>
			</g>
			<g>
				<g>
					<rect x="8.447" y="44.197" fill="#00B2E6" width="8.789" height="6.937"/>
				</g>
			</g>
			<g>
				<g>
					<rect x="8.447" y="53.039" fill="#00B2E6" width="8.789" height="6.934"/>
				</g>
			</g>
			<g>
				<g>
					<rect x="8.447" y="61.881" fill="#00B2E6" width="8.789" height="6.934"/>
				</g>
			</g>
			<g>
				<g>
					<rect x="8.447" y="70.719" fill="#00B2E6" width="8.789" height="6.936"/>
				</g>
			</g>
			<g>
				<g>
					<rect x="19.203" y="53.039" fill="#00B2E6" width="8.789" height="6.934"/>
				</g>
			</g>
			<g>
				<g>
					<rect x="19.203" y="61.881" fill="#00B2E6" width="8.789" height="6.934"/>
				</g>
			</g>
			<g>
				<g>
					<rect x="19.203" y="70.719" fill="#00B2E6" width="8.789" height="6.936"/>
				</g>
			</g>
		</g>
		<g>
			<g>
				<rect x="77.075" y="83.893" fill="#64798A" width="12.718" height="14.904"/>
			</g>
			<g>
				<rect x="82.911" y="83.893" fill="#3A556A" width="1.082" height="14.904"/>
			</g>
			<g>
				<rect x="81.813" y="90.309" fill="#3A556A" width="0.51" height="2.605"/>
			</g>
			<g>
				<rect x="84.646" y="90.309" fill="#3A556A" width="0.509" height="2.605"/>
			</g>
		</g>
		<g>
			<g>
				<rect x="12.34" y="83.893" fill="#64798A" width="12.72" height="14.904"/>
			</g>
			<g>
				<rect x="18.176" y="83.893" fill="#3A556A" width="1.082" height="14.904"/>
			</g>
			<g>
				<rect x="17.078" y="90.309" fill="#3A556A" width="0.509" height="2.605"/>
			</g>
			<g>
				<rect x="19.908" y="90.309" fill="#3A556A" width="0.509" height="2.605"/>
			</g>
		</g>
	</g>
</g>
</svg>
