<?xml version="1.0" encoding="utf-8"?>
<!-- Generator: Adobe Illustrator 16.0.4, SVG Export Plug-In . SVG Version: 6.00 Build 0)  -->
<!DOCTYPE svg PUBLIC "-//W3C//DTD SVG 1.1//EN" "http://www.w3.org/Graphics/SVG/1.1/DTD/svg11.dtd">
<svg version="1.1" id="important-link-arrow" xmlns="http://www.w3.org/2000/svg" xmlns:xlink="http://www.w3.org/1999/xlink" x="0px"
	 y="0px" width="75.267px" height="37.449px" viewBox="0 0 75.267 37.449" enable-background="new 0 0 75.267 37.449"
	 xml:space="preserve">
<g>
	<path fill="#FFFFFF" d="M54.179,36.523"/>
	<path fill="#FFFFFF" d="M54.179,0.925"/>
</g>
<path fill="#FFFFFF" d="M74.1,15.896L59.482,1.279c-1.556-1.556-3.942-1.715-5.304-0.354s-1.202,3.748,0.354,5.304l8.568,8.568
	H49.179c-2.209,0-4,1.791-4,4s1.791,4,4,4h13.776l-8.423,8.423c-1.556,1.556-1.715,3.941-0.354,5.303s3.748,1.202,5.304-0.354
	L74.1,21.553C75.655,19.998,75.655,17.452,74.1,15.896z"/>
<circle fill="#FFFFFF" cx="38.025" cy="18.718" r="4.025"/>
<circle fill="#FFFFFF" cx="26.691" cy="18.719" r="4.025"/>
<circle fill="#FFFFFF" cx="15.358" cy="18.721" r="4.025"/>
<circle fill="#FFFFFF" cx="4.025" cy="18.723" r="4.025"/>
</svg>
