<?xml version="1.0" encoding="utf-8"?>
<!-- Generator: Adobe Illustrator 16.0.4, SVG Export Plug-In . SVG Version: 6.00 Build 0)  -->
<!DOCTYPE svg PUBLIC "-//W3C//DTD SVG 1.1//EN" "http://www.w3.org/Graphics/SVG/1.1/DTD/svg11.dtd">
<svg version="1.1" id="レイヤー_1" xmlns="http://www.w3.org/2000/svg" xmlns:xlink="http://www.w3.org/1999/xlink" x="0px"
	 y="0px" width="100px" height="100px" viewBox="0 -27.875 100 100" enable-background="new 0 -27.875 100 100"
	 xml:space="preserve">
<g>
	<path fill="#CC0000" d="M86.15,63.278v4.524c0,0,5.85,0,8.175,0c1.675,0,4.55-1.226,4.649-4.649c0-0.15,0-1.625,0-1.75
		c0-2.926-2.399-4.65-4.649-4.65c-1.05,0-4.075,0-4.075,0v-2.1h8.075v-4.551c0,0-5.55,0-7.75,0c-2,0-4.675,1.649-4.675,4.726
		c0,0.3,0,1.3,0,1.575c0,3.074,2.648,4.649,4.675,4.649c5.625,0.024-1.351,0,3.85,0c0,2.199,0,2.199,0,2.199"/>
	<path fill="#CC0000" d="M42.35,62.179c0,0,4.375-0.375,4.375-6.025c0-5.649-5.3-6.175-5.3-6.175h-9.55v17.824h4.8v-4.3l4.15,4.301
		h7.1L42.35,62.179z M40.5,58.528h-3.825v-4.075h3.851c0,0,1.074,0.399,1.074,2.024S40.5,58.528,40.5,58.528z"/>
	<path fill="#CC0000" d="M58.575,50.104c-1.226,0-1.4,0-4.875,0c-3.476,0-4.65,3.149-4.65,4.649c0,3.25,0,13.05,0,13.05h4.875
		v-3.125H58.5v3.125h4.725c0,0,0-9.625,0-13.05C63.225,50.953,59.775,50.104,58.575,50.104z M58.5,59.628h-4.6v-4.324
		c0,0,0-0.976,1.523-0.976c1.4,0,0.25,0,1.676,0c1.351,0,1.375,0.976,1.375,0.976v4.324H58.5z"/>
	<rect x="65.45" y="50.104" fill="#CC0000" width="5.075" height="17.7"/>
	<polygon fill="#CC0000" points="77.65,63.228 77.65,50.104 72.6,50.104 72.6,63.228 72.6,67.803 77.65,67.803 84.475,67.803 
		84.475,63.228 	"/>
	<path fill="#CC0000" d="M1.75,67.803H21.5c0,0-3.775-17.225,8.725-24.2c2.725-1.325,11.4-6.275,25.6,4.226
		c0.45-0.375,0.875-0.676,0.875-0.676s-13-12.975-27.475-11.525C21.95,36.277,13,42.902,7.75,51.653
		C2.5,60.403,1.75,67.803,1.75,67.803z"/>
	<path fill="#CC0000" d="M1.75,67.803H21.5c0,0-3.775-17.225,8.725-24.2c2.725-1.325,11.4-6.275,25.6,4.226
		c0.45-0.375,0.875-0.676,0.875-0.676s-13-12.975-27.475-11.525C21.95,36.277,13,42.902,7.75,51.653
		C2.5,60.403,1.75,67.803,1.75,67.803z"/>
	<path fill="#CC0000" d="M1.75,67.803H21.5c0,0-3.775-17.225,8.725-24.2c2.725-1.325,11.4-6.275,25.6,4.226
		c0.45-0.375,0.875-0.676,0.875-0.676s-13-12.975-27.475-11.525c-7.3,0.65-16.25,7.275-21.5,16.026
		C2.475,60.403,1.75,67.803,1.75,67.803z"/>
	<path fill="#CC0000" d="M42.9,37.027l0.1-1.674c-0.225-0.125-0.85-0.426-2.425-0.875l-0.101,1.648
		C41.3,36.402,42.1,36.702,42.9,37.027z"/>
	<path fill="#CC0000" d="M40.525,42.328l-0.1,1.574c0.825,0.025,1.65,0.125,2.476,0.301L43,42.652
		C42.15,42.479,41.325,42.378,40.525,42.328z"/>
	<path fill="#CC0000" d="M31.275,34.527c0.074,0,0.175,0,0.25,0l-0.5-1.525c-0.775,0-1.575,0.051-2.4,0.15l0.475,1.475
		C29.825,34.553,30.55,34.527,31.275,34.527z"/>
	<path fill="#CC0000" d="M32.475,43.729l0.575,1.726c0.726-0.351,1.45-0.649,2.175-0.875l-0.55-1.649
		C33.825,43.179,33.1,43.453,32.475,43.729z"/>
	<path fill="#CC0000" d="M21.125,37.152L20,35.428c-0.625,0.324-1.275,0.676-1.95,1.074l1.15,1.75
		C19.85,37.854,20.475,37.479,21.125,37.152z"/>
	<path fill="#CC0000" d="M26.25,48.402l1.2,1.801c0.425-0.625,0.925-1.2,1.475-1.774l-1.125-1.7
		C27.225,47.253,26.7,47.828,26.25,48.402z"/>
	<path fill="#CC0000" d="M22.625,56.453l2.025,1.601c0.1-0.976,0.275-1.949,0.525-2.926l-1.8-1.425
		C23.05,54.628,22.825,55.554,22.625,56.453z"/>
	<path fill="#CC0000" d="M11.675,44.578L9.9,43.027c-0.65,0.625-1.275,1.25-1.85,1.875l1.925,1.65
		C10.5,45.878,11.075,45.203,11.675,44.578z"/>
	<path fill="#CC0000" d="M4.125,55.753l-2.875-1.05c-0.475,1.075-1,2.325-1.25,3l2.875,1.05C3.2,57.903,3.725,56.679,4.125,55.753z"
		/>
	<path fill="#CC0000" d="M22.25,62.804c0.05,1.324,0.175,2.399,0.3,3.149l3,1.075c-0.225-0.976-0.45-2.075-0.6-3.25L22.25,62.804z"
		/>
</g>
<linearGradient id="SVGID_1_" gradientUnits="userSpaceOnUse" x1="71.7822" y1="-17.3076" x2="81.3235" y2="-22.0783">
	<stop  offset="0" style="stop-color:#FFFFFF"/>
	<stop  offset="0" style="stop-color:#FFFFFF"/>
	<stop  offset="0.54" style="stop-color:#C8422A"/>
	<stop  offset="0.99" style="stop-color:#C12121"/>
	<stop  offset="1" style="stop-color:#C12121"/>
</linearGradient>
<polygon fill-rule="evenodd" clip-rule="evenodd" fill="url(#SVGID_1_)" points="69.982,-19.958 83.206,-19.897 75.098,-15.417 "/>
<g>
	<linearGradient id="SVGID_2_" gradientUnits="userSpaceOnUse" x1="88.7559" y1="24.2061" x2="79.9732" y2="8.6998">
		<stop  offset="0" style="stop-color:#F1926B"/>
		<stop  offset="0" style="stop-color:#F1926B"/>
		<stop  offset="0.41" style="stop-color:#DB4C34"/>
		<stop  offset="0.99" style="stop-color:#A72126"/>
		<stop  offset="1" style="stop-color:#A72126"/>
	</linearGradient>
	<polygon fill-rule="evenodd" clip-rule="evenodd" fill="url(#SVGID_2_)" points="60.665,20.432 91.44,18.344 93.811,-12.688 
		84.433,6.318 	"/>
	<linearGradient id="SVGID_3_" gradientUnits="userSpaceOnUse" x1="93.1309" y1="11.1826" x2="81.8123" y2="3.5872">
		<stop  offset="0" style="stop-color:#9A3729"/>
		<stop  offset="0" style="stop-color:#9A3729"/>
		<stop  offset="0.99" style="stop-color:#A2372A"/>
		<stop  offset="1" style="stop-color:#A2372A"/>
	</linearGradient>
	<polygon fill-rule="evenodd" clip-rule="evenodd" fill="url(#SVGID_3_)" points="81.641,9.58 91.49,18.322 88.845,0.065 	"/>
	<linearGradient id="SVGID_4_" gradientUnits="userSpaceOnUse" x1="84.0752" y1="24.6777" x2="72.757" y2="17.0825">
		<stop  offset="0" style="stop-color:#9A3729"/>
		<stop  offset="0" style="stop-color:#9A3729"/>
		<stop  offset="0.99" style="stop-color:#A2372A"/>
		<stop  offset="1" style="stop-color:#A2372A"/>
	</linearGradient>
	<polygon fill-rule="evenodd" clip-rule="evenodd" fill="url(#SVGID_4_)" points="60.768,20.392 91.526,18.322 72.147,16.801 	"/>
	<linearGradient id="SVGID_5_" gradientUnits="userSpaceOnUse" x1="60.3105" y1="5.6846" x2="62.0651" y2="17.0872">
		<stop  offset="0" style="stop-color:#FFFFFF"/>
		<stop  offset="0" style="stop-color:#FFFFFF"/>
		<stop  offset="0.23" style="stop-color:#E38E69"/>
		<stop  offset="0.46" style="stop-color:#D95D36"/>
		<stop  offset="0.99" style="stop-color:#A60003"/>
		<stop  offset="1" style="stop-color:#A60003"/>
	</linearGradient>
	<polygon fill-rule="evenodd" clip-rule="evenodd" fill="url(#SVGID_5_)" points="54.982,6.814 60.795,20.396 65.636,4.537 	"/>
	<linearGradient id="SVGID_6_" gradientUnits="userSpaceOnUse" x1="72.3779" y1="-4.9644" x2="73.0244" y2="6.6738">
		<stop  offset="0" style="stop-color:#FFFFFF"/>
		<stop  offset="0" style="stop-color:#FFFFFF"/>
		<stop  offset="0.23" style="stop-color:#E18D65"/>
		<stop  offset="0.56" style="stop-color:#C23D28"/>
		<stop  offset="0.99" style="stop-color:#B22B23"/>
		<stop  offset="1" style="stop-color:#B22B23"/>
	</linearGradient>
	<polygon fill-rule="evenodd" clip-rule="evenodd" fill="url(#SVGID_6_)" points="64.436,4.133 81.638,9.632 77.184,-7.816 	"/>
	<linearGradient id="SVGID_7_" gradientUnits="userSpaceOnUse" x1="83.0889" y1="-15.7192" x2="85.024" y2="-7.3796">
		<stop  offset="0" style="stop-color:#FFFFFF"/>
		<stop  offset="0" style="stop-color:#FFFFFF"/>
		<stop  offset="0.18" style="stop-color:#E08159"/>
		<stop  offset="0.4" style="stop-color:#C94729"/>
		<stop  offset="0.99" style="stop-color:#B22B23"/>
		<stop  offset="1" style="stop-color:#B22B23"/>
	</linearGradient>
	<polygon fill-rule="evenodd" clip-rule="evenodd" fill="url(#SVGID_7_)" points="77.394,-6.564 92.799,-7.57 80.75,-17.412 	"/>
	<linearGradient id="SVGID_8_" gradientUnits="userSpaceOnUse" x1="53.001" y1="2.7773" x2="53.6874" y2="9.6502">
		<stop  offset="0" style="stop-color:#FFFFFF"/>
		<stop  offset="0" style="stop-color:#FFFFFF"/>
		<stop  offset="0.31" style="stop-color:#D9613A"/>
		<stop  offset="0.99" style="stop-color:#C23D25"/>
		<stop  offset="1" style="stop-color:#C23D25"/>
	</linearGradient>
	<polygon fill-rule="evenodd" clip-rule="evenodd" fill="url(#SVGID_8_)" points="52.747,0.27 52.18,12.134 55.149,6.72 	"/>
	<path fill-rule="evenodd" clip-rule="evenodd" fill="#FFFFFF" d="M52.588,0.065l2.416,6.854l10.5-2.356l11.987-11.14l3.382-10.745
		l-5.326-3.762l-9.056,3.39c-2.854,2.653-8.391,7.904-8.589,8.003C57.704-9.589,54.245-3.053,52.588,0.065z"/>
	<linearGradient id="SVGID_9_" gradientUnits="userSpaceOnUse" x1="48.2793" y1="11.5073" x2="80.5476" y2="-21.6735">
		<stop  offset="0" style="stop-color:#BD0012"/>
		<stop  offset="0" style="stop-color:#BD0012"/>
		<stop  offset="0.07" style="stop-color:#FFFFFF"/>
		<stop  offset="0.17" style="stop-color:#FFFFFF"/>
		<stop  offset="0.27" style="stop-color:#C95233"/>
		<stop  offset="0.33" style="stop-color:#972E29"/>
		<stop  offset="0.46" style="stop-color:#AF3B24"/>
		<stop  offset="0.72" style="stop-color:#B93521"/>
		<stop  offset="0.99" style="stop-color:#DC4719"/>
		<stop  offset="1" style="stop-color:#DC4719"/>
	</linearGradient>
	<path fill-rule="evenodd" clip-rule="evenodd" fill="url(#SVGID_9_)" d="M61.072-12.247c6.184-6.131,14.155-9.753,17.215-6.667
		c3.058,3.086-0.186,10.587-6.369,16.717c-6.184,6.128-14.057,9.951-17.113,6.864C51.745,1.582,54.889-6.119,61.072-12.247z"/>
	<linearGradient id="SVGID_10_" gradientUnits="userSpaceOnUse" x1="72.998" y1="14.8535" x2="63.2798" y2="12.455">
		<stop  offset="0" style="stop-color:#9E2D28"/>
		<stop  offset="0" style="stop-color:#9E2D28"/>
		<stop  offset="0.54" style="stop-color:#A72C26"/>
		<stop  offset="0.99" style="stop-color:#B22A2D"/>
		<stop  offset="1" style="stop-color:#B22A2D"/>
	</linearGradient>
	<path fill-rule="evenodd" clip-rule="evenodd" fill="url(#SVGID_10_)" d="M60.795,20.39l4.804-15.91L81.55,9.604
		C75.782,15.013,69.367,19.585,60.795,20.39z"/>
	<linearGradient id="SVGID_11_" gradientUnits="userSpaceOnUse" x1="89.6914" y1="3.1899" x2="81.0564" y2="-4.5494">
		<stop  offset="0" style="stop-color:#94362E"/>
		<stop  offset="0" style="stop-color:#94362E"/>
		<stop  offset="0.99" style="stop-color:#AB2C25"/>
		<stop  offset="1" style="stop-color:#AB2C25"/>
	</linearGradient>
	<path fill-rule="evenodd" clip-rule="evenodd" fill="url(#SVGID_11_)" d="M77.512-6.608l4.095,16.221
		c4.818-5.066,9.143-10.513,11.26-17.249L77.512-6.608z"/>
	<linearGradient id="SVGID_12_" gradientUnits="userSpaceOnUse" x1="92.8623" y1="-11.0107" x2="88.5612" y2="-15.609">
		<stop  offset="0" style="stop-color:#90382E"/>
		<stop  offset="0" style="stop-color:#90382E"/>
		<stop  offset="0.99" style="stop-color:#AB362B"/>
		<stop  offset="1" style="stop-color:#AB362B"/>
	</linearGradient>
	<path fill-rule="evenodd" clip-rule="evenodd" fill="url(#SVGID_12_)" d="M92.824-7.553c1.64-4.946,2.018-12.042-5.711-13.359
		l-6.341,3.502L92.824-7.553z"/>
	<path fill-rule="evenodd" clip-rule="evenodd" fill="#AB3628" d="M52.18,12.063c0.227,8.163,6.116,8.285,8.626,8.356L55.01,6.886
		L52.18,12.063z"/>
	<radialGradient id="SVGID_13_" cx="82.4004" cy="-4.4019" r="10.5823" gradientUnits="userSpaceOnUse">
		<stop  offset="0" style="stop-color:#B22B23"/>
		<stop  offset="0" style="stop-color:#B22B23"/>
		<stop  offset="0.99" style="stop-color:#94312B"/>
		<stop  offset="1" style="stop-color:#94312B"/>
	</radialGradient>
	<path fill-rule="evenodd" clip-rule="evenodd" fill="url(#SVGID_13_)" d="M77.534-6.583c3.703,2.275,11.164,6.846,11.315,6.93
		c0.234,0.132,3.216-5.028,3.894-7.945L77.534-6.583z"/>
	<radialGradient id="SVGID_14_" cx="67.748" cy="9.5415" r="14.0661" gradientUnits="userSpaceOnUse">
		<stop  offset="0" style="stop-color:#AF2B24"/>
		<stop  offset="0" style="stop-color:#AF2B24"/>
		<stop  offset="0.99" style="stop-color:#96322C"/>
		<stop  offset="1" style="stop-color:#96322C"/>
	</radialGradient>
	<path fill-rule="evenodd" clip-rule="evenodd" fill="url(#SVGID_14_)" d="M65.592,4.48l6.421,12.388
		c3.798-2.06,6.771-4.568,9.493-7.255L65.592,4.48z"/>
	<linearGradient id="SVGID_15_" gradientUnits="userSpaceOnUse" x1="57.7842" y1="20.3818" x2="54.2788" y2="8.4893">
		<stop  offset="0" style="stop-color:#9F4530"/>
		<stop  offset="0" style="stop-color:#9F4530"/>
		<stop  offset="0.43" style="stop-color:#AB312B"/>
		<stop  offset="0.99" style="stop-color:#B9302A"/>
		<stop  offset="1" style="stop-color:#B9302A"/>
	</linearGradient>
	<path fill-rule="evenodd" clip-rule="evenodd" fill="url(#SVGID_15_)" d="M54.985,6.902l-0.91,10.834
		c1.717,2.345,4.078,2.549,6.556,2.366C58.839,15.641,55.259,6.722,54.985,6.902z"/>
</g>
<linearGradient id="SVGID_16_" gradientUnits="userSpaceOnUse" x1="80.3555" y1="-17.7275" x2="89.3457" y2="-13.7591">
	<stop  offset="0" style="stop-color:#B93021"/>
	<stop  offset="0" style="stop-color:#B93021"/>
	<stop  offset="0.44" style="stop-color:#A2322A"/>
	<stop  offset="0.99" style="stop-color:#904131"/>
	<stop  offset="1" style="stop-color:#904131"/>
</linearGradient>
<path fill-rule="evenodd" clip-rule="evenodd" fill="url(#SVGID_16_)" d="M75.851-15.85l14.594,2.049
	c-0.778-3.301-3.171-5.431-7.247-6.097L75.851-15.85z"/>
</svg>
