<?xml version="1.0" encoding="utf-8"?>
<!-- Generator: Adobe Illustrator 16.0.4, SVG Export Plug-In . SVG Version: 6.00 Build 0)  -->
<!DOCTYPE svg PUBLIC "-//W3C//DTD SVG 1.1//EN" "http://www.w3.org/Graphics/SVG/1.1/DTD/svg11.dtd">
<svg version="1.1" id="レイヤー_1" xmlns="http://www.w3.org/2000/svg" xmlns:xlink="http://www.w3.org/1999/xlink" x="0px"
	 y="0px" width="100px" height="100px" viewBox="0 0 100 100" enable-background="new 0 0 100 100" xml:space="preserve">
<g>
	<g>
		<g>
			<defs>
				<circle id="SVGID_1_" cx="50" cy="50.001" r="50"/>
			</defs>
			<clipPath id="SVGID_2_">
				<use xlink:href="#SVGID_1_"  overflow="visible"/>
			</clipPath>
			<circle clip-path="url(#SVGID_2_)" fill="#FFF200" cx="50" cy="50.001" r="50"/>
		</g>
	</g>
	<g>
		<g>
			<defs>
				<circle id="SVGID_3_" cx="50" cy="50.001" r="50"/>
			</defs>
			<clipPath id="SVGID_4_">
				<use xlink:href="#SVGID_3_"  overflow="visible"/>
			</clipPath>
			<path clip-path="url(#SVGID_4_)" fill="#231F20" d="M20.623,93.727l16.793-46.191h6.735l-1.945,5.847h16.222l-1.919-5.854
				l6.735,0.009l16.57,46.349l-6.513,1.734l-4.099-11.341h-37.93l-4.178,11.438L20.623,93.727z M67.118,78.344l-2.548-7.279H35.974
				l-2.583,7.279H67.118z M62.494,65.128l-2.033-5.812H40.143l-2.063,5.812H62.494z"/>
		</g>
		<g>
			<defs>
				<circle id="SVGID_5_" cx="50" cy="50.001" r="50"/>
			</defs>
			<clipPath id="SVGID_6_">
				<use xlink:href="#SVGID_5_"  overflow="visible"/>
			</clipPath>
			<path clip-path="url(#SVGID_6_)" fill="#FFFFFF" d="M58.58,49.028l3.605,0.005l15.668,43.82l-3.606,0.961l-3.989-11.035H30.224
				l-4.049,11.086l-3.603-1.108l15.896-43.724h3.604l-1.945,5.847h20.372L58.58,49.028 M35.956,66.628h28.653l-3.084-8.812H39.084
				L35.956,66.628 M31.266,79.844H69.23l-3.597-10.279h-30.72L31.266,79.844 M54.438,46.022l1.92,5.857H44.286l1.945-5.846h-9.866
				L18.674,94.695l9.341,2.875l4.306-11.791h35.832l4.209,11.643l9.412-2.509L64.299,46.037L54.438,46.022z M41.202,60.816h18.194
				l0.982,2.812H40.204L41.202,60.816z M37.033,72.562h26.474l1.497,4.279h-29.49L37.033,72.562z"/>
		</g>
	</g>
	<g>
		<g>
			<defs>
				<circle id="SVGID_7_" cx="50" cy="50.001" r="50"/>
			</defs>
			<clipPath id="SVGID_8_">
				<use xlink:href="#SVGID_7_"  overflow="visible"/>
			</clipPath>
			<polygon clip-path="url(#SVGID_8_)" fill="#FCB1D0" points="35.682,14.579 64.329,14.579 70.257,22.81 50.418,43.72 
				29.754,22.81 			"/>
		</g>
		<g>
			<defs>
				<circle id="SVGID_9_" cx="50" cy="50.001" r="50"/>
			</defs>
			<clipPath id="SVGID_10_">
				<use xlink:href="#SVGID_9_"  overflow="visible"/>
			</clipPath>
			<path clip-path="url(#SVGID_10_)" fill="#231F20" d="M50.434,45.316L28.306,22.922l6.807-9.453h29.786l6.797,9.438L50.434,45.316
				z M31.205,22.697L50.4,42.125l18.418-19.412L63.76,15.69H36.25L31.205,22.697z"/>
		</g>
		<g>
			<defs>
				<circle id="SVGID_11_" cx="50" cy="50.001" r="50"/>
			</defs>
			<clipPath id="SVGID_12_">
				<use xlink:href="#SVGID_11_"  overflow="visible"/>
			</clipPath>
			<rect x="29.754" y="21.7" clip-path="url(#SVGID_12_)" fill="#231F20" width="40.503" height="2.22"/>
		</g>
		<g>
			<defs>
				<circle id="SVGID_13_" cx="50" cy="50.001" r="50"/>
			</defs>
			<clipPath id="SVGID_14_">
				<use xlink:href="#SVGID_13_"  overflow="visible"/>
			</clipPath>
			<polygon clip-path="url(#SVGID_14_)" fill="#231F20" points="49.39,44.144 40.855,23.363 34.792,15.243 36.571,13.915 
				42.855,22.389 51.443,43.3 			"/>
		</g>
		<g>
			<defs>
				<circle id="SVGID_15_" cx="50" cy="50.001" r="50"/>
			</defs>
			<clipPath id="SVGID_16_">
				<use xlink:href="#SVGID_15_"  overflow="visible"/>
			</clipPath>
			<polygon clip-path="url(#SVGID_16_)" fill="#231F20" points="51.443,44.144 49.39,43.3 58.117,22.146 64.264,13.915 
				66.041,15.243 59.979,23.363 			"/>
		</g>
		<g>
			<defs>
				<circle id="SVGID_17_" cx="50" cy="50.001" r="50"/>
			</defs>
			<clipPath id="SVGID_18_">
				<use xlink:href="#SVGID_17_"  overflow="visible"/>
			</clipPath>
			<polygon clip-path="url(#SVGID_18_)" fill="#231F20" points="58.254,23.627 50.418,16.417 42.58,23.627 41.077,21.995 
				50.418,13.4 59.756,21.995 			"/>
		</g>
	</g>
</g>
</svg>
