<?xml version="1.0" encoding="utf-8"?>
<!-- Generator: Adobe Illustrator 16.0.4, SVG Export Plug-In . SVG Version: 6.00 Build 0)  -->
<!DOCTYPE svg PUBLIC "-//W3C//DTD SVG 1.1//EN" "http://www.w3.org/Graphics/SVG/1.1/DTD/svg11.dtd">
<svg version="1.1" id="レイヤー_1" xmlns="http://www.w3.org/2000/svg" xmlns:xlink="http://www.w3.org/1999/xlink" x="0px"
	 y="0px" width="100px" height="100px" viewBox="0 0 100 100" enable-background="new 0 0 100 100" xml:space="preserve">
<g display="none">
	<g display="inline">
		<g>
			<defs>
				<circle id="SVGID_1_" cx="50" cy="50.001" r="50"/>
			</defs>
			<clipPath id="SVGID_2_">
				<use xlink:href="#SVGID_1_"  overflow="visible"/>
			</clipPath>
			<circle clip-path="url(#SVGID_2_)" fill="#00B2E6" cx="50" cy="50.001" r="50"/>
		</g>
	</g>
</g>
<line fill="none" x1="128.98" y1="45.197" x2="128.98" y2="45.197"/>
<g>
	<path fill="#191313" d="M27.639,46.75C12.929,46.75,1,58.676,1,73.387c0,11.771,7.632,21.756,18.216,25.276
		c1.331,0.248,1.82-0.577,1.82-1.281c0-0.635-0.025-2.733-0.036-4.958c-7.411,1.609-8.974-3.145-8.974-3.145
		c-1.212-3.078-2.958-3.896-2.958-3.896C6.651,83.73,9.25,83.764,9.25,83.764c2.675,0.188,4.083,2.744,4.083,2.744
		c2.375,4.072,6.231,2.895,7.752,2.215c0.238-1.721,0.929-2.896,1.691-3.562c-5.917-0.673-12.137-2.957-12.137-13.164
		c0-2.908,1.041-5.284,2.745-7.149c-0.276-0.671-1.188-3.38,0.258-7.05c0,0,2.237-0.716,7.327,2.729
		c2.125-0.59,4.403-0.887,6.668-0.896c2.263,0.011,4.543,0.308,6.673,0.896c5.084-3.445,7.317-2.729,7.317-2.729
		c1.451,3.67,0.539,6.379,0.262,7.05c1.708,1.865,2.742,4.241,2.742,7.149c0,10.231-6.231,12.483-12.163,13.146
		c0.955,0.825,1.807,2.446,1.807,4.931c0,3.563-0.031,6.433-0.031,7.311c0,0.71,0.479,1.539,1.83,1.278
		c10.578-3.525,18.201-13.508,18.201-25.273C54.275,58.676,42.349,46.75,27.639,46.75z"/>
	<path fill="#191313" d="M11.09,84.996c-0.059,0.133-0.268,0.172-0.457,0.081c-0.193-0.088-0.301-0.269-0.239-0.4
		c0.058-0.136,0.266-0.175,0.459-0.084C11.046,84.682,11.157,84.863,11.09,84.996L11.09,84.996z"/>
	<path fill="#191313" d="M12.168,86.199c-0.127,0.117-0.375,0.062-0.544-0.123c-0.174-0.188-0.207-0.436-0.078-0.555
		c0.131-0.115,0.372-0.062,0.547,0.123C12.267,85.834,12.302,86.079,12.168,86.199L12.168,86.199z"/>
	<path fill="#191313" d="M13.219,87.732c-0.164,0.115-0.43,0.009-0.595-0.229c-0.163-0.236-0.163-0.521,0.004-0.635
		c0.165-0.113,0.428-0.012,0.595,0.223C13.386,87.333,13.386,87.617,13.219,87.732L13.219,87.732z"/>
	<path fill="#191313" d="M14.658,89.217c-0.146,0.16-0.458,0.117-0.685-0.104c-0.233-0.215-0.298-0.521-0.152-0.68
		c0.148-0.162,0.461-0.117,0.69,0.102C14.743,88.75,14.813,89.057,14.658,89.217L14.658,89.217z"/>
	<path fill="#191313" d="M16.642,90.076c-0.064,0.209-0.363,0.303-0.665,0.214c-0.302-0.091-0.498-0.336-0.438-0.546
		c0.062-0.21,0.363-0.309,0.667-0.213C16.508,89.622,16.705,89.864,16.642,90.076L16.642,90.076z"/>
	<path fill="#191313" d="M18.823,90.236c0.007,0.219-0.249,0.399-0.565,0.406c-0.318,0.006-0.577-0.172-0.58-0.39
		c0-0.221,0.25-0.401,0.568-0.405C18.563,89.841,18.823,90.018,18.823,90.236L18.823,90.236z"/>
	<path fill="#191313" d="M20.851,89.891c0.038,0.215-0.182,0.435-0.496,0.492c-0.31,0.057-0.596-0.076-0.635-0.289
		c-0.039-0.219,0.185-0.438,0.494-0.494C20.529,89.543,20.811,89.672,20.851,89.891L20.851,89.891z"/>
</g>
<g>
	<g>
		<path fill="#191313" d="M98.5,40.398c0,2.816-2.285,5.102-5.102,5.102H50.036c-2.816,0-5.101-2.285-5.101-5.102V6.602
			c0-2.816,2.285-5.102,5.101-5.102H93.4c2.814,0,5.101,2.285,5.101,5.102L98.5,40.398L98.5,40.398z"/>
		<path fill="#D1D1D1" d="M98.5,40.398H97c-0.001,0.998-0.4,1.89-1.057,2.546C95.288,43.6,94.396,43.999,93.398,44H50.036
			c-0.999-0.001-1.889-0.4-2.546-1.056c-0.654-0.656-1.055-1.548-1.055-2.546V6.602c0-0.998,0.401-1.89,1.055-2.546
			C48.146,3.4,49.037,3.001,50.036,3H93.4c0.998,0.001,1.889,0.4,2.545,1.056C96.6,4.712,96.999,5.604,97,6.602v33.797L98.5,40.398
			l1.5,0.001V6.602c-0.002-3.646-2.955-6.6-6.602-6.602H50.036c-3.646,0.001-6.6,2.956-6.601,6.602v33.797
			c0.001,3.646,2.955,6.601,6.601,6.602H93.4c3.646-0.002,6.599-2.956,6.601-6.602L98.5,40.398L98.5,40.398z"/>
	</g>
	<g>
		<path fill="#2BCC3E" d="M53.545,21.044c-1.088-0.129-2.381-0.609-3.249-1.403l1.183-1.828c0.94,0.702,1.754,1.071,2.639,1.071
			c1.035,0,1.496-0.425,1.496-1.274c0-1.901-4.875-1.864-4.875-5.188c0-1.81,1.072-3.065,2.807-3.416V7.104h1.791v1.864
			c1.182,0.167,2.031,0.758,2.752,1.515l-1.367,1.551c-0.664-0.609-1.236-0.923-2.012-0.923c-0.887,0-1.367,0.351-1.367,1.182
			c0,1.754,4.875,1.605,4.875,5.132c0,1.772-0.979,3.14-2.881,3.545v1.921h-1.791V21.044L53.545,21.044z"/>
	</g>
	<rect x="61.826" y="8.25" fill="#2BCC3E" width="5" height="14.5"/>
</g>
</svg>
