<?xml version="1.0" standalone="no"?>
<!DOCTYPE svg PUBLIC "-//W3C//DTD SVG 20010904//EN"
 "http://www.w3.org/TR/2001/REC-SVG-20010904/DTD/svg10.dtd">
<svg version="1.0" xmlns="http://www.w3.org/2000/svg"
 width="512.000000pt" height="512.000000pt" viewBox="0 0 512.000000 512.000000"
 preserveAspectRatio="xMidYMid meet">
<metadata>
Created by potrace 1.11, written by Peter Selinger 2001-2013
</metadata>
<g transform="translate(0.000000,512.000000) scale(0.100000,-0.100000)"
fill="#000000" stroke="none">
<path d="M2113 3288 c-31 -15 -56 -73 -49 -113 21 -113 180 -114 201 -2 9 44
1 68 -32 101 -28 28 -79 34 -120 14z"/>
<path d="M2444 3289 c-66 -33 -70 -143 -6 -185 47 -31 129 -12 147 34 42 104
-45 197 -141 151z"/>
<path d="M3218 3012 l-158 -3 0 -584 c0 -461 3 -585 13 -586 6 0 60 -1 120 -2
l107 -2 0 213 0 212 70 0 70 0 105 -210 106 -210 34 -1 c45 -1 198 -1 229 0
22 1 15 16 -103 234 l-127 232 41 26 c52 33 108 100 132 159 14 35 18 71 18
160 0 107 -2 119 -30 173 -79 158 -206 197 -627 189z m345 -236 c49 -24 70
-65 68 -133 -3 -123 -66 -168 -243 -172 l-88 -2 0 166 0 167 113 -4 c82 -3
122 -9 150 -22z"/>
<path d="M2179 2990 c-30 -9 -67 -24 -84 -32 -50 -26 -124 -97 -164 -157 -82
-124 -111 -235 -107 -411 4 -139 33 -238 102 -342 103 -155 233 -220 424 -214
92 2 113 7 170 33 93 43 189 147 241 261 59 128 75 326 38 470 -52 206 -191
360 -363 401 -66 16 -191 12 -257 -9z m238 -224 c109 -56 164 -181 158 -361
-3 -115 -6 -128 -39 -200 -42 -92 -134 -156 -225 -155 -77 1 -175 82 -212 176
-20 51 -23 77 -23 194 0 119 2 142 23 194 28 70 102 150 152 165 44 13 129 7
166 -13z"/>
<path d="M43 2992 l-23 -3 0 -565 c0 -557 0 -564 20 -565 103 -3 232 0 238 6
4 3 7 102 7 218 l0 212 193 3 c174 2 192 4 193 20 1 32 1 147 0 167 -1 19 -8
20 -193 20 l-193 0 0 140 0 140 228 3 c171 2 227 5 228 15 1 6 2 51 3 99 1 81
0 88 -19 89 -69 3 -664 3 -682 1z"/>
<path d="M1224 2587 c-1 -446 -1 -447 -64 -480 -30 -15 -53 -18 -152 -14
l-118 4 0 -118 0 -117 53 -8 c138 -20 294 -7 367 31 76 39 134 111 164 203 28
82 28 93 30 510 l1 392 -140 0 -140 0 -1 -403z"/>
<path d="M4199 2937 c0 -43 0 -923 1 -1033 l0 -62 223 3 c122 2 231 5 242 8
11 3 34 8 50 12 17 4 60 23 96 42 181 93 285 291 278 527 -7 247 -143 443
-359 517 -59 20 -87 23 -297 26 l-233 3 -1 -43z m444 -182 c45 -19 100 -66
126 -109 47 -75 67 -224 45 -336 -33 -174 -122 -255 -287 -263 l-77 -4 0 56
c-1 77 -1 620 0 652 l0 27 78 -4 c43 -2 95 -10 115 -19z"/>
</g>
</svg>
